<?xml version="1.0" encoding="UTF-8"?>
<!DOCTYPE svg PUBLIC "-//W3C//DTD SVG 1.1//EN" "http://www.w3.org/Graphics/SVG/1.1/DTD/svg11.dtd">
<!-- Creator: CorelDRAW 2021 (64-Bit) -->
<svg xmlns="http://www.w3.org/2000/svg" xml:space="preserve" width="4.3391mm" height="4.3391mm" version="1.1" style="shape-rendering:geometricPrecision; text-rendering:geometricPrecision; image-rendering:optimizeQuality; fill-rule:evenodd; clip-rule:evenodd"
viewBox="0 0 52.69 52.69"
 xmlns:xlink="http://www.w3.org/1999/xlink"
 xmlns:xodm="http://www.corel.com/coreldraw/odm/2003">
 <defs>
  <style type="text/css">
   <![CDATA[
    .str0 {stroke:#E31E24;stroke-width:1.28;stroke-miterlimit:22.9256}
    .fil1 {fill:none}
    .fil0 {fill:#E31E24}
    .fil2 {fill:#FEFEFE;fill-rule:nonzero}
   ]]>
  </style>
 </defs>
 <g id="Katman_x0020_1">
  <metadata id="CorelCorpID_0Corel-Layer"/>
  <circle class="fil0" cx="26.34" cy="26.34" r="21.67"/>
  <circle class="fil1 str0" cx="26.34" cy="26.34" r="25.7"/>
  <path class="fil2" d="M22.69 33.39c0,-0.97 -0.39,-1.85 -1.03,-2.49 -0.38,-0.38 -0.85,-0.68 -1.38,-0.85 -0.17,0 -0.34,-0.04 -0.49,-0.12 -0.2,-0.04 -0.42,-0.06 -0.63,-0.06 -0.97,0 -1.85,0.39 -2.49,1.03 -0.64,0.64 -1.03,1.52 -1.03,2.49 0,0.97 0.39,1.85 1.03,2.49 0.64,0.64 1.52,1.03 2.49,1.03 0.97,0 1.85,-0.39 2.49,-1.03 0.64,-0.64 1.03,-1.52 1.03,-2.49zm5.23 -0.9c-0.35,-0.35 -0.35,-0.93 0,-1.28 0.35,-0.35 0.92,-0.35 1.28,0l3.16 3.16c0.68,0.68 1.58,1.02 2.48,1.02 0.61,0 1.21,-0.16 1.76,-0.47l-7.31 -7.31 -4.86 4.87c0.05,0.29 0.08,0.59 0.08,0.9 0,1.47 -0.6,2.8 -1.56,3.77 -0.96,0.97 -2.3,1.56 -3.77,1.56 -1.47,0 -2.8,-0.6 -3.77,-1.56 -0.96,-0.96 -1.56,-2.3 -1.56,-3.77 0,-1.47 0.6,-2.8 1.56,-3.77 0.96,-0.96 2.3,-1.56 3.77,-1.56 0.28,0 0.56,0.02 0.83,0.06l11.09 -11.09c1.03,-1.03 2.39,-1.55 3.75,-1.55 1.36,0 2.72,0.52 3.75,1.55 0.35,0.35 0.35,0.93 0,1.28l-8.03 8.03 8.03 8.03c0.35,0.35 0.35,0.92 0,1.28 -1.03,1.03 -2.39,1.55 -3.75,1.55 -1.36,0 -2.72,-0.52 -3.75,-1.55l-3.16 -3.16zm-5.23 -13.19c0,-0.97 -0.39,-1.85 -1.03,-2.49 -0.64,-0.64 -1.52,-1.03 -2.49,-1.03 -0.97,0 -1.85,0.39 -2.49,1.03 -0.64,0.64 -1.03,1.52 -1.03,2.49 0,0.97 0.39,1.85 1.03,2.49 0.64,0.64 1.52,1.03 2.49,1.03 0.97,0 1.85,-0.39 2.49,-1.03 0.64,-0.64 1.03,-1.52 1.03,-2.49zm0.25 -3.77c0.97,0.96 1.56,2.3 1.56,3.77 0,1.47 -0.6,2.8 -1.56,3.77 -0.96,0.96 -2.3,1.56 -3.77,1.56 -1.47,0 -2.8,-0.6 -3.77,-1.56 -0.96,-0.97 -1.56,-2.3 -1.56,-3.77 0,-1.47 0.6,-2.8 1.56,-3.77 0.96,-0.97 2.3,-1.56 3.77,-1.56 1.47,0 2.8,0.6 3.77,1.56zm0.79 15.09l4.89 -4.89 0.02 -0.02 0.02 -0.02 0.02 -0.02 0.02 -0.02 7.92 -7.92c-0.54,-0.31 -1.15,-0.47 -1.76,-0.47 -0.9,0 -1.8,0.34 -2.48,1.02l-10.49 10.49c0.39,0.23 0.74,0.51 1.06,0.82 0.3,0.3 0.57,0.64 0.79,1.01z"/>
 </g>
</svg>
