<?xml version="1.0" encoding="UTF-8"?>
<!DOCTYPE svg PUBLIC "-//W3C//DTD SVG 1.1//EN" "http://www.w3.org/Graphics/SVG/1.1/DTD/svg11.dtd">
<!-- Creator: CorelDRAW 2021 (64-Bit) -->
<svg xmlns="http://www.w3.org/2000/svg" xml:space="preserve" width="4.3391mm" height="4.3391mm" version="1.1" style="shape-rendering:geometricPrecision; text-rendering:geometricPrecision; image-rendering:optimizeQuality; fill-rule:evenodd; clip-rule:evenodd"
viewBox="0 0 17.62 17.62"
 xmlns:xlink="http://www.w3.org/1999/xlink"
 xmlns:xodm="http://www.corel.com/coreldraw/odm/2003">
 <defs>
  <style type="text/css">
   <![CDATA[
    .str0 {stroke:#E31E24;stroke-width:0.43;stroke-miterlimit:22.9256}
    .fil1 {fill:none}
    .fil3 {fill:#FEFEFE}
    .fil0 {fill:#E31E24}
    .fil2 {fill:#FEFEFE;fill-rule:nonzero}
   ]]>
  </style>
 </defs>
 <g id="Katman_x0020_1">
  <metadata id="CorelCorpID_0Corel-Layer"/>
  <circle class="fil0" cx="8.81" cy="8.81" r="7.25"/>
  <circle class="fil1 str0" cx="8.81" cy="8.81" r="8.59"/>
  <path class="fil2" d="M14.06 10.78l-1.23 0c-0.1,-0.49 -0.53,-0.86 -1.05,-0.86 -0.52,0 -0.95,0.37 -1.05,0.86l-0.23 0 0 -3.4 2.27 0 1.3 1.93 0 1.46zm-2.75 -1.88l0 -0.73 1.04 0 0.49 0.73 -1.53 0zm1.16 -1.15l-1.37 0c-0.12,0 -0.21,0.1 -0.21,0.21l0 1.15c0,0.12 0.1,0.21 0.21,0.21l2.15 0c0.08,0 0.15,-0.04 0.19,-0.11 0.04,-0.07 0.03,-0.15 -0.01,-0.22l-0.77 -1.15c-0.04,-0.06 -0.11,-0.09 -0.18,-0.09zm-0.69 3.89c-0.36,0 -0.65,-0.29 -0.65,-0.65 0,-0.36 0.29,-0.65 0.65,-0.65 0.36,0 0.65,0.29 0.65,0.65 0,0.36 -0.29,0.65 -0.65,0.65zm-6.73 -1.3c0.36,0 0.65,0.29 0.65,0.65 0,0.36 -0.29,0.65 -0.65,0.65 -0.36,0 -0.65,-0.29 -0.65,-0.65 0,-0.36 0.29,-0.65 0.65,-0.65zm8.01 -3.29c-0.04,-0.06 -0.11,-0.09 -0.18,-0.09l-2.38 0 0 -1.19c0,-0.12 -0.1,-0.21 -0.21,-0.21l-6.93 0c-0.12,0 -0.21,0.1 -0.21,0.21l0 5.22c0,0.12 0.1,0.21 0.21,0.21l0.64 0c0.1,0.49 0.53,0.86 1.05,0.86 0.52,0 0.95,-0.37 1.05,-0.86l0.72 0c0.12,0 0.21,-0.1 0.21,-0.21 0,-0.12 -0.1,-0.21 -0.21,-0.21l-0.72 0c-0.1,-0.49 -0.53,-0.86 -1.05,-0.86 -0.52,0 -0.95,0.37 -1.05,0.86l-0.42 0 0 -4.8 6.5 0 0 4.8 -2.49 0c-0.12,0 -0.21,0.1 -0.21,0.21 0,0.12 0.1,0.21 0.21,0.21l3.15 0c0.1,0.49 0.53,0.86 1.05,0.86 0.52,0 0.95,-0.37 1.05,-0.86l1.44 0c0.12,0 0.21,-0.1 0.21,-0.21l0 -1.74c0,-0.04 -0.01,-0.08 -0.04,-0.12l-1.4 -2.08z"/>
  <path class="fil3" d="M7.94 7.01c0.13,-0.13 0.34,-0.13 0.47,-0 0.13,0.13 0.13,0.34 0,0.47l-1.91 1.93c-0.13,0.13 -0.34,0.13 -0.47,0.01l0 0 -0.88 -0.86c-0.13,-0.13 -0.14,-0.34 -0.01,-0.47 0.13,-0.13 0.34,-0.14 0.47,-0.01l0.64 0.62 1.67 -1.69z"/>
 </g>
</svg>
