<?xml version="1.0" encoding="UTF-8"?>
<!DOCTYPE svg PUBLIC "-//W3C//DTD SVG 1.1//EN" "http://www.w3.org/Graphics/SVG/1.1/DTD/svg11.dtd">
<!-- Creator: CorelDRAW 2021 (64-Bit) -->
<svg xmlns="http://www.w3.org/2000/svg" xml:space="preserve" width="4.3391mm" height="4.3391mm" version="1.1" style="shape-rendering:geometricPrecision; text-rendering:geometricPrecision; image-rendering:optimizeQuality; fill-rule:evenodd; clip-rule:evenodd"
viewBox="0 0 121.91 121.91"
 xmlns:xlink="http://www.w3.org/1999/xlink"
 xmlns:xodm="http://www.corel.com/coreldraw/odm/2003">
 <defs>
  <style type="text/css">
   <![CDATA[
    .str0 {stroke:#E31E24;stroke-width:2.97;stroke-miterlimit:22.9256}
    .fil1 {fill:none}
    .fil2 {fill:#FEFEFE}
    .fil0 {fill:#E31E24}
   ]]>
  </style>
 </defs>
 <g id="Katman_x0020_1">
  <metadata id="CorelCorpID_0Corel-Layer"/>
  <circle class="fil0" cx="60.96" cy="60.96" r="50.14"/>
  <circle class="fil1 str0" cx="60.96" cy="60.96" r="59.47"/>
  <path class="fil2" d="M53.27 26.43l15.37 0 0 47.2 -15.37 0 0 -47.2zm7.94 41.09c-0.22,0 -0.28,-0.37 -0.59,-0.37 -0.3,0 -0.33,0.52 -0.51,0.52l-0.83 0 -0.13 -0.17 0 -0.99 0.13 -0.17 0.83 0c0.18,0 0.21,0.52 0.51,0.52 0.31,0 0.37,-0.37 0.59,-0.37 0.23,0 0.35,0.22 0.36,0.52 0.01,0.29 -0.11,0.52 -0.36,0.52zm-1.8 3.14l3.1 0 0 1.96 -3.1 0 0 -1.96zm1.3 -30.48c0.22,0 0.28,-0.37 0.58,-0.37 0.3,0 0.33,0.51 0.51,0.51l0.83 0 0.13 -0.17 0 -0.99 -0.13 -0.17 -0.83 0c-0.18,0 -0.21,0.51 -0.51,0.51 -0.31,0 -0.37,-0.37 -0.58,-0.37 -0.23,0 -0.36,0.22 -0.36,0.51 -0.01,0.3 0.11,0.52 0.36,0.52zm0.51 -9.13c-0.22,0 -0.28,-0.37 -0.59,-0.37 -0.3,0 -0.33,0.52 -0.51,0.52l-0.83 0 -0.13 -0.17 0 -0.99 0.13 -0.17 0.83 0c0.18,0 0.21,0.52 0.51,0.52 0.31,0 0.37,-0.37 0.59,-0.37 0.23,0 0.35,0.22 0.36,0.51 0.01,0.3 -0.11,0.52 -0.36,0.52zm1.55 0.02l0 -0 -0.13 -0.17 -0.83 0c-0.18,0 -0.21,0.52 -0.51,0.52 -0.31,0 -0.37,-0.37 -0.58,-0.37 -0.19,0 -0.31,0.15 -0.35,0.37l-0 0.01 0 0.02 -0 0.01 0 0 -0 0.01 0 0.01 0 0.01 0 0 -0 0.01 0 0 0 0.01 0 0.01 0 0.01 0 0 -0 0.01 0 0 0 0.01 0 0.01 0 0.01 0 0.01 0 0.01 0 0.01 0 0.01 0 0 0 0.01 0 0 0 0.01 0 0 0 0.01 0 0 0 0.01 0 0 0 0.01 0 0 0 0.01 0 0 0 0.01 0 0 0 0.01 0 0.01 0 0.01 0 0 0 0.01 0 0 0 0.01 0 0 0 0.01 0 0 0 0.01 0 0.01 0 0c0.04,0.19 0.15,0.32 0.34,0.32 0.22,0 0.28,-0.37 0.58,-0.37 0.3,0 0.33,0.51 0.51,0.51l0.83 0 0.13 -0.17 0 0 0 -0.99zm-1.55 2.01c-0.22,0 -0.28,-0.37 -0.59,-0.37 -0.3,0 -0.33,0.52 -0.51,0.52l-0.83 0 -0.13 -0.17 0 -0.99 0.13 -0.17 0.83 0c0.18,0 0.21,0.51 0.51,0.51 0.31,0 0.37,-0.37 0.59,-0.37 0.23,0 0.35,0.22 0.36,0.51 0.01,0.3 -0.11,0.52 -0.36,0.52zm0 2.03c-0.22,0 -0.28,-0.37 -0.59,-0.37 -0.3,0 -0.33,0.51 -0.51,0.51l-0.83 0 -0.13 -0.17 0 -0.99 0.13 -0.17 0.83 0c0.18,0 0.21,0.52 0.51,0.52 0.31,0 0.37,-0.37 0.59,-0.37 0.23,0 0.35,0.22 0.36,0.51 0.01,0.3 -0.11,0.53 -0.36,0.53zm-0.51 -1c0.22,0 0.28,-0.37 0.58,-0.37 0.3,0 0.33,0.52 0.51,0.52l0.83 0 0.13 -0.17 0 -0.99 -0.13 -0.17 -0.83 0c-0.18,0 -0.21,0.52 -0.51,0.52 -0.31,0 -0.37,-0.37 -0.58,-0.37 -0.23,0 -0.36,0.22 -0.36,0.51 -0.01,0.3 0.11,0.52 0.36,0.52zm0.51 3.02c-0.22,0 -0.28,-0.37 -0.59,-0.37 -0.3,0 -0.33,0.52 -0.51,0.52l-0.83 0 -0.13 -0.17 0 -0.99 0.13 -0.17 0.83 0c0.18,0 0.21,0.51 0.51,0.51 0.31,0 0.37,-0.37 0.59,-0.37 0.23,0 0.35,0.22 0.36,0.51 0.01,0.3 -0.11,0.52 -0.36,0.52zm-0.51 -1c0.22,0 0.28,-0.36 0.58,-0.36 0.3,0 0.33,0.51 0.51,0.51l0.83 0 0.13 -0.17 0 -0.99 -0.13 -0.17 -0.83 0c-0.18,0 -0.21,0.51 -0.51,0.51 -0.31,0 -0.37,-0.37 -0.58,-0.37 -0.23,0 -0.36,0.22 -0.36,0.51 -0.01,0.3 0.11,0.52 0.36,0.52zm0.51 3.02c-0.22,0 -0.28,-0.36 -0.59,-0.36 -0.3,0 -0.33,0.51 -0.51,0.51l-0.83 0 -0.13 -0.17 0 -1 0.13 -0.17 0.83 0c0.18,0 0.21,0.51 0.51,0.51 0.31,0 0.37,-0.37 0.59,-0.37 0.23,0 0.35,0.22 0.36,0.51 0.01,0.3 -0.11,0.52 -0.36,0.52zm-0.51 -0.99c0.22,0 0.28,-0.37 0.58,-0.37 0.3,0 0.33,0.51 0.51,0.51l0.83 0 0.13 -0.17 0 -0.99 -0.13 -0.17 -0.83 0c-0.18,0 -0.21,0.52 -0.51,0.52 -0.31,0 -0.37,-0.37 -0.58,-0.37 -0.23,0 -0.36,0.22 -0.36,0.51 -0.01,0.3 0.11,0.52 0.36,0.52zm0.51 3.02c-0.22,0 -0.28,-0.37 -0.59,-0.37 -0.3,0 -0.33,0.52 -0.51,0.52l-0.83 0 -0.13 -0.17 0 -0.99 0.13 -0.17 0.83 0c0.18,0 0.21,0.52 0.51,0.52 0.31,0 0.37,-0.37 0.59,-0.37 0.23,0 0.35,0.22 0.36,0.51 0.01,0.3 -0.11,0.52 -0.36,0.52zm1.55 0.02l0 -0.01 -0.13 -0.17 -0.83 0c-0.18,0 -0.21,0.52 -0.51,0.52 -0.31,0 -0.37,-0.37 -0.58,-0.37 -0.19,0 -0.31,0.15 -0.35,0.37l-0 0.01 0 0.02 -0 0.01 0 0 -0 0.01 0 0.01 0 0.01 0 0 -0 0.01 0 0 0 0.01 0 0.01 0 0.01 0 0 -0 0.01 0 0 0 0.01 0 0.01 0 0.01 0 0.01 0 0.01 0 0.01 0 0.01 0 0 0 0.01 0 0 0 0.01 0 0 0 0.01 0 0 0 0.01 0 0 0 0.01 0 0 0 0.01 0 0 0 0.01 0 0 0 0.01 0 0.01 0 0.01 0 0 0 0.01 0 0 0 0.01 0 0 0 0.01 0 0 0 0.01 0 0.01 0 0c0.04,0.19 0.15,0.32 0.34,0.32 0.22,0 0.28,-0.37 0.58,-0.37 0.3,0 0.33,0.51 0.51,0.51l0.83 0 0.13 -0.17 0 -0 0 -0.99zm-1.55 2.01c-0.22,0 -0.28,-0.37 -0.59,-0.37 -0.3,0 -0.33,0.52 -0.51,0.52l-0.83 0 -0.13 -0.17 0 -0.99 0.13 -0.17 0.83 0c0.18,0 0.21,0.51 0.51,0.51 0.31,0 0.37,-0.37 0.59,-0.37 0.23,0 0.35,0.22 0.36,0.51 0.01,0.3 -0.11,0.52 -0.36,0.52zm0 2.03c-0.22,0 -0.28,-0.37 -0.59,-0.37 -0.3,0 -0.33,0.51 -0.51,0.51l-0.83 0 -0.13 -0.17 0 -0.99 0.13 -0.17 0.83 0c0.18,0 0.21,0.52 0.51,0.52 0.31,0 0.37,-0.37 0.59,-0.37 0.23,0 0.35,0.22 0.36,0.51 0.01,0.3 -0.11,0.53 -0.36,0.53zm-0.51 -1c0.22,0 0.28,-0.37 0.58,-0.37 0.3,0 0.33,0.51 0.51,0.51l0.83 0 0.13 -0.17 0 -0.99 -0.13 -0.17 -0.83 0c-0.18,0 -0.21,0.52 -0.51,0.52 -0.31,0 -0.37,-0.37 -0.58,-0.37 -0.23,0 -0.36,0.22 -0.36,0.51 -0.01,0.3 0.11,0.53 0.36,0.53zm0 2.02c0.22,0 0.28,-0.37 0.58,-0.37 0.3,0 0.33,0.51 0.51,0.51l0.83 0 0.13 -0.17 0 -0.99 -0.13 -0.17 -0.83 0c-0.18,0 -0.21,0.51 -0.51,0.51 -0.31,0 -0.37,-0.37 -0.58,-0.37 -0.23,0 -0.36,0.22 -0.36,0.51 -0.01,0.3 0.11,0.52 0.36,0.52zm0 10.13c0.22,0 0.28,-0.37 0.58,-0.37 0.3,0 0.33,0.51 0.51,0.51l0.83 0 0.13 -0.17 0 -0.99 -0.13 -0.17 -0.83 0c-0.18,0 -0.21,0.51 -0.51,0.51 -0.31,0 -0.37,-0.37 -0.58,-0.37 -0.23,0 -0.36,0.22 -0.36,0.51 -0.01,0.3 0.11,0.52 0.36,0.52zm0.51 -9.14c-0.22,0 -0.28,-0.37 -0.59,-0.37 -0.3,0 -0.33,0.52 -0.51,0.52l-0.83 0 -0.13 -0.17 0 -0.99 0.13 -0.17 0.83 0c0.18,0 0.21,0.52 0.51,0.52 0.31,0 0.37,-0.37 0.59,-0.37 0.23,0 0.35,0.22 0.36,0.52 0.01,0.3 -0.11,0.52 -0.36,0.52zm1.55 0.02l0 -0.01 -0.13 -0.17 -0.83 0c-0.18,0 -0.21,0.52 -0.51,0.52 -0.31,0 -0.37,-0.37 -0.58,-0.37 -0.19,0 -0.31,0.15 -0.35,0.37l-0 0.01 0 0.01 -0 0.01 0 0 -0 0.01 0 0.01 0 0.01 0 0 -0 0.01 0 0 0 0.01 0 0.01 0 0.01 0 0 -0 0.01 0 0 0 0.01 0 0.01 0 0.01 0 0.01 0 0.01 0 0.01 0 0.01 0 0 0 0.01 0 0 0 0.01 0 0 0 0.01 0 0 0 0.01 0 0 0 0.01 0 0 0 0.01 0 0 0 0.01 0 0 0 0.01 0 0 0 0.01 0 0 0 0.01 0 0 0 0.01 0 0 0 0.01 0 0 0 0.01 0 0.01 0 0c0.04,0.19 0.15,0.32 0.34,0.32 0.22,0 0.28,-0.37 0.58,-0.37 0.3,0 0.33,0.51 0.51,0.51l0.83 0 0.13 -0.17 0 -0 0 -0.99zm-1.55 2.01c-0.22,0 -0.28,-0.37 -0.59,-0.37 -0.3,0 -0.33,0.52 -0.51,0.52l-0.83 0 -0.13 -0.17 0 -0.99 0.13 -0.17 0.83 0c0.18,0 0.21,0.51 0.51,0.51 0.31,0 0.37,-0.37 0.59,-0.37 0.23,0 0.35,0.22 0.36,0.52 0.01,0.3 -0.11,0.52 -0.36,0.52zm0 2.03c-0.22,0 -0.28,-0.37 -0.59,-0.37 -0.3,0 -0.33,0.51 -0.51,0.51l-0.83 0 -0.13 -0.17 0 -0.99 0.13 -0.17 0.83 0c0.18,0 0.21,0.51 0.51,0.51 0.31,0 0.37,-0.37 0.59,-0.37 0.23,0 0.35,0.22 0.36,0.51 0.01,0.3 -0.11,0.53 -0.36,0.53zm-0.51 -1c0.22,0 0.28,-0.37 0.58,-0.37 0.3,0 0.33,0.51 0.51,0.51l0.83 0 0.13 -0.17 0 -0.99 -0.13 -0.17 -0.83 0c-0.18,0 -0.21,0.52 -0.51,0.52 -0.31,0 -0.37,-0.37 -0.58,-0.37 -0.23,0 -0.36,0.22 -0.36,0.51 -0.01,0.3 0.11,0.53 0.36,0.53zm0.51 3.02c-0.22,0 -0.28,-0.37 -0.59,-0.37 -0.3,0 -0.33,0.51 -0.51,0.51l-0.83 0 -0.13 -0.17 0 -0.99 0.13 -0.17 0.83 0c0.18,0 0.21,0.51 0.51,0.51 0.31,0 0.37,-0.37 0.59,-0.37 0.23,0 0.35,0.22 0.36,0.51 0.01,0.3 -0.11,0.53 -0.36,0.53zm-0.51 -1c0.22,0 0.28,-0.37 0.58,-0.37 0.3,0 0.33,0.51 0.51,0.51l0.83 0 0.13 -0.17 0 -0.99 -0.13 -0.17 -0.83 0c-0.18,0 -0.21,0.51 -0.51,0.51 -0.31,0 -0.37,-0.37 -0.58,-0.37 -0.23,0 -0.36,0.22 -0.36,0.51 -0.01,0.3 0.11,0.52 0.36,0.52zm0.51 3.02c-0.22,0 -0.28,-0.37 -0.59,-0.37 -0.3,0 -0.33,0.51 -0.51,0.51l-0.83 0 -0.13 -0.17 0 -0.99 0.13 -0.17 0.83 0c0.18,0 0.21,0.51 0.51,0.51 0.31,0 0.37,-0.37 0.59,-0.37 0.23,0 0.35,0.22 0.36,0.51 0.01,0.3 -0.11,0.52 -0.36,0.52zm-0.51 -1c0.22,0 0.28,-0.37 0.58,-0.37 0.3,0 0.33,0.52 0.51,0.52l0.83 0 0.13 -0.17 0 -0.99 -0.13 -0.17 -0.83 0c-0.18,0 -0.21,0.52 -0.51,0.52 -0.31,0 -0.37,-0.37 -0.58,-0.37 -0.23,0 -0.36,0.22 -0.36,0.51 -0.01,0.3 0.11,0.52 0.36,0.52zm0 12.16c0.22,0 0.28,-0.36 0.58,-0.36 0.3,0 0.33,0.51 0.51,0.51l0.83 0 0.13 -0.17 0 -0.99 -0.13 -0.17 -0.83 0c-0.18,0 -0.21,0.51 -0.51,0.51 -0.31,0 -0.37,-0.37 -0.58,-0.37 -0.23,0 -0.36,0.22 -0.36,0.51 -0.01,0.3 0.11,0.52 0.36,0.52zm0.51 -9.13c-0.22,0 -0.28,-0.37 -0.59,-0.37 -0.3,0 -0.33,0.52 -0.51,0.52l-0.83 0 -0.13 -0.17 0 -0.99 0.13 -0.17 0.83 0c0.18,0 0.21,0.52 0.51,0.52 0.31,0 0.37,-0.37 0.59,-0.37 0.23,0 0.35,0.22 0.36,0.51 0.01,0.3 -0.11,0.52 -0.36,0.52zm1.55 0.02l0 -0.01 -0.13 -0.17 -0.83 0c-0.18,0 -0.21,0.52 -0.51,0.52 -0.31,0 -0.37,-0.37 -0.58,-0.37 -0.19,0 -0.31,0.15 -0.35,0.37l-0 0.01 0 0.02 -0 0.01 0 0 -0 0.01 0 0 0 0.01 0 0 -0 0.01 0 0 0 0.01 0 0.01 0 0.01 0 0 -0 0.01 0 0 0 0.01 0 0.01 0 0.01 0 0.01 0 0.01 0 0.01 0 0.01 0 0 0 0.01 0 0 0 0.01 0 0 0 0.01 0 0 0 0.01 0 0 0 0.01 0 0 0 0.01 0 0.01 0 0.01 0 0 0 0.01 0 0 0 0.01 0 0 0 0.01 0 0 0 0.01 0 0 0 0.01 0 0 0 0.01 0 0.01 0 0c0.04,0.19 0.15,0.31 0.34,0.31 0.22,0 0.28,-0.36 0.58,-0.36 0.3,0 0.33,0.51 0.51,0.51l0.83 0 0.13 -0.17 0 -0 0 -0.99zm-3.61 -28.52l1.44 0 0 0.67 -1.44 0 0 -0.67zm2.17 0l1.44 0 0 0.67 -1.44 0 0 -0.67zm-1.81 39.14l0.95 0 0.11 0.1 0 0.49 0.27 0 0.1 0.1 0 1.47 -0.1 0.1 -1.33 0 -0.11 -0.1 0 -0.57 0 -0.9 0 -0.59 0.11 -0.1zm1.64 0.31l1.24 0 0.1 0.1 0 1.75 -0.1 0.1 -1.24 0 -0.11 -0.1 0 -1.75 0.11 -0.1zm0.06 -8.93c-0.22,0 -0.28,-0.36 -0.59,-0.36 -0.3,0 -0.33,0.52 -0.51,0.52l-0.83 0 -0.13 -0.17 0 -0.99 0.13 -0.17 0.83 0c0.18,0 0.21,0.51 0.51,0.51 0.31,0 0.37,-0.37 0.59,-0.37 0.23,0 0.35,0.22 0.36,0.52 0.01,0.29 -0.11,0.52 -0.36,0.52zm0 2.03c-0.22,0 -0.28,-0.37 -0.59,-0.37 -0.3,0 -0.33,0.51 -0.51,0.51l-0.83 0 -0.13 -0.17 0 -0.99 0.13 -0.17 0.83 0c0.18,0 0.21,0.51 0.51,0.51 0.31,0 0.37,-0.37 0.59,-0.37 0.23,0 0.35,0.22 0.36,0.51 0.01,0.3 -0.11,0.52 -0.36,0.52zm-0.51 -0.99c0.22,0 0.28,-0.37 0.58,-0.37 0.3,0 0.33,0.51 0.51,0.51l0.83 0 0.13 -0.17 0 -0.99 -0.13 -0.17 -0.83 0c-0.18,0 -0.21,0.52 -0.51,0.52 -0.31,0 -0.37,-0.37 -0.58,-0.37 -0.23,0 -0.36,0.22 -0.36,0.51 -0.01,0.3 0.11,0.53 0.36,0.53zm0.51 3.02c-0.22,0 -0.28,-0.37 -0.59,-0.37 -0.3,0 -0.33,0.51 -0.51,0.51l-0.83 0 -0.13 -0.17 0 -0.99 0.13 -0.17 0.83 0c0.18,0 0.21,0.51 0.51,0.51 0.31,0 0.37,-0.37 0.59,-0.37 0.23,0 0.35,0.22 0.36,0.51 0.01,0.3 -0.11,0.53 -0.36,0.53zm-0.51 -1c0.22,0 0.28,-0.37 0.58,-0.37 0.3,0 0.33,0.51 0.51,0.51l0.83 0 0.13 -0.17 0 -0.99 -0.13 -0.17 -0.83 0c-0.18,0 -0.21,0.51 -0.51,0.51 -0.31,0 -0.37,-0.37 -0.58,-0.37 -0.23,0 -0.36,0.22 -0.36,0.51 -0.01,0.3 0.11,0.52 0.36,0.52zm0.51 3.02c-0.22,0 -0.28,-0.37 -0.59,-0.37 -0.3,0 -0.33,0.51 -0.51,0.51l-0.83 0 -0.13 -0.17 0 -0.99 0.13 -0.17 0.83 0c0.18,0 0.21,0.51 0.51,0.51 0.31,0 0.37,-0.37 0.59,-0.37 0.23,0 0.35,0.22 0.36,0.51 0.01,0.3 -0.11,0.52 -0.36,0.52zm-0.51 -1c0.22,0 0.28,-0.37 0.58,-0.37 0.3,0 0.33,0.52 0.51,0.52l0.83 0 0.13 -0.17 0 -0.99 -0.13 -0.17 -0.83 0c-0.18,0 -0.21,0.52 -0.51,0.52 -0.31,0 -0.37,-0.37 -0.58,-0.37 -0.23,0 -0.36,0.22 -0.36,0.51 -0.01,0.3 0.11,0.52 0.36,0.52z"/>
  <path class="fil2" d="M36.35 79.41l41.17 0c4.42,0 8.04,3.62 8.04,8.04 0,4.42 -3.62,8.04 -8.04,8.04l-41.17 0 0 -4.01 41.06 0c2.21,0 4.02,-1.81 4.02,-4.02 0,-2.21 -1.81,-4.02 -4.02,-4.02l-41.06 0 0 -4.01zm41.02 6.09c1.08,0 1.95,0.87 1.95,1.95 0,1.08 -0.87,1.95 -1.95,1.95 -1.08,0 -1.95,-0.87 -1.95,-1.95 0,-1.08 0.87,-1.95 1.95,-1.95zm-7.75 0c1.08,0 1.95,0.87 1.95,1.95 0,1.08 -0.87,1.95 -1.95,1.95 -1.08,0 -1.95,-0.87 -1.95,-1.95 0,-1.08 0.87,-1.95 1.95,-1.95zm-7.75 0c1.08,0 1.95,0.87 1.95,1.95 0,1.08 -0.87,1.95 -1.95,1.95 -1.08,0 -1.95,-0.87 -1.95,-1.95 0,-1.08 0.87,-1.95 1.95,-1.95zm-7.75 0c1.08,0 1.95,0.87 1.95,1.95 0,1.08 -0.87,1.95 -1.95,1.95 -1.08,0 -1.95,-0.87 -1.95,-1.95 0,-1.08 0.87,-1.95 1.95,-1.95zm-7.75 0c1.08,0 1.95,0.87 1.95,1.95 0,1.08 -0.88,1.95 -1.95,1.95 -1.08,0 -1.95,-0.87 -1.95,-1.95 0,-1.08 0.87,-1.95 1.95,-1.95zm-7.75 0c1.08,0 1.95,0.87 1.95,1.95 0,1.08 -0.87,1.95 -1.95,1.95 -1.08,0 -1.95,-0.87 -1.95,-1.95 0,-1.08 0.87,-1.95 1.95,-1.95z"/>
 </g>
</svg>
