<?xml version="1.0" encoding="UTF-8"?>
<!DOCTYPE svg PUBLIC "-//W3C//DTD SVG 1.1//EN" "http://www.w3.org/Graphics/SVG/1.1/DTD/svg11.dtd">
<!-- Creator: CorelDRAW 2021 (64-Bit) -->
<svg xmlns="http://www.w3.org/2000/svg" xml:space="preserve" width="4.3391mm" height="4.3391mm" version="1.1" style="shape-rendering:geometricPrecision; text-rendering:geometricPrecision; image-rendering:optimizeQuality; fill-rule:evenodd; clip-rule:evenodd"
viewBox="0 0 39.01 39.01"
 xmlns:xlink="http://www.w3.org/1999/xlink"
 xmlns:xodm="http://www.corel.com/coreldraw/odm/2003">
 <defs>
  <style type="text/css">
   <![CDATA[
    .str0 {stroke:#E31E24;stroke-width:0.95;stroke-miterlimit:22.9256}
    .fil1 {fill:none}
    .fil2 {fill:#FEFEFE}
    .fil0 {fill:#E31E24}
   ]]>
  </style>
 </defs>
 <g id="Katman_x0020_1">
  <metadata id="CorelCorpID_0Corel-Layer"/>
  <circle class="fil0" cx="19.51" cy="19.51" r="16.04"/>
  <circle class="fil1 str0" cx="19.51" cy="19.51" r="19.03"/>
  <path class="fil2" d="M15.69 7.81l7.62 0 0 23.39 -7.62 0 0 -23.39zm3.94 20.37c-0.11,0 -0.14,-0.18 -0.29,-0.18 -0.15,0 -0.16,0.26 -0.25,0.26l-0.41 0 -0.07 -0.08 0 -0.49 0.07 -0.09 0.41 0c0.09,0 0.1,0.26 0.25,0.26 0.15,0 0.18,-0.18 0.29,-0.18 0.12,0 0.18,0.11 0.18,0.26 0,0.15 -0.05,0.26 -0.18,0.26zm-0.89 1.55l1.53 0 0 0.97 -1.53 0 0 -0.97zm0.64 -15.11c0.11,0 0.14,-0.18 0.29,-0.18 0.15,0 0.16,0.25 0.25,0.25l0.41 0 0.07 -0.08 0 -0.49 -0.07 -0.08 -0.41 0c-0.09,0 -0.1,0.25 -0.25,0.25 -0.15,0 -0.18,-0.18 -0.29,-0.18 -0.11,0 -0.18,0.11 -0.18,0.26 -0,0.15 0.05,0.26 0.18,0.26zm0.25 -4.53c-0.11,0 -0.14,-0.18 -0.29,-0.18 -0.15,0 -0.16,0.26 -0.25,0.26l-0.41 0 -0.07 -0.09 0 -0.49 0.07 -0.08 0.41 0c0.09,0 0.1,0.26 0.25,0.26 0.15,0 0.18,-0.18 0.29,-0.18 0.12,0 0.18,0.11 0.18,0.25 0,0.15 -0.05,0.26 -0.18,0.26zm0.77 0.01l0 -0 -0.07 -0.08 -0.41 0c-0.09,0 -0.1,0.26 -0.25,0.26 -0.15,0 -0.18,-0.18 -0.29,-0.18 -0.09,0 -0.15,0.08 -0.17,0.18l-0 0 0 0.01 -0 0.01 0 0 -0 0 0 0 0 0 0 0 -0 0.01 0 0 0 0 0 0 0 0 0 0 -0 0.01 0 0 0 0 0 0 0 0 0 0 0 0 0 0 0 0 0 0 0 0.01 0 0 0 0.01 0 0 0 0.01 0 0 0 0 0 0 0 0.01 0 0 0 0 0 0 0 0 0 0 0 0 0 0 0 0 0 0 0 0 0 0 0 0 0 0 0 0.01 0 0 0 0.01 0 0.01 0 0c0.02,0.09 0.08,0.16 0.17,0.16 0.11,0 0.14,-0.18 0.29,-0.18 0.15,0 0.16,0.26 0.25,0.26l0.41 0 0.07 -0.09 0 -0 0 -0.49zm-0.77 1c-0.11,0 -0.14,-0.18 -0.29,-0.18 -0.15,0 -0.16,0.26 -0.25,0.26l-0.41 0 -0.07 -0.09 0 -0.49 0.07 -0.08 0.41 0c0.09,0 0.1,0.26 0.25,0.26 0.15,0 0.18,-0.18 0.29,-0.18 0.12,0 0.18,0.11 0.18,0.26 0,0.15 -0.05,0.26 -0.18,0.26zm0 1.01c-0.11,0 -0.14,-0.18 -0.29,-0.18 -0.15,0 -0.16,0.26 -0.25,0.26l-0.41 0 -0.07 -0.08 0 -0.49 0.07 -0.08 0.41 0c0.09,0 0.1,0.26 0.25,0.26 0.15,0 0.18,-0.18 0.29,-0.18 0.12,0 0.18,0.11 0.18,0.25 0,0.15 -0.05,0.26 -0.18,0.26zm-0.25 -0.49c0.11,0 0.14,-0.18 0.29,-0.18 0.15,0 0.16,0.25 0.25,0.25l0.41 0 0.07 -0.08 0 -0.49 -0.07 -0.08 -0.41 0c-0.09,0 -0.1,0.26 -0.25,0.26 -0.15,0 -0.18,-0.18 -0.29,-0.18 -0.11,0 -0.18,0.11 -0.18,0.25 -0,0.15 0.05,0.26 0.18,0.26zm0.25 1.5c-0.11,0 -0.14,-0.18 -0.29,-0.18 -0.15,0 -0.16,0.26 -0.25,0.26l-0.41 0 -0.07 -0.08 0 -0.49 0.07 -0.08 0.41 0c0.09,0 0.1,0.25 0.25,0.25 0.15,0 0.18,-0.18 0.29,-0.18 0.12,0 0.18,0.11 0.18,0.25 0,0.15 -0.05,0.26 -0.18,0.26zm-0.25 -0.5c0.11,0 0.14,-0.18 0.29,-0.18 0.15,0 0.16,0.25 0.25,0.25l0.41 0 0.07 -0.08 0 -0.49 -0.07 -0.08 -0.41 0c-0.09,0 -0.1,0.25 -0.25,0.25 -0.15,0 -0.18,-0.18 -0.29,-0.18 -0.11,0 -0.18,0.11 -0.18,0.25 -0,0.15 0.05,0.26 0.18,0.26zm0.25 1.5c-0.11,0 -0.14,-0.18 -0.29,-0.18 -0.15,0 -0.16,0.25 -0.25,0.25l-0.41 0 -0.07 -0.08 0 -0.49 0.07 -0.08 0.41 0c0.09,0 0.1,0.26 0.25,0.26 0.15,0 0.18,-0.18 0.29,-0.18 0.12,0 0.18,0.11 0.18,0.25 0,0.15 -0.05,0.26 -0.18,0.26zm-0.25 -0.49c0.11,0 0.14,-0.18 0.29,-0.18 0.15,0 0.16,0.26 0.25,0.26l0.41 0 0.07 -0.08 0 -0.49 -0.07 -0.08 -0.41 0c-0.09,0 -0.1,0.26 -0.25,0.26 -0.15,0 -0.18,-0.18 -0.29,-0.18 -0.11,0 -0.18,0.11 -0.18,0.25 -0,0.15 0.05,0.26 0.18,0.26zm0.25 1.5c-0.11,0 -0.14,-0.18 -0.29,-0.18 -0.15,0 -0.16,0.26 -0.25,0.26l-0.41 0 -0.07 -0.09 0 -0.49 0.07 -0.09 0.41 0c0.09,0 0.1,0.26 0.25,0.26 0.15,0 0.18,-0.18 0.29,-0.18 0.12,0 0.18,0.11 0.18,0.26 0,0.15 -0.05,0.26 -0.18,0.26zm0.77 0.01l0 -0 -0.07 -0.08 -0.41 0c-0.09,0 -0.1,0.26 -0.25,0.26 -0.15,0 -0.18,-0.18 -0.29,-0.18 -0.09,0 -0.15,0.08 -0.17,0.18l-0 0.01 0 0.01 -0 0 0 0 -0 0 0 0 0 0 0 0 -0 0.01 0 0 0 0 0 0 0 0 0 0 -0 0.01 0 0 0 0 0 0 0 0 0 0 0 0.01 0 0 0 0 0 0 0 0.01 0 0 0 0.01 0 0 0 0.01 0 0 0 0 0 0 0 0.01 0 0 0 0 0 0 0 0 0 0 0 0 0 0 0 0 0 0 0 0.01 0 0 0 0 0 0 0 0.01 0 0 0 0.01 0 0 0 0c0.02,0.09 0.08,0.16 0.17,0.16 0.11,0 0.14,-0.18 0.29,-0.18 0.15,0 0.16,0.26 0.25,0.26l0.41 0 0.07 -0.08 0 -0 0 -0.49zm-0.77 0.99c-0.11,0 -0.14,-0.18 -0.29,-0.18 -0.15,0 -0.16,0.26 -0.25,0.26l-0.41 0 -0.07 -0.09 0 -0.49 0.07 -0.08 0.41 0c0.09,0 0.1,0.26 0.25,0.26 0.15,0 0.18,-0.18 0.29,-0.18 0.12,0 0.18,0.11 0.18,0.26 0,0.15 -0.05,0.26 -0.18,0.26zm0 1.01c-0.11,0 -0.14,-0.18 -0.29,-0.18 -0.15,0 -0.16,0.26 -0.25,0.26l-0.41 0 -0.07 -0.08 0 -0.49 0.07 -0.08 0.41 0c0.09,0 0.1,0.26 0.25,0.26 0.15,0 0.18,-0.18 0.29,-0.18 0.12,0 0.18,0.11 0.18,0.25 0,0.15 -0.05,0.26 -0.18,0.26zm-0.25 -0.49c0.11,0 0.14,-0.18 0.29,-0.18 0.15,0 0.16,0.26 0.25,0.26l0.41 0 0.07 -0.08 0 -0.49 -0.07 -0.08 -0.41 0c-0.09,0 -0.1,0.26 -0.25,0.26 -0.15,0 -0.18,-0.18 -0.29,-0.18 -0.11,0 -0.18,0.11 -0.18,0.25 -0,0.15 0.05,0.26 0.18,0.26zm0 1c0.11,0 0.14,-0.18 0.29,-0.18 0.15,0 0.16,0.25 0.25,0.25l0.41 0 0.07 -0.08 0 -0.49 -0.07 -0.08 -0.41 0c-0.09,0 -0.1,0.26 -0.25,0.26 -0.15,0 -0.18,-0.18 -0.29,-0.18 -0.11,0 -0.18,0.11 -0.18,0.25 -0,0.15 0.05,0.26 0.18,0.26zm0 5.02c0.11,0 0.14,-0.18 0.29,-0.18 0.15,0 0.16,0.25 0.25,0.25l0.41 0 0.07 -0.08 0 -0.49 -0.07 -0.08 -0.41 0c-0.09,0 -0.1,0.25 -0.25,0.25 -0.15,0 -0.18,-0.18 -0.29,-0.18 -0.11,0 -0.18,0.11 -0.18,0.26 -0,0.15 0.05,0.26 0.18,0.26zm0.25 -4.53c-0.11,0 -0.14,-0.18 -0.29,-0.18 -0.15,0 -0.16,0.26 -0.25,0.26l-0.41 0 -0.07 -0.09 0 -0.49 0.07 -0.08 0.41 0c0.09,0 0.1,0.26 0.25,0.26 0.15,0 0.18,-0.18 0.29,-0.18 0.12,0 0.18,0.11 0.18,0.26 0,0.15 -0.05,0.26 -0.18,0.26zm0.77 0.01l0 -0 -0.07 -0.08 -0.41 0c-0.09,0 -0.1,0.26 -0.25,0.26 -0.15,0 -0.18,-0.18 -0.29,-0.18 -0.09,0 -0.15,0.07 -0.17,0.18l-0 0 0 0.01 -0 0 0 0 -0 0 0 0 0 0 0 0 -0 0.01 0 0 0 0 0 0 0 0 0 0 -0 0.01 0 0 0 0 0 0 0 0 0 0 0 0 0 0 0 0.01 0 0 0 0.01 0 0 0 0.01 0 0 0 0.01 0 0 0 0 0 0 0 0.01 0 0 0 0 0 0 0 0 0 0 0 0.01 0 0 0 0 0 0 0 0 0 0 0 0 0 0 0 0.01 0 0 0 0.01 0 0 0 0c0.02,0.09 0.08,0.16 0.17,0.16 0.11,0 0.14,-0.18 0.29,-0.18 0.15,0 0.16,0.26 0.25,0.26l0.41 0 0.07 -0.08 0 -0 0 -0.49zm-0.77 1c-0.11,0 -0.14,-0.18 -0.29,-0.18 -0.15,0 -0.16,0.26 -0.25,0.26l-0.41 0 -0.07 -0.09 0 -0.49 0.07 -0.08 0.41 0c0.09,0 0.1,0.26 0.25,0.26 0.15,0 0.18,-0.18 0.29,-0.18 0.12,0 0.18,0.11 0.18,0.26 0,0.15 -0.05,0.26 -0.18,0.26zm0 1.01c-0.11,0 -0.14,-0.18 -0.29,-0.18 -0.15,0 -0.16,0.25 -0.25,0.25l-0.41 0 -0.07 -0.08 0 -0.49 0.07 -0.08 0.41 0c0.09,0 0.1,0.26 0.25,0.26 0.15,0 0.18,-0.18 0.29,-0.18 0.12,0 0.18,0.11 0.18,0.25 0,0.15 -0.05,0.26 -0.18,0.26zm-0.25 -0.49c0.11,0 0.14,-0.18 0.29,-0.18 0.15,0 0.16,0.26 0.25,0.26l0.41 0 0.07 -0.08 0 -0.49 -0.07 -0.09 -0.41 0c-0.09,0 -0.1,0.26 -0.25,0.26 -0.15,0 -0.18,-0.18 -0.29,-0.18 -0.11,0 -0.18,0.11 -0.18,0.25 -0,0.15 0.05,0.26 0.18,0.26zm0.25 1.5c-0.11,0 -0.14,-0.18 -0.29,-0.18 -0.15,0 -0.16,0.26 -0.25,0.26l-0.41 0 -0.07 -0.08 0 -0.49 0.07 -0.08 0.41 0c0.09,0 0.1,0.25 0.25,0.25 0.15,0 0.18,-0.18 0.29,-0.18 0.12,0 0.18,0.11 0.18,0.25 0,0.15 -0.05,0.26 -0.18,0.26zm-0.25 -0.5c0.11,0 0.14,-0.18 0.29,-0.18 0.15,0 0.16,0.25 0.25,0.25l0.41 0 0.07 -0.08 0 -0.49 -0.07 -0.08 -0.41 0c-0.09,0 -0.1,0.26 -0.25,0.26 -0.15,0 -0.18,-0.18 -0.29,-0.18 -0.11,0 -0.18,0.11 -0.18,0.25 -0,0.15 0.05,0.26 0.18,0.26zm0.25 1.5c-0.11,0 -0.14,-0.18 -0.29,-0.18 -0.15,0 -0.16,0.25 -0.25,0.25l-0.41 0 -0.07 -0.08 0 -0.49 0.07 -0.08 0.41 0c0.09,0 0.1,0.26 0.25,0.26 0.15,0 0.18,-0.18 0.29,-0.18 0.12,0 0.18,0.11 0.18,0.25 0,0.15 -0.05,0.26 -0.18,0.26zm-0.25 -0.49c0.11,0 0.14,-0.18 0.29,-0.18 0.15,0 0.16,0.26 0.25,0.26l0.41 0 0.07 -0.08 0 -0.49 -0.07 -0.08 -0.41 0c-0.09,0 -0.1,0.26 -0.25,0.26 -0.15,0 -0.18,-0.18 -0.29,-0.18 -0.11,0 -0.18,0.11 -0.18,0.25 -0,0.15 0.05,0.26 0.18,0.26zm0 6.03c0.11,0 0.14,-0.18 0.29,-0.18 0.15,0 0.16,0.25 0.25,0.25l0.41 0 0.07 -0.08 0 -0.49 -0.07 -0.08 -0.41 0c-0.09,0 -0.1,0.25 -0.25,0.25 -0.15,0 -0.18,-0.18 -0.29,-0.18 -0.11,0 -0.18,0.11 -0.18,0.26 -0,0.15 0.05,0.26 0.18,0.26zm0.25 -4.53c-0.11,0 -0.14,-0.18 -0.29,-0.18 -0.15,0 -0.16,0.26 -0.25,0.26l-0.41 0 -0.07 -0.09 0 -0.49 0.07 -0.08 0.41 0c0.09,0 0.1,0.26 0.25,0.26 0.15,0 0.18,-0.18 0.29,-0.18 0.12,0 0.18,0.11 0.18,0.26 0,0.15 -0.05,0.26 -0.18,0.26zm0.77 0.01l0 -0 -0.07 -0.08 -0.41 0c-0.09,0 -0.1,0.26 -0.25,0.26 -0.15,0 -0.18,-0.18 -0.29,-0.18 -0.09,0 -0.15,0.08 -0.17,0.18l-0 0 0 0.01 -0 0 0 0 -0 0.01 0 0 0 0 0 0 -0 0.01 0 0 0 0.01 0 0 0 0 0 0 -0 0.01 0 0 0 0 0 0 0 0 0 0 0 0 0 0 0 0 0 0 0 0.01 0 0 0 0.01 0 0 0 0.01 0 0 0 0 0 0 0 0.01 0 0 0 0.01 0 0 0 0 0 0 0 0 0 0 0 0.01 0 0 0 0 0 0 0 0 0 0 0 0.01 0 0 0 0.01 0 0 0 0c0.02,0.09 0.08,0.16 0.17,0.16 0.11,0 0.14,-0.18 0.29,-0.18 0.15,0 0.16,0.26 0.25,0.26l0.41 0 0.07 -0.08 0 -0 0 -0.49zm-1.79 -14.13l0.71 0 0 0.33 -0.71 0 0 -0.33zm1.08 0l0.71 0 0 0.33 -0.71 0 0 -0.33zm-0.9 19.4l0.47 0 0.05 0.05 0 0.24 0.13 0 0.05 0.05 0 0.73 -0.05 0.05 -0.66 0 -0.05 -0.05 0 -0.28 0 -0.45 0 -0.29 0.05 -0.05zm0.81 0.15l0.62 0 0.05 0.05 0 0.87 -0.05 0.05 -0.62 0 -0.05 -0.05 0 -0.87 0.05 -0.05zm0.03 -4.42c-0.11,0 -0.14,-0.18 -0.29,-0.18 -0.15,0 -0.16,0.26 -0.25,0.26l-0.41 0 -0.07 -0.09 0 -0.49 0.07 -0.08 0.41 0c0.09,0 0.1,0.26 0.25,0.26 0.15,0 0.18,-0.18 0.29,-0.18 0.12,0 0.18,0.11 0.18,0.25 0,0.15 -0.05,0.26 -0.18,0.26zm0 1.01c-0.11,0 -0.14,-0.18 -0.29,-0.18 -0.15,0 -0.16,0.25 -0.25,0.25l-0.41 0 -0.07 -0.08 0 -0.49 0.07 -0.08 0.41 0c0.09,0 0.1,0.26 0.25,0.26 0.15,0 0.18,-0.18 0.29,-0.18 0.12,0 0.18,0.11 0.18,0.25 0,0.15 -0.05,0.26 -0.18,0.26zm-0.25 -0.49c0.11,0 0.14,-0.18 0.29,-0.18 0.15,0 0.16,0.26 0.25,0.26l0.41 0 0.07 -0.08 0 -0.49 -0.07 -0.08 -0.41 0c-0.09,0 -0.1,0.26 -0.25,0.26 -0.15,0 -0.18,-0.18 -0.29,-0.18 -0.11,0 -0.18,0.11 -0.18,0.25 -0,0.15 0.05,0.26 0.18,0.26zm0.25 1.5c-0.11,0 -0.14,-0.18 -0.29,-0.18 -0.15,0 -0.16,0.26 -0.25,0.26l-0.41 0 -0.07 -0.08 0 -0.49 0.07 -0.08 0.41 0c0.09,0 0.1,0.25 0.25,0.25 0.15,0 0.18,-0.18 0.29,-0.18 0.12,0 0.18,0.11 0.18,0.25 0,0.15 -0.05,0.26 -0.18,0.26zm-0.25 -0.49c0.11,0 0.14,-0.18 0.29,-0.18 0.15,0 0.16,0.25 0.25,0.25l0.41 0 0.07 -0.08 0 -0.49 -0.07 -0.08 -0.41 0c-0.09,0 -0.1,0.26 -0.25,0.26 -0.15,0 -0.18,-0.18 -0.29,-0.18 -0.11,0 -0.18,0.11 -0.18,0.25 -0,0.15 0.05,0.26 0.18,0.26zm0.25 1.5c-0.11,0 -0.14,-0.18 -0.29,-0.18 -0.15,0 -0.16,0.25 -0.25,0.25l-0.41 0 -0.07 -0.08 0 -0.49 0.07 -0.08 0.41 0c0.09,0 0.1,0.25 0.25,0.25 0.15,0 0.18,-0.18 0.29,-0.18 0.12,0 0.18,0.11 0.18,0.25 0,0.15 -0.05,0.26 -0.18,0.26zm-0.25 -0.49c0.11,0 0.14,-0.18 0.29,-0.18 0.15,0 0.16,0.26 0.25,0.26l0.41 0 0.07 -0.08 0 -0.49 -0.07 -0.08 -0.41 0c-0.09,0 -0.1,0.26 -0.25,0.26 -0.15,0 -0.18,-0.18 -0.29,-0.18 -0.11,0 -0.18,0.11 -0.18,0.25 -0,0.15 0.05,0.26 0.18,0.26z"/>
 </g>
</svg>
