<?xml version="1.0" encoding="UTF-8"?>
<!DOCTYPE svg PUBLIC "-//W3C//DTD SVG 1.1//EN" "http://www.w3.org/Graphics/SVG/1.1/DTD/svg11.dtd">
<!-- Creator: CorelDRAW 2021 (64-Bit) -->
<svg xmlns="http://www.w3.org/2000/svg" xml:space="preserve" width="4.3391mm" height="4.3391mm" version="1.1" style="shape-rendering:geometricPrecision; text-rendering:geometricPrecision; image-rendering:optimizeQuality; fill-rule:evenodd; clip-rule:evenodd"
viewBox="0 0 26.15 26.15"
 xmlns:xlink="http://www.w3.org/1999/xlink"
 xmlns:xodm="http://www.corel.com/coreldraw/odm/2003">
 <defs>
  <style type="text/css">
   <![CDATA[
    .str0 {stroke:#E31E24;stroke-width:0.64;stroke-miterlimit:22.9256}
    .fil1 {fill:none}
    .fil0 {fill:#E31E24}
    .fil2 {fill:#FEFEFE;fill-rule:nonzero}
   ]]>
  </style>
 </defs>
 <g id="Katman_x0020_1">
  <metadata id="CorelCorpID_0Corel-Layer"/>
  <circle class="fil0" cx="13.08" cy="13.08" r="10.76"/>
  <circle class="fil1 str0" cx="13.08" cy="13.08" r="12.76"/>
  <path class="fil2" d="M10.73 7.18l-1.59 0c-0.17,0 -0.34,0.07 -0.47,0.19 -0.12,0.12 -0.19,0.29 -0.19,0.47l0 11.08c0,0.17 0.07,0.34 0.19,0.47 0.12,0.12 0.29,0.19 0.47,0.19l7.87 0c0.17,0 0.34,-0.07 0.47,-0.19 0.12,-0.12 0.19,-0.29 0.19,-0.47l0 -11.08c0,-0.17 -0.07,-0.34 -0.19,-0.47 -0.12,-0.12 -0.29,-0.19 -0.47,-0.19l-1.5 0 0 -0.41c0,-0.05 -0.02,-0.11 -0.06,-0.14 -0.04,-0.04 -0.09,-0.06 -0.14,-0.06l-4.37 0c-0.05,0 -0.11,0.02 -0.14,0.06 -0.04,0.04 -0.06,0.09 -0.06,0.14l0 0.41zm-0.93 9.45l6.55 0 0 -0.7 -6.55 0 0 0.7zm0 -1.59l6.55 0 0 -0.7 -6.55 0 0 0.7zm0 -1.59l6.55 0 0 -0.7 -6.55 0 0 0.7zm0 -1.59l6.55 0 0 -0.7 -6.55 0 0 0.7zm0 -1.59l6.55 0 0 -0.7 -6.55 0 0 0.7zm5.71 -2.2l1.5 0 0 10.51 -7.87 0 0 -10.51 1.59 0 0 0.63c0,0.05 0.02,0.11 0.06,0.14 0.04,0.04 0.09,0.06 0.14,0.06l4.37 0c0.05,0 0.11,-0.02 0.14,-0.06 0.04,-0.04 0.06,-0.09 0.06,-0.14l0 -0.63zm-0.41 -0.88l0 0 -3.97 0 0 -0.2 3.97 0 0 0.2zm0 0.88l0 0.43 -3.97 0 0 -0.43 3.97 0z"/>
 </g>
</svg>
