<?xml version="1.0" encoding="UTF-8"?>
<!DOCTYPE svg PUBLIC "-//W3C//DTD SVG 1.1//EN" "http://www.w3.org/Graphics/SVG/1.1/DTD/svg11.dtd">
<!-- Creator: CorelDRAW 2021 (64-Bit) -->
<svg xmlns="http://www.w3.org/2000/svg" xml:space="preserve" width="4.3391mm" height="4.3391mm" version="1.1" style="shape-rendering:geometricPrecision; text-rendering:geometricPrecision; image-rendering:optimizeQuality; fill-rule:evenodd; clip-rule:evenodd"
viewBox="0 0 31.67 31.67"
 xmlns:xlink="http://www.w3.org/1999/xlink"
 xmlns:xodm="http://www.corel.com/coreldraw/odm/2003">
 <defs>
  <style type="text/css">
   <![CDATA[
    .str0 {stroke:#E31E24;stroke-width:0.77;stroke-miterlimit:22.9256}
    .fil1 {fill:none}
    .fil0 {fill:#E31E24}
    .fil2 {fill:#FEFEFE;fill-rule:nonzero}
   ]]>
  </style>
 </defs>
 <g id="Katman_x0020_1">
  <metadata id="CorelCorpID_0Corel-Layer"/>
  <circle class="fil0" cx="15.84" cy="15.84" r="13.03"/>
  <circle class="fil1 str0" cx="15.84" cy="15.84" r="15.45"/>
  <path class="fil2" d="M13.12 12.69l-0.37 2.15c-0.01,0.03 -0.01,0.07 -0.01,0.1 0,0.17 0.08,0.34 0.22,0.44 0.09,0.07 0.21,0.11 0.33,0.11 0.09,0 0.17,-0.02 0.25,-0.06l2 -1 1.9 0.99c0.08,0.04 0.17,0.07 0.26,0.07 0.3,0 0.55,-0.25 0.55,-0.55 0,-0.03 -0,-0.06 -0.01,-0.09l-0.37 -2.15 1.56 -1.52c0.11,-0.1 0.17,-0.24 0.17,-0.39 0,-0.27 -0.2,-0.5 -0.47,-0.54l-2.17 -0.32 -0.97 -1.96c-0.09,-0.18 -0.28,-0.3 -0.49,-0.3 -0,0 -0,0 -0.01,0l0 0c-0,0 -0,0 -0,0 -0.21,0 -0.4,0.12 -0.49,0.3l0 0 -0.97 1.96 -2.17 0.31c-0.27,0.04 -0.47,0.27 -0.47,0.54 0,0.15 0.06,0.29 0.17,0.4l1.57 1.52zm10.79 3.9c-0.2,-0.24 -0.49,-0.38 -0.8,-0.4 -0.03,-0 -0.05,-0 -0.08,-0 -0.28,0 -0.56,0.11 -0.77,0.29l-2.78 2.49c-0.01,-0.05 -0.02,-0.11 -0.03,-0.16 -0.09,-0.35 -0.34,-0.64 -0.67,-0.8 -0.51,-0.22 -1.23,-0.12 -1.92,-0.02 -0.3,0.06 -0.6,0.09 -0.9,0.09 -0.11,0 -0.22,-0 -0.33,-0.01 -0.18,-0.05 -0.36,-0.11 -0.53,-0.2 -0.53,-0.23 -1.25,-0.55 -2.58,-0.26 -0.69,0.18 -1.33,0.53 -1.85,1.02l-0 -0.73c0,-0.17 -0.13,-0.3 -0.3,-0.3l-2.61 0c-0.17,0 -0.3,0.13 -0.3,0.3l0 5.81c0,0.17 0.13,0.3 0.3,0.3l2.61 0c0.17,0 0.3,-0.13 0.3,-0.3l0 -0.42c0.4,0.09 2.22,0.52 3.57,0.52 1.4,0 3.12,-0.32 4.18,-0.78 1.95,-0.84 5.15,-4.49 5.41,-4.78 0.24,-0.22 0.38,-0.54 0.38,-0.87 0,-0.29 -0.11,-0.57 -0.3,-0.79l0 0zm-13.83 6.81l-2 0 0 -5.21 2 0 0 5.21zm13.34 -5.59l-0.03 0.03c-0.03,0.04 -3.35,3.83 -5.21,4.64 -0.98,0.43 -2.6,0.73 -3.93,0.73 -1.4,0 -3.47,-0.51 -3.49,-0.52 -0.01,-0 -0.02,-0 -0.04,-0 -0.01,0 -0.02,0 -0.04,0l0 -3.21c0.22,-0.25 0.99,-1.06 1.98,-1.28 1.15,-0.25 1.71,0 2.2,0.22 0.21,0.1 0.44,0.18 0.67,0.23 0.15,0.01 0.31,0.02 0.46,0.02 0.32,0 0.64,-0.03 0.96,-0.09 0.58,-0.08 1.24,-0.17 1.6,-0.02 0.16,0.09 0.27,0.24 0.31,0.41 0.01,0.06 0.02,0.12 0.02,0.18 0,0.18 -0.07,0.36 -0.18,0.5 -0.46,0.61 -3.24,1.53 -4.38,1.44 -0.01,0 -0.02,-0 -0.02,-0 -0.17,0 -0.3,0.14 -0.3,0.3 0,0.16 0.12,0.29 0.28,0.3 0.06,0 0.13,0 0.2,0 1.24,0 3.62,-0.73 4.49,-1.47l0.02 -0.01 3.66 -3.29c0.1,-0.09 0.23,-0.14 0.37,-0.14 0.01,0 0.02,0 0.03,0 0.16,0.01 0.3,0.08 0.4,0.2 0.1,0.11 0.15,0.25 0.15,0.39 0,0.16 -0.07,0.32 -0.19,0.43l0 0zm-9.15 -7.31c0.1,-0.02 0.18,-0.08 0.22,-0.16l1 -2 1 2c0.04,0.09 0.13,0.15 0.23,0.16l2.22 0.32 -1.6 1.55c-0.06,0.06 -0.09,0.14 -0.09,0.22 0,0.02 0,0.03 0,0.05l0.38 2.19 -1.94 -1.01c-0.04,-0.02 -0.09,-0.03 -0.14,-0.03 -0.05,0 -0.09,0.01 -0.14,0.03l-2.04 1.03 0.38 -2.21c0,-0.01 0,-0.03 0,-0.04 0,-0.08 -0.04,-0.16 -0.1,-0.22l-1.6 -1.55 2.22 -0.33z"/>
 </g>
</svg>
