<?xml version="1.0" encoding="UTF-8"?>
<!DOCTYPE svg PUBLIC "-//W3C//DTD SVG 1.1//EN" "http://www.w3.org/Graphics/SVG/1.1/DTD/svg11.dtd">
<!-- Creator: CorelDRAW 2021 (64-Bit) -->
<svg xmlns="http://www.w3.org/2000/svg" xml:space="preserve" width="4.3391mm" height="4.3391mm" version="1.1" style="shape-rendering:geometricPrecision; text-rendering:geometricPrecision; image-rendering:optimizeQuality; fill-rule:evenodd; clip-rule:evenodd"
viewBox="0 0 22.64 22.64"
 xmlns:xlink="http://www.w3.org/1999/xlink"
 xmlns:xodm="http://www.corel.com/coreldraw/odm/2003">
 <defs>
  <style type="text/css">
   <![CDATA[
    .str0 {stroke:#E31E24;stroke-width:0.55;stroke-miterlimit:22.9256}
    .fil1 {fill:none}
    .fil0 {fill:#E31E24}
    .fil2 {fill:#FEFEFE;fill-rule:nonzero}
   ]]>
  </style>
 </defs>
 <g id="Katman_x0020_1">
  <metadata id="CorelCorpID_0Corel-Layer"/>
  <circle class="fil0" cx="11.32" cy="11.32" r="9.31"/>
  <circle class="fil1 str0" cx="11.32" cy="11.32" r="11.05"/>
  <path class="fil2" d="M18.07 13.85l-1.58 0c-0.13,-0.63 -0.69,-1.11 -1.35,-1.11 -0.67,0 -1.23,0.48 -1.35,1.11l-0.3 0 0 -4.36 2.91 0 1.67 2.49 0 1.88zm-12.53 -2.03l4.72 0c0.15,0 0.27,-0.12 0.27,-0.27 0,-0.15 -0.12,-0.27 -0.27,-0.27l-4.72 0c-0.15,0 -0.27,0.12 -0.27,0.27 0,0.15 0.12,0.27 0.27,0.27zm6.45 -0.55l-0.8 0c-0.15,0 -0.27,0.12 -0.27,0.27 0,0.15 0.12,0.27 0.27,0.27l0.8 0c0.15,0 0.27,-0.12 0.27,-0.27 0,-0.15 -0.12,-0.27 -0.27,-0.27zm0 -1.56l-4.72 0c-0.15,0 -0.27,0.12 -0.27,0.27 0,0.15 0.12,0.27 0.27,0.27l4.72 0c0.15,0 0.27,-0.12 0.27,-0.27 0,-0.15 -0.12,-0.27 -0.27,-0.27zm-6.45 0.55l0.8 0c0.15,0 0.27,-0.12 0.27,-0.27 0,-0.15 -0.12,-0.27 -0.27,-0.27l-0.8 0c-0.15,0 -0.27,0.12 -0.27,0.27 0,0.15 0.12,0.27 0.27,0.27zm9 1.17l0 -0.93 1.34 0 0.63 0.93 -1.97 0zm1.49 -1.48l-1.76 0c-0.15,0 -0.27,0.12 -0.27,0.27l0 1.48c0,0.15 0.12,0.27 0.27,0.27l2.76 0c0.1,0 0.19,-0.06 0.24,-0.15 0.05,-0.09 0.04,-0.2 -0.01,-0.28l-1 -1.48c-0.05,-0.08 -0.14,-0.12 -0.23,-0.12zm-0.89 5c-0.46,0 -0.83,-0.37 -0.83,-0.83 0,-0.46 0.37,-0.83 0.83,-0.83 0.46,0 0.83,0.37 0.83,0.83 0,0.46 -0.37,0.83 -0.83,0.83zm-8.65 -1.67c0.46,0 0.83,0.37 0.83,0.83 0,0.46 -0.37,0.83 -0.83,0.83 -0.46,0 -0.83,-0.37 -0.83,-0.83 0,-0.46 0.37,-0.83 0.83,-0.83zm10.29 -4.23c-0.05,-0.08 -0.14,-0.12 -0.23,-0.12l-3.06 0 0 -1.52c0,-0.15 -0.12,-0.27 -0.27,-0.27l-8.9 0c-0.15,0 -0.27,0.12 -0.27,0.27l0 6.71c0,0.15 0.12,0.27 0.27,0.27l0.82 0c0.13,0.63 0.69,1.11 1.35,1.11 0.67,0 1.23,-0.48 1.35,-1.11l0.92 0c0.15,0 0.27,-0.12 0.27,-0.27 0,-0.15 -0.12,-0.27 -0.27,-0.27l-0.92 0c-0.13,-0.63 -0.69,-1.11 -1.35,-1.11 -0.67,0 -1.23,0.48 -1.35,1.11l-0.55 0 0 -6.16 8.36 0 0 6.16 -3.2 0c-0.15,0 -0.27,0.12 -0.27,0.27 0,0.15 0.12,0.27 0.27,0.27l4.05 0c0.13,0.63 0.69,1.11 1.35,1.11 0.67,0 1.23,-0.48 1.35,-1.11l1.85 0c0.15,0 0.27,-0.12 0.27,-0.27l0 -2.24c0,-0.05 -0.02,-0.11 -0.05,-0.15l-1.8 -2.67z"/>
 </g>
</svg>
