<?xml version="1.0" encoding="UTF-8"?>
<!DOCTYPE svg PUBLIC "-//W3C//DTD SVG 1.1//EN" "http://www.w3.org/Graphics/SVG/1.1/DTD/svg11.dtd">
<!-- Creator: CorelDRAW 2021 (64-Bit) -->
<svg xmlns="http://www.w3.org/2000/svg" xml:space="preserve" width="2.3613mm" height="3.1379mm" version="1.1" style="shape-rendering:geometricPrecision; text-rendering:geometricPrecision; image-rendering:optimizeQuality; fill-rule:evenodd; clip-rule:evenodd"
viewBox="0 0 3.74 4.97"
 xmlns:xlink="http://www.w3.org/1999/xlink"
 xmlns:xodm="http://www.corel.com/coreldraw/odm/2003">
 <defs>
  <style type="text/css">
   <![CDATA[
    .fil1 {fill:#FEFEFE}
    .fil0 {fill:#E4272C}
   ]]>
  </style>
 </defs>
 <g id="Katman_x0020_1">
  <metadata id="CorelCorpID_0Corel-Layer"/>
  <circle class="fil0" cx="1.87" cy="1.87" r="1.87"/>
  <path id="one-finger-double-tap" class="fil1" d="M2.54 2.22c0.06,-0.11 0.09,-0.23 0.09,-0.36 0,-0.42 -0.34,-0.76 -0.76,-0.76 -0.42,0 -0.76,0.34 -0.76,0.76 0,0.3 0.17,0.55 0.41,0.68l0 -0.16c-0.17,-0.11 -0.28,-0.3 -0.28,-0.52 0,-0.34 0.28,-0.62 0.62,-0.62 0.34,0 0.62,0.28 0.62,0.62 0,0.13 -0.04,0.25 -0.11,0.35 0.01,-0 0.02,-0 0.04,-0 0.04,0 0.08,0.01 0.11,0.02l0 0 0 0zm-0.32 -0.03c0.09,-0.09 0.14,-0.21 0.14,-0.34 0,-0.27 -0.22,-0.48 -0.48,-0.48 -0.27,0 -0.48,0.22 -0.48,0.48 0,0.13 0.05,0.25 0.14,0.34l0 -0.34c0,-0.19 0.15,-0.35 0.35,-0.35 0.19,0 0.35,0.15 0.35,0.35l0 0.34 0 0zm0.41 0.35c0,-0.11 -0.09,-0.21 -0.21,-0.21 -0.11,0 -0.21,0.09 -0.21,0.21l0 0.27 0 0.36 -0.14 0 0 -0.35 0 -0.97c0,-0.12 -0.09,-0.21 -0.21,-0.21 -0.11,0 -0.21,0.09 -0.21,0.21l0 1.42c-0.28,-0.3 -0.66,-0.64 -0.81,-0.48 -0.15,0.15 0.24,0.57 0.78,1.48 0.24,0.41 0.55,0.69 1.07,0.69 0.57,0 1.04,-0.46 1.04,-1.04l0 -0.45 0 -0.66c0,-0.12 -0.09,-0.21 -0.21,-0.21 -0.11,0 -0.21,0.09 -0.21,0.21l0 0.31 0 0.03 -0.14 0 0 -0.32 0 -0.16c0,-0.11 -0.09,-0.21 -0.21,-0.21 -0.11,0 -0.21,0.09 -0.21,0.21l0 0.14 0 0.21 -0.14 0 0 -0.21 0 -0.28 0 0z" sketch:type="MSShapeGroup"/>
 </g>
</svg>
