<?xml version="1.0" encoding="UTF-8"?>
<!DOCTYPE svg PUBLIC "-//W3C//DTD SVG 1.1//EN" "http://www.w3.org/Graphics/SVG/1.1/DTD/svg11.dtd">
<!-- Creator: CorelDRAW 2021 (64-Bit) -->
<svg xmlns="http://www.w3.org/2000/svg" xml:space="preserve" width="8.4604mm" height="8.4604mm" version="1.1" style="shape-rendering:geometricPrecision; text-rendering:geometricPrecision; image-rendering:optimizeQuality; fill-rule:evenodd; clip-rule:evenodd"
viewBox="0 0 49.9 49.9"
 xmlns:xlink="http://www.w3.org/1999/xlink"
 xmlns:xodm="http://www.corel.com/coreldraw/odm/2003">
 <defs>
  <style type="text/css">
   <![CDATA[
    .fil1 {fill:#D9DADA}
    .fil0 {fill:#898989}
    .fil2 {fill:#898989;fill-rule:nonzero}
   ]]>
  </style>
 </defs>
 <g id="Katman_x0020_1">
  <metadata id="CorelCorpID_0Corel-Layer"/>
  <circle class="fil0" cx="24.95" cy="24.95" r="24.95"/>
  <path class="fil1" d="M24.95 0c13.78,0 24.95,11.17 24.95,24.95 0,4.05 -0.97,7.87 -2.68,11.25l-44.55 0c-1.71,-3.38 -2.68,-7.2 -2.68,-11.25 0,-13.78 11.17,-24.95 24.95,-24.95z"/>
  <path class="fil2" d="M34.08 15.25l-3.51 0c-0.34,0 -0.66,-0.17 -0.84,-0.45l-1.13 -1.69c-0.38,-0.56 -1.01,-0.9 -1.69,-0.9l-3.91 0c-0.68,0 -1.31,0.34 -1.69,0.9l-1.13 1.69c-0.19,0.28 -0.5,0.45 -0.84,0.45l-0.47 0 0 -0.51c0,-0.28 -0.23,-0.51 -0.51,-0.51l-1.52 0c-0.28,0 -0.51,0.23 -0.51,0.51l0 0.51 -0.51 0c-1.12,0 -2.03,0.91 -2.03,2.03l0 10.65c0,1.12 0.91,2.03 2.03,2.03l18.25 0c1.12,0 2.03,-0.91 2.03,-2.03l0 -10.65c0,-1.12 -0.91,-2.03 -2.03,-2.03zm-9.13 3.04c-2.1,0 -3.8,1.7 -3.8,3.8 0,2.1 1.7,3.8 3.8,3.8 2.1,0 3.8,-1.7 3.8,-3.8 0,-2.1 -1.7,-3.8 -3.8,-3.8zm0 9.63c-3.22,0 -5.83,-2.61 -5.83,-5.83 0,-3.22 2.61,-5.83 5.83,-5.83 3.22,0 5.83,2.61 5.83,5.83 0,3.22 -2.61,5.83 -5.83,5.83z"/>
 </g>
</svg>
