<?xml version="1.0" encoding="UTF-8"?>
<!DOCTYPE svg PUBLIC "-//W3C//DTD SVG 1.1//EN" "http://www.w3.org/Graphics/SVG/1.1/DTD/svg11.dtd">
<!-- Creator: CorelDRAW 2021 (64-Bit) -->
<svg xmlns="http://www.w3.org/2000/svg" xml:space="preserve" width="4.9524mm" height="4.9524mm" version="1.1" style="shape-rendering:geometricPrecision; text-rendering:geometricPrecision; image-rendering:optimizeQuality; fill-rule:evenodd; clip-rule:evenodd"
viewBox="0 0 26.62 26.62"
 xmlns:xlink="http://www.w3.org/1999/xlink"
 xmlns:xodm="http://www.corel.com/coreldraw/odm/2003">
 <defs>
  <style type="text/css">
   <![CDATA[
    .fil0 {fill:#FEFEFE}
    .fil1 {fill:#2B2A29}
   ]]>
  </style>
 </defs>
 <g id="Katman_x0020_1">
  <metadata id="CorelCorpID_0Corel-Layer"/>
  <rect class="fil0" x="0" y="0" width="26.62" height="26.62" rx="2.28" ry="2.28"/>
  <path class="fil1" d="M18.06 6.86l0.83 0 0 6 1.12 0 0 3.05 -1.12 0 0 3.84 -0.83 0 0 -3.84 -1.12 0 0 -3.05 0.41 0 0.71 0 0 -6zm-11.05 9.14l0.71 0 0 -9.14 0.83 0 0 9.14 1.12 0 0 3.05 -1.12 0 0 0.7 -0.83 0 0 -0.7 -1.12 0 0 -3.05 0.41 0zm1.85 0.81l-1.45 0 0 1.42 1.45 0 0 -1.42zm3.32 -7.54l0.71 0 0 -2.41 0.83 0 0 2.41 1.12 0 0 3.05 -1.12 0 0 7.43 -0.83 0 0 -7.43 -1.12 0 0 -3.05 0.41 0zm1.85 0.81l-1.45 0 0 1.42 1.45 0 0 -1.42zm5.17 3.59l-1.45 0 0 1.42 1.45 0 0 -1.42z"/>
 </g>
</svg>
