<?xml version="1.0" encoding="UTF-8"?>
<!DOCTYPE svg PUBLIC "-//W3C//DTD SVG 1.1//EN" "http://www.w3.org/Graphics/SVG/1.1/DTD/svg11.dtd">
<!-- Creator: CorelDRAW 2021 (64-Bit) -->
<svg xmlns="http://www.w3.org/2000/svg" xml:space="preserve" width="4.9524mm" height="4.9524mm" version="1.1" style="shape-rendering:geometricPrecision; text-rendering:geometricPrecision; image-rendering:optimizeQuality; fill-rule:evenodd; clip-rule:evenodd"
viewBox="0 0 20.45 20.45"
 xmlns:xlink="http://www.w3.org/1999/xlink"
 xmlns:xodm="http://www.corel.com/coreldraw/odm/2003">
 <defs>
  <style type="text/css">
   <![CDATA[
    .fil0 {fill:#FEFEFE}
    .fil1 {fill:#2B2A29}
   ]]>
  </style>
 </defs>
 <g id="Katman_x0020_1">
  <metadata id="CorelCorpID_0Corel-Layer"/>
  <rect class="fil0" x="-0" y="0" width="20.45" height="20.45" rx="1.75" ry="1.75"/>
  <path class="fil1" d="M4.58 6.83l11.29 0c0.16,0 0.3,0.13 0.3,0.3l0 6.19c0,0.16 -0.13,0.3 -0.3,0.3l-11.29 0c-0.16,0 -0.3,-0.13 -0.3,-0.3l0 -6.19c0,-0.16 0.13,-0.3 0.3,-0.3zm9.18 2.31l1.01 0 0 3.13 -1.01 0 0 -3.13zm-7.97 0.41l4.79 0c0.02,0 0.04,0.02 0.04,0.04l0 0.44c0,0.02 -0.02,0.04 -0.04,0.04l-4.79 0c-0.02,0 -0.04,-0.02 -0.04,-0.04l0 -0.44c0,-0.02 0.02,-0.04 0.04,-0.04zm0 0.98l7.45 0c0.02,0 0.04,0.02 0.04,0.04l0 0.44c0,0.02 -0.02,0.04 -0.04,0.04l-7.45 0c-0.02,0 -0.04,-0.02 -0.04,-0.04l0 -0.44c0,-0.02 0.02,-0.04 0.04,-0.04zm0 1.02l6.52 0c0.02,0 0.04,0.02 0.04,0.04l0 0.44c0,0.02 -0.02,0.04 -0.04,0.04l-6.52 0c-0.02,0 -0.04,-0.02 -0.04,-0.04l0 -0.44c0,-0.02 0.02,-0.04 0.04,-0.04zm-0.23 -2.79l9.33 0c0.16,0 0.29,0.13 0.29,0.3l0 3.38c0,0.16 -0.13,0.3 -0.29,0.3l-9.33 0c-0.16,0 -0.29,-0.13 -0.29,-0.3l0 -3.38c0,-0.16 0.13,-0.3 0.29,-0.3z"/>
 </g>
</svg>
