<?xml version="1.0" encoding="UTF-8"?>
<!DOCTYPE svg PUBLIC "-//W3C//DTD SVG 1.1//EN" "http://www.w3.org/Graphics/SVG/1.1/DTD/svg11.dtd">
<!-- Creator: CorelDRAW 2021 (64-Bit) -->
<svg xmlns="http://www.w3.org/2000/svg" xml:space="preserve" width="4.9524mm" height="4.9524mm" version="1.1" style="shape-rendering:geometricPrecision; text-rendering:geometricPrecision; image-rendering:optimizeQuality; fill-rule:evenodd; clip-rule:evenodd"
viewBox="0 0 128.61 128.61"
 xmlns:xlink="http://www.w3.org/1999/xlink"
 xmlns:xodm="http://www.corel.com/coreldraw/odm/2003">
 <defs>
  <style type="text/css">
   <![CDATA[
    .fil0 {fill:#FEFEFE}
    .fil1 {fill:#2B2A29}
   ]]>
  </style>
 </defs>
 <g id="Katman_x0020_1">
  <metadata id="CorelCorpID_0Corel-Layer"/>
  <rect class="fil0" x="-0" y="0" width="128.61" height="128.61" rx="10.99" ry="10.99"/>
  <path class="fil1" d="M65.75 98.49c-1.24,0 -1.57,-2.1 -3.32,-2.1 -1.71,0 -1.87,2.93 -2.89,2.93l-4.75 0 -0.75 -0.97 0 -5.65 0.75 -0.98 4.75 0c1.03,0 1.19,2.93 2.89,2.93 1.75,0 2.08,-2.08 3.32,-2.08 1.32,0 2.03,1.25 2.05,2.93 0.03,1.68 -0.63,2.98 -2.05,2.98zm-2.88 -5.68c1.24,0 1.57,-2.09 3.32,-2.09 1.7,0 1.86,2.93 2.89,2.93l4.74 0 0.76 -0.97 0 -5.66 -0.76 -0.95 -4.74 0c-1.03,0 -1.19,2.93 -2.89,2.93 -1.75,0 -2.09,-2.1 -3.32,-2.1 -1.33,0 -2.03,1.26 -2.04,2.94 -0.04,1.69 0.63,2.97 2.04,2.97zm3.52 -63.53l8.2 0 0 3.8 -8.2 0 0 -3.8zm-0.64 11.52c-1.24,0 -1.57,-2.09 -3.32,-2.09 -1.71,0 -1.87,2.94 -2.89,2.94l-4.75 0 -0.75 -0.97 0 -5.64 0.75 -0.97 4.75 0c1.03,0 1.19,2.94 2.89,2.94 1.75,0 2.08,-2.1 3.32,-2.1 1.32,0 2.03,1.25 2.05,2.93 0.03,1.68 -0.63,2.97 -2.05,2.97zm8.84 0.1l0 -0.02 -0.76 -0.97 -4.74 0c-1.03,0 -1.19,2.94 -2.89,2.94 -1.75,0 -2.09,-2.09 -3.32,-2.09 -1.1,0 -1.78,0.86 -1.98,2.11l-0.01 0.05 -0.01 0.09 -0.01 0.05 0 0.02 -0.01 0.05 0 0.02 -0.01 0.05 0 0.02 -0.01 0.06 0 0.02 -0.01 0.06 0 0.02 -0 0.06 0 0.02 -0.01 0.06 0 0.02 -0 0.06 0 0.02 0 0.06 0 0.02 0 0.06 0 0.02 0 0.06 0 0.02 0 0.06 0 0.02 0 0.06 0 0.01 0 0.06 0 0.02 0.01 0.06 0 0.01 0 0.06 0 0.01 0.01 0.06 0 0.02 0.01 0.06 0 0.01 0.01 0.06 0 0.02 0.01 0.05 0 0.02 0.01 0.06 0 0.01 0.01 0.06 0 0.01 0.01 0.06 0 0.01 0.02 0.07 0.01 0.05 0 0.01c0.23,1.07 0.88,1.79 1.94,1.79 1.24,0 1.57,-2.07 3.32,-2.07 1.7,0 1.86,2.93 2.89,2.93l4.74 0 0.76 -0.97 0 -0.01 0 -5.65zm-20.56 -11.62l8.2 0 0 3.8 -8.2 0 0 -3.8zm11.72 23.06c-1.24,0 -1.57,-2.09 -3.32,-2.09 -1.71,0 -1.87,2.94 -2.89,2.94l-4.75 0 -0.75 -0.97 0 -5.64 0.75 -0.97 4.75 0c1.03,0 1.19,2.94 2.89,2.94 1.75,0 2.08,-2.1 3.32,-2.1 1.32,0 2.03,1.25 2.05,2.93 0.03,1.68 -0.63,2.97 -2.05,2.97zm0 11.54c-1.24,0 -1.57,-2.08 -3.32,-2.08 -1.71,0 -1.87,2.93 -2.89,2.93l-4.75 0 -0.75 -0.97 0 -5.65 0.75 -0.96 4.75 0c1.03,0 1.19,2.93 2.89,2.93 1.75,0 2.08,-2.09 3.32,-2.09 1.32,0 2.03,1.25 2.05,2.92 0.03,1.69 -0.63,2.98 -2.05,2.98zm-2.88 -5.67c1.24,0 1.57,-2.09 3.32,-2.09 1.7,0 1.86,2.93 2.89,2.93l4.74 0 0.76 -0.96 0 -5.66 -0.76 -0.97 -4.74 0c-1.03,0 -1.19,2.94 -2.89,2.94 -1.75,0 -2.09,-2.09 -3.32,-2.09 -1.33,0 -2.03,1.24 -2.04,2.92 -0.04,1.69 0.63,2.98 2.04,2.98zm2.88 17.21c-1.24,0 -1.57,-2.09 -3.32,-2.09 -1.71,0 -1.87,2.92 -2.89,2.92l-4.75 0 -0.75 -0.96 0 -5.65 0.75 -0.96 4.75 0c1.03,0 1.19,2.92 2.89,2.92 1.75,0 2.08,-2.08 3.32,-2.08 1.32,0 2.03,1.24 2.05,2.92 0.03,1.69 -0.63,2.97 -2.05,2.97zm-2.88 -5.68c1.24,0 1.57,-2.09 3.32,-2.09 1.7,0 1.86,2.93 2.89,2.93l4.74 0 0.76 -0.96 0 -5.65 -0.76 -0.96 -4.74 0c-1.03,0 -1.19,2.94 -2.89,2.94 -1.75,0 -2.09,-2.1 -3.32,-2.1 -1.33,0 -2.03,1.25 -2.04,2.92 -0.04,1.7 0.63,2.97 2.04,2.97zm2.88 17.21c-1.24,0 -1.57,-2.09 -3.32,-2.09 -1.71,0 -1.87,2.92 -2.89,2.92l-4.75 0 -0.75 -0.95 0 -5.67 0.75 -0.96 4.75 0c1.03,0 1.19,2.92 2.89,2.92 1.75,0 2.08,-2.08 3.32,-2.08 1.32,0 2.03,1.25 2.05,2.92 0.03,1.7 -0.63,2.98 -2.05,2.98zm-2.88 -5.68c1.24,0 1.57,-2.08 3.32,-2.08 1.7,0 1.86,2.93 2.89,2.93l4.74 0 0.76 -0.96 0 -5.66 -0.76 -0.96 -4.74 0c-1.03,0 -1.19,2.94 -2.89,2.94 -1.75,0 -2.09,-2.1 -3.32,-2.1 -1.33,0 -2.03,1.25 -2.04,2.93 -0.04,1.69 0.63,2.97 2.04,2.97z"/>
 </g>
</svg>
