<?xml version="1.0" encoding="UTF-8"?>
<!DOCTYPE svg PUBLIC "-//W3C//DTD SVG 1.1//EN" "http://www.w3.org/Graphics/SVG/1.1/DTD/svg11.dtd">
<!-- Creator: CorelDRAW 2021 (64-Bit) -->
<svg xmlns="http://www.w3.org/2000/svg" xml:space="preserve" width="4.9524mm" height="4.9524mm" version="1.1" style="shape-rendering:geometricPrecision; text-rendering:geometricPrecision; image-rendering:optimizeQuality; fill-rule:evenodd; clip-rule:evenodd"
viewBox="0 0 67.12 67.12"
 xmlns:xlink="http://www.w3.org/1999/xlink"
 xmlns:xodm="http://www.corel.com/coreldraw/odm/2003">
 <defs>
  <style type="text/css">
   <![CDATA[
    .fil0 {fill:#FEFEFE}
    .fil1 {fill:#2B2A29}
   ]]>
  </style>
 </defs>
 <g id="Katman_x0020_1">
  <metadata id="CorelCorpID_0Corel-Layer"/>
  <rect class="fil0" y="0" width="67.12" height="67.12" rx="5.74" ry="5.74"/>
  <path class="fil1" d="M40.34 24.72l4.23 28.88 -11.01 2.03 -11.01 -2.03 4.23 -28.88 0 -6.56c0,-3.67 3,-6.67 6.67,-6.67l0.22 0c3.67,0 6.67,3 6.67,6.67l0 6.56zm-0.9 26.58l1.22 -1.5 -0.54 -3.73 -1.76 -1.44 -9.62 0 -1.76 1.44 -0.54 3.73 1.22 1.5 11.77 0zm-9.55 -26.58l7.34 0 1.21 -5.96c0.56,-2.77 -2.02,-5.61 -4.77,-5.61l-0.22 0c-2.75,0 -5.33,2.84 -4.77,5.61l1.21 5.96z"/>
 </g>
</svg>
