<?xml version="1.0" encoding="UTF-8"?>
<!DOCTYPE svg PUBLIC "-//W3C//DTD SVG 1.1//EN" "http://www.w3.org/Graphics/SVG/1.1/DTD/svg11.dtd">
<!-- Creator: CorelDRAW 2021 (64-Bit) -->
<svg xmlns="http://www.w3.org/2000/svg" xml:space="preserve" width="4.9524mm" height="4.9524mm" version="1.1" style="shape-rendering:geometricPrecision; text-rendering:geometricPrecision; image-rendering:optimizeQuality; fill-rule:evenodd; clip-rule:evenodd"
viewBox="0 0 52.32 52.32"
 xmlns:xlink="http://www.w3.org/1999/xlink"
 xmlns:xodm="http://www.corel.com/coreldraw/odm/2003">
 <defs>
  <style type="text/css">
   <![CDATA[
    .fil0 {fill:#FEFEFE}
    .fil1 {fill:#2B2A29}
   ]]>
  </style>
 </defs>
 <g id="Katman_x0020_1">
  <metadata id="CorelCorpID_0Corel-Layer"/>
  <rect class="fil0" x="-0" y="0" width="52.32" height="52.32" rx="4.47" ry="4.47"/>
  <path class="fil1" d="M16.48 23.83l6.94 0 0 21.31 -6.94 0 0 -21.31zm3.59 18.55c-0.1,0 -0.12,-0.17 -0.26,-0.17 -0.14,0 -0.15,0.23 -0.23,0.23l-0.38 0 -0.06 -0.08 0 -0.45 0.06 -0.08 0.38 0c0.08,0 0.09,0.23 0.23,0.23 0.14,0 0.17,-0.17 0.26,-0.17 0.1,0 0.16,0.1 0.16,0.23 0,0.13 -0.05,0.24 -0.16,0.24zm-0.81 1.42l1.4 0 0 0.88 -1.4 0 0 -0.88zm0.58 -13.76c0.1,0 0.12,-0.16 0.26,-0.16 0.14,0 0.15,0.23 0.23,0.23l0.38 0 0.06 -0.08 0 -0.45 -0.06 -0.08 -0.38 0c-0.08,0 -0.09,0.23 -0.23,0.23 -0.14,0 -0.17,-0.17 -0.26,-0.17 -0.1,0 -0.16,0.1 -0.16,0.23 -0,0.13 0.05,0.24 0.16,0.24zm0.23 -4.12c-0.1,0 -0.12,-0.17 -0.26,-0.17 -0.14,0 -0.15,0.23 -0.23,0.23l-0.38 0 -0.06 -0.08 0 -0.45 0.06 -0.08 0.38 0c0.08,0 0.09,0.23 0.23,0.23 0.14,0 0.17,-0.17 0.26,-0.17 0.1,0 0.16,0.1 0.16,0.23 0,0.13 -0.05,0.24 -0.16,0.24zm0.7 0.01l0 -0 -0.06 -0.08 -0.38 0c-0.08,0 -0.09,0.23 -0.23,0.23 -0.14,0 -0.17,-0.17 -0.26,-0.17 -0.09,0 -0.14,0.07 -0.16,0.17l-0 0 0 0.01 -0 0 0 0 -0 0 0 0 0 0 0 0 -0 0.01 0 0 0 0 0 0 0 0 0 0 -0 0.01 0 0 0 0 0 0 0 0 0 0 0 0 0 0 0 0 0 0 0 0.01 0 0 0 0.01 0 0 0 0.01 0 0 0 0 0 0 0 0.01 0 0 0 0 0 0 0 0 0 0 0 0 0 0 0 0 0 0 0 0 0 0 0 0 0 0 0 0.01 0 0 0 0.01 0 0 0 0c0.02,0.08 0.07,0.14 0.15,0.14 0.1,0 0.12,-0.16 0.26,-0.16 0.14,0 0.15,0.23 0.23,0.23l0.38 0 0.06 -0.08 0 -0 0 -0.45zm-0.7 0.91c-0.1,0 -0.12,-0.16 -0.26,-0.16 -0.14,0 -0.15,0.23 -0.23,0.23l-0.38 0 -0.06 -0.08 0 -0.45 0.06 -0.08 0.38 0c0.08,0 0.09,0.23 0.23,0.23 0.14,0 0.17,-0.17 0.26,-0.17 0.1,0 0.16,0.1 0.16,0.23 0,0.13 -0.05,0.23 -0.16,0.23zm0 0.92c-0.1,0 -0.12,-0.17 -0.26,-0.17 -0.14,0 -0.15,0.23 -0.23,0.23l-0.38 0 -0.06 -0.08 0 -0.45 0.06 -0.08 0.38 0c0.08,0 0.09,0.23 0.23,0.23 0.14,0 0.17,-0.17 0.26,-0.17 0.1,0 0.16,0.1 0.16,0.23 0,0.13 -0.05,0.24 -0.16,0.24zm-0.23 -0.45c0.1,0 0.12,-0.17 0.26,-0.17 0.14,0 0.15,0.23 0.23,0.23l0.38 0 0.06 -0.08 0 -0.45 -0.06 -0.08 -0.38 0c-0.08,0 -0.09,0.23 -0.23,0.23 -0.14,0 -0.17,-0.17 -0.26,-0.17 -0.1,0 -0.16,0.1 -0.16,0.23 -0,0.13 0.05,0.24 0.16,0.24zm0.23 1.37c-0.1,0 -0.12,-0.17 -0.26,-0.17 -0.14,0 -0.15,0.23 -0.23,0.23l-0.38 0 -0.06 -0.08 0 -0.45 0.06 -0.08 0.38 0c0.08,0 0.09,0.23 0.23,0.23 0.14,0 0.17,-0.16 0.26,-0.16 0.1,0 0.16,0.1 0.16,0.23 0,0.14 -0.05,0.24 -0.16,0.24zm-0.23 -0.45c0.1,0 0.12,-0.16 0.26,-0.16 0.14,0 0.15,0.23 0.23,0.23l0.38 0 0.06 -0.08 0 -0.45 -0.06 -0.08 -0.38 0c-0.08,0 -0.09,0.23 -0.23,0.23 -0.14,0 -0.17,-0.17 -0.26,-0.17 -0.1,0 -0.16,0.1 -0.16,0.23 -0,0.14 0.05,0.24 0.16,0.24zm0.23 1.37c-0.1,0 -0.12,-0.16 -0.26,-0.16 -0.14,0 -0.15,0.23 -0.23,0.23l-0.38 0 -0.06 -0.08 0 -0.45 0.06 -0.08 0.38 0c0.08,0 0.09,0.23 0.23,0.23 0.14,0 0.17,-0.16 0.26,-0.16 0.1,0 0.16,0.1 0.16,0.23 0,0.13 -0.05,0.24 -0.16,0.24zm-0.23 -0.45c0.1,0 0.12,-0.16 0.26,-0.16 0.14,0 0.15,0.23 0.23,0.23l0.38 0 0.06 -0.08 0 -0.45 -0.06 -0.08 -0.38 0c-0.08,0 -0.09,0.23 -0.23,0.23 -0.14,0 -0.17,-0.17 -0.26,-0.17 -0.1,0 -0.16,0.1 -0.16,0.23 -0,0.13 0.05,0.24 0.16,0.24zm0.23 1.37c-0.1,0 -0.12,-0.17 -0.26,-0.17 -0.14,0 -0.15,0.23 -0.23,0.23l-0.38 0 -0.06 -0.08 0 -0.45 0.06 -0.08 0.38 0c0.08,0 0.09,0.23 0.23,0.23 0.14,0 0.17,-0.17 0.26,-0.17 0.1,0 0.16,0.1 0.16,0.23 0,0.13 -0.05,0.24 -0.16,0.24zm0.7 0.01l0 -0 -0.06 -0.08 -0.38 0c-0.08,0 -0.09,0.23 -0.23,0.23 -0.14,0 -0.17,-0.17 -0.26,-0.17 -0.09,0 -0.14,0.07 -0.16,0.17l-0 0 0 0.01 -0 0 0 0 -0 0 0 0 0 0 0 0 -0 0.01 0 0 0 0 0 0 0 0 0 0 -0 0.01 0 0 0 0 0 0 0 0 0 0 0 0 0 0 0 0 0 0 0 0.01 0 0 0 0.01 0 0 0 0.01 0 0 0 0 0 0 0 0.01 0 0 0 0 0 0 0 0 0 0 0 0 0 0 0 0 0 0 0 0 0 0 0 0 0 0 0 0.01 0 0 0 0.01 0 0 0 0c0.02,0.08 0.07,0.14 0.15,0.14 0.1,0 0.12,-0.16 0.26,-0.16 0.14,0 0.15,0.23 0.23,0.23l0.38 0 0.06 -0.08 0 -0 0 -0.45zm-0.7 0.91c-0.1,0 -0.12,-0.16 -0.26,-0.16 -0.14,0 -0.15,0.23 -0.23,0.23l-0.38 0 -0.06 -0.08 0 -0.45 0.06 -0.08 0.38 0c0.08,0 0.09,0.23 0.23,0.23 0.14,0 0.17,-0.17 0.26,-0.17 0.1,0 0.16,0.1 0.16,0.23 0,0.13 -0.05,0.23 -0.16,0.23zm0 0.92c-0.1,0 -0.12,-0.17 -0.26,-0.17 -0.14,0 -0.15,0.23 -0.23,0.23l-0.38 0 -0.06 -0.08 0 -0.45 0.06 -0.08 0.38 0c0.08,0 0.09,0.23 0.23,0.23 0.14,0 0.17,-0.17 0.26,-0.17 0.1,0 0.16,0.1 0.16,0.23 0,0.13 -0.05,0.24 -0.16,0.24zm-0.23 -0.45c0.1,0 0.12,-0.17 0.26,-0.17 0.14,0 0.15,0.23 0.23,0.23l0.38 0 0.06 -0.08 0 -0.45 -0.06 -0.08 -0.38 0c-0.08,0 -0.09,0.23 -0.23,0.23 -0.14,0 -0.17,-0.17 -0.26,-0.17 -0.1,0 -0.16,0.1 -0.16,0.23 -0,0.13 0.05,0.24 0.16,0.24zm0 0.91c0.1,0 0.12,-0.16 0.26,-0.16 0.14,0 0.15,0.23 0.23,0.23l0.38 0 0.06 -0.08 0 -0.45 -0.06 -0.08 -0.38 0c-0.08,0 -0.09,0.23 -0.23,0.23 -0.14,0 -0.17,-0.17 -0.26,-0.17 -0.1,0 -0.16,0.1 -0.16,0.23 -0,0.14 0.05,0.24 0.16,0.24zm0 4.57c0.1,0 0.12,-0.16 0.26,-0.16 0.14,0 0.15,0.23 0.23,0.23l0.38 0 0.06 -0.08 0 -0.45 -0.06 -0.08 -0.38 0c-0.08,0 -0.09,0.23 -0.23,0.23 -0.14,0 -0.17,-0.17 -0.26,-0.17 -0.1,0 -0.16,0.1 -0.16,0.23 -0,0.13 0.05,0.24 0.16,0.24zm0.23 -4.12c-0.1,0 -0.12,-0.17 -0.26,-0.17 -0.14,0 -0.15,0.23 -0.23,0.23l-0.38 0 -0.06 -0.08 0 -0.45 0.06 -0.08 0.38 0c0.08,0 0.09,0.23 0.23,0.23 0.14,0 0.17,-0.17 0.26,-0.17 0.1,0 0.16,0.1 0.16,0.23 0,0.13 -0.05,0.24 -0.16,0.24zm0.7 0.01l0 -0 -0.06 -0.08 -0.38 0c-0.08,0 -0.09,0.23 -0.23,0.23 -0.14,0 -0.17,-0.17 -0.26,-0.17 -0.09,0 -0.14,0.07 -0.16,0.17l-0 0 0 0.01 -0 0 0 0 -0 0 0 0 0 0 0 0 -0 0.01 0 0 0 0 0 0 0 0 0 0 -0 0.01 0 0 0 0 0 0 0 0 0 0 0 0 0 0 0 0 0 0 0 0.01 0 0 0 0.01 0 0 0 0.01 0 0 0 0 0 0 0 0.01 0 0 0 0 0 0 0 0 0 0 0 0 0 0 0 0 0 0 0 0 0 0 0 0 0 0 0 0.01 0 0 0 0.01 0 0 0 0c0.02,0.08 0.07,0.14 0.15,0.14 0.1,0 0.12,-0.16 0.26,-0.16 0.14,0 0.15,0.23 0.23,0.23l0.38 0 0.06 -0.08 0 -0 0 -0.45zm-0.7 0.91c-0.1,0 -0.12,-0.16 -0.26,-0.16 -0.14,0 -0.15,0.23 -0.23,0.23l-0.38 0 -0.06 -0.08 0 -0.45 0.06 -0.08 0.38 0c0.08,0 0.09,0.23 0.23,0.23 0.14,0 0.17,-0.17 0.26,-0.17 0.1,0 0.16,0.1 0.16,0.23 0,0.13 -0.05,0.23 -0.16,0.23zm0 0.92c-0.1,0 -0.12,-0.17 -0.26,-0.17 -0.14,0 -0.15,0.23 -0.23,0.23l-0.38 0 -0.06 -0.08 0 -0.45 0.06 -0.08 0.38 0c0.08,0 0.09,0.23 0.23,0.23 0.14,0 0.17,-0.17 0.26,-0.17 0.1,0 0.16,0.1 0.16,0.23 0,0.13 -0.05,0.24 -0.16,0.24zm-0.23 -0.45c0.1,0 0.12,-0.17 0.26,-0.17 0.14,0 0.15,0.23 0.23,0.23l0.38 0 0.06 -0.08 0 -0.45 -0.06 -0.08 -0.38 0c-0.08,0 -0.09,0.23 -0.23,0.23 -0.14,0 -0.17,-0.17 -0.26,-0.17 -0.1,0 -0.16,0.1 -0.16,0.23 -0,0.13 0.05,0.24 0.16,0.24zm0.23 1.37c-0.1,0 -0.12,-0.17 -0.26,-0.17 -0.14,0 -0.15,0.23 -0.23,0.23l-0.38 0 -0.06 -0.08 0 -0.45 0.06 -0.08 0.38 0c0.08,0 0.09,0.23 0.23,0.23 0.14,0 0.17,-0.16 0.26,-0.16 0.1,0 0.16,0.1 0.16,0.23 0,0.14 -0.05,0.24 -0.16,0.24zm-0.23 -0.45c0.1,0 0.12,-0.16 0.26,-0.16 0.14,0 0.15,0.23 0.23,0.23l0.38 0 0.06 -0.08 0 -0.45 -0.06 -0.08 -0.38 0c-0.08,0 -0.09,0.23 -0.23,0.23 -0.14,0 -0.17,-0.17 -0.26,-0.17 -0.1,0 -0.16,0.1 -0.16,0.23 -0,0.14 0.05,0.24 0.16,0.24zm0.23 1.37c-0.1,0 -0.12,-0.16 -0.26,-0.16 -0.14,0 -0.15,0.23 -0.23,0.23l-0.38 0 -0.06 -0.08 0 -0.45 0.06 -0.08 0.38 0c0.08,0 0.09,0.23 0.23,0.23 0.14,0 0.17,-0.16 0.26,-0.16 0.1,0 0.16,0.1 0.16,0.23 0,0.13 -0.05,0.24 -0.16,0.24zm-0.23 -0.45c0.1,0 0.12,-0.16 0.26,-0.16 0.14,0 0.15,0.23 0.23,0.23l0.38 0 0.06 -0.08 0 -0.45 -0.06 -0.08 -0.38 0c-0.08,0 -0.09,0.23 -0.23,0.23 -0.14,0 -0.17,-0.17 -0.26,-0.17 -0.1,0 -0.16,0.1 -0.16,0.23 -0,0.13 0.05,0.24 0.16,0.24zm0 5.49c0.1,0 0.12,-0.16 0.26,-0.16 0.14,0 0.15,0.23 0.23,0.23l0.38 0 0.06 -0.08 0 -0.45 -0.06 -0.08 -0.38 0c-0.08,0 -0.09,0.23 -0.23,0.23 -0.14,0 -0.17,-0.17 -0.26,-0.17 -0.1,0 -0.16,0.1 -0.16,0.23 -0,0.13 0.05,0.24 0.16,0.24zm0.23 -4.12c-0.1,0 -0.12,-0.17 -0.26,-0.17 -0.14,0 -0.15,0.23 -0.23,0.23l-0.38 0 -0.06 -0.08 0 -0.45 0.06 -0.08 0.38 0c0.08,0 0.09,0.23 0.23,0.23 0.14,0 0.17,-0.17 0.26,-0.17 0.1,0 0.16,0.1 0.16,0.23 0,0.13 -0.05,0.24 -0.16,0.24zm0.7 0.01l0 -0 -0.06 -0.08 -0.38 0c-0.08,0 -0.09,0.23 -0.23,0.23 -0.14,0 -0.17,-0.17 -0.26,-0.17 -0.09,0 -0.14,0.07 -0.16,0.17l-0 0 0 0.01 -0 0 0 0 -0 0 0 0 0 0 0 0 -0 0.01 0 0 0 0 0 0 0 0 0 0 -0 0.01 0 0 0 0 0 0 0 0 0 0 0 0 0 0 0 0 0 0 0 0.01 0 0 0 0.01 0 0 0 0.01 0 0 0 0 0 0 0 0.01 0 0 0 0 0 0 0 0 0 0 0 0 0 0 0 0 0 0 0 0 0 0 0 0 0 0 0 0.01 0 0 0 0.01 0 0 0 0c0.02,0.08 0.07,0.14 0.15,0.14 0.1,0 0.12,-0.16 0.26,-0.16 0.14,0 0.15,0.23 0.23,0.23l0.38 0 0.06 -0.08 0 -0 0 -0.45zm-1.63 -12.88l0.65 0 0 0.3 -0.65 0 0 -0.3zm0.98 0l0.65 0 0 0.3 -0.65 0 0 -0.3zm-0.82 17.67l0.43 0 0.05 0.05 0 0.22 0.12 0 0.05 0.05 0 0.66 -0.05 0.05 -0.6 0 -0.05 -0.05 0 -0.26 0 -0.41 0 -0.27 0.05 -0.05zm0.74 0.14l0.56 0 0.05 0.05 0 0.79 -0.05 0.05 -0.56 0 -0.05 -0.05 0 -0.79 0.05 -0.05zm0.03 -4.03c-0.1,0 -0.12,-0.16 -0.26,-0.16 -0.14,0 -0.15,0.23 -0.23,0.23l-0.38 0 -0.06 -0.08 0 -0.45 0.06 -0.08 0.38 0c0.08,0 0.09,0.23 0.23,0.23 0.14,0 0.17,-0.17 0.26,-0.17 0.1,0 0.16,0.1 0.16,0.23 0,0.13 -0.05,0.23 -0.16,0.23zm0 0.92c-0.1,0 -0.12,-0.17 -0.26,-0.17 -0.14,0 -0.15,0.23 -0.23,0.23l-0.38 0 -0.06 -0.08 0 -0.45 0.06 -0.08 0.38 0c0.08,0 0.09,0.23 0.23,0.23 0.14,0 0.17,-0.17 0.26,-0.17 0.1,0 0.16,0.1 0.16,0.23 0,0.13 -0.05,0.24 -0.16,0.24zm-0.23 -0.45c0.1,0 0.12,-0.17 0.26,-0.17 0.14,0 0.15,0.23 0.23,0.23l0.38 0 0.06 -0.08 0 -0.45 -0.06 -0.08 -0.38 0c-0.08,0 -0.09,0.23 -0.23,0.23 -0.14,0 -0.17,-0.17 -0.26,-0.17 -0.1,0 -0.16,0.1 -0.16,0.23 -0,0.13 0.05,0.24 0.16,0.24zm0.23 1.37c-0.1,0 -0.12,-0.17 -0.26,-0.17 -0.14,0 -0.15,0.23 -0.23,0.23l-0.38 0 -0.06 -0.08 0 -0.45 0.06 -0.08 0.38 0c0.08,0 0.09,0.23 0.23,0.23 0.14,0 0.17,-0.16 0.26,-0.16 0.1,0 0.16,0.1 0.16,0.23 0,0.14 -0.05,0.24 -0.16,0.24zm-0.23 -0.45c0.1,0 0.12,-0.16 0.26,-0.16 0.14,0 0.15,0.23 0.23,0.23l0.38 0 0.06 -0.08 0 -0.45 -0.06 -0.08 -0.38 0c-0.08,0 -0.09,0.23 -0.23,0.23 -0.14,0 -0.17,-0.17 -0.26,-0.17 -0.1,0 -0.16,0.1 -0.16,0.23 -0,0.14 0.05,0.24 0.16,0.24zm0.23 1.37c-0.1,0 -0.12,-0.16 -0.26,-0.16 -0.14,0 -0.15,0.23 -0.23,0.23l-0.38 0 -0.06 -0.08 0 -0.45 0.06 -0.08 0.38 0c0.08,0 0.09,0.23 0.23,0.23 0.14,0 0.17,-0.16 0.26,-0.16 0.1,0 0.16,0.1 0.16,0.23 0,0.13 -0.05,0.24 -0.16,0.24zm-0.23 -0.45c0.1,0 0.12,-0.16 0.26,-0.16 0.14,0 0.15,0.23 0.23,0.23l0.38 0 0.06 -0.08 0 -0.45 -0.06 -0.08 -0.38 0c-0.08,0 -0.09,0.23 -0.23,0.23 -0.14,0 -0.17,-0.17 -0.26,-0.17 -0.1,0 -0.16,0.1 -0.16,0.23 -0,0.13 0.05,0.24 0.16,0.24z"/>
  <path class="fil1" d="M28.9 7.19l6.94 0 0 37.95 -6.94 0 0 -37.95zm3.59 34.41c-0.1,0 -0.12,-0.17 -0.26,-0.17 -0.14,0 -0.15,0.23 -0.23,0.23l-0.38 0 -0.06 -0.08 0 -0.45 0.06 -0.08 0.38 0c0.08,0 0.09,0.23 0.23,0.23 0.14,0 0.17,-0.17 0.26,-0.17 0.1,0 0.16,0.1 0.16,0.23 0,0.13 -0.05,0.24 -0.16,0.24zm-0.23 -27.9c0.1,0 0.12,-0.16 0.26,-0.16 0.14,0 0.15,0.23 0.23,0.23l0.38 0 0.06 -0.08 0 -0.45 -0.06 -0.08 -0.38 0c-0.08,0 -0.09,0.23 -0.23,0.23 -0.14,0 -0.17,-0.17 -0.26,-0.17 -0.1,0 -0.16,0.1 -0.16,0.23 -0,0.13 0.05,0.24 0.16,0.24zm0.23 -4.12c-0.1,0 -0.12,-0.17 -0.26,-0.17 -0.14,0 -0.15,0.23 -0.23,0.23l-0.38 0 -0.06 -0.08 0 -0.45 0.06 -0.08 0.38 0c0.08,0 0.09,0.23 0.23,0.23 0.14,0 0.17,-0.17 0.26,-0.17 0.1,0 0.16,0.1 0.16,0.23 0,0.13 -0.05,0.24 -0.16,0.24zm0.7 0.01l0 -0 -0.06 -0.08 -0.38 0c-0.08,0 -0.09,0.23 -0.23,0.23 -0.14,0 -0.17,-0.17 -0.26,-0.17 -0.09,0 -0.14,0.07 -0.16,0.17l-0 0 0 0.01 -0 0 0 0 -0 0 0 0 0 0 0 0 -0 0.01 0 0 0 0 0 0 0 0 0 0 -0 0.01 0 0 0 0 0 0 0 0 0 0 0 0 0 0 0 0 0 0 0 0.01 0 0 0 0.01 0 0 0 0.01 0 0 0 0 0 0 0 0.01 0 0 0 0 0 0 0 0 0 0 0 0 0 0 0 0 0 0 0 0 0 0 0 0 0 0 0 0.01 0 0 0 0.01 0 0 0 0c0.02,0.08 0.07,0.14 0.15,0.14 0.1,0 0.12,-0.16 0.26,-0.16 0.14,0 0.15,0.23 0.23,0.23l0.38 0 0.06 -0.08 0 -0 0 -0.45zm-0.7 0.91c-0.1,0 -0.12,-0.16 -0.26,-0.16 -0.14,0 -0.15,0.23 -0.23,0.23l-0.38 0 -0.06 -0.08 0 -0.45 0.06 -0.08 0.38 0c0.08,0 0.09,0.23 0.23,0.23 0.14,0 0.17,-0.17 0.26,-0.17 0.1,0 0.16,0.1 0.16,0.23 0,0.13 -0.05,0.23 -0.16,0.23zm0 0.92c-0.1,0 -0.12,-0.17 -0.26,-0.17 -0.14,0 -0.15,0.23 -0.23,0.23l-0.38 0 -0.06 -0.08 0 -0.45 0.06 -0.08 0.38 0c0.08,0 0.09,0.23 0.23,0.23 0.14,0 0.17,-0.17 0.26,-0.17 0.1,0 0.16,0.1 0.16,0.23 0,0.13 -0.05,0.24 -0.16,0.24zm-0.23 -0.45c0.1,0 0.12,-0.17 0.26,-0.17 0.14,0 0.15,0.23 0.23,0.23l0.38 0 0.06 -0.08 0 -0.45 -0.06 -0.08 -0.38 0c-0.08,0 -0.09,0.23 -0.23,0.23 -0.14,0 -0.17,-0.17 -0.26,-0.17 -0.1,0 -0.16,0.1 -0.16,0.23 -0,0.13 0.05,0.24 0.16,0.24zm0.23 1.37c-0.1,0 -0.12,-0.17 -0.26,-0.17 -0.14,0 -0.15,0.23 -0.23,0.23l-0.38 0 -0.06 -0.08 0 -0.45 0.06 -0.08 0.38 0c0.08,0 0.09,0.23 0.23,0.23 0.14,0 0.17,-0.16 0.26,-0.16 0.1,0 0.16,0.1 0.16,0.23 0,0.14 -0.05,0.24 -0.16,0.24zm-0.23 -0.45c0.1,0 0.12,-0.16 0.26,-0.16 0.14,0 0.15,0.23 0.23,0.23l0.38 0 0.06 -0.08 0 -0.45 -0.06 -0.08 -0.38 0c-0.08,0 -0.09,0.23 -0.23,0.23 -0.14,0 -0.17,-0.17 -0.26,-0.17 -0.1,0 -0.16,0.1 -0.16,0.23 -0,0.14 0.05,0.24 0.16,0.24zm0.23 1.37c-0.1,0 -0.12,-0.16 -0.26,-0.16 -0.14,0 -0.15,0.23 -0.23,0.23l-0.38 0 -0.06 -0.08 0 -0.45 0.06 -0.08 0.38 0c0.08,0 0.09,0.23 0.23,0.23 0.14,0 0.17,-0.16 0.26,-0.16 0.1,0 0.16,0.1 0.16,0.23 0,0.13 -0.05,0.24 -0.16,0.24zm-0.23 -0.45c0.1,0 0.12,-0.16 0.26,-0.16 0.14,0 0.15,0.23 0.23,0.23l0.38 0 0.06 -0.08 0 -0.45 -0.06 -0.08 -0.38 0c-0.08,0 -0.09,0.23 -0.23,0.23 -0.14,0 -0.17,-0.17 -0.26,-0.17 -0.1,0 -0.16,0.1 -0.16,0.23 -0,0.13 0.05,0.24 0.16,0.24zm0.23 1.37c-0.1,0 -0.12,-0.17 -0.26,-0.17 -0.14,0 -0.15,0.23 -0.23,0.23l-0.38 0 -0.06 -0.08 0 -0.45 0.06 -0.08 0.38 0c0.08,0 0.09,0.23 0.23,0.23 0.14,0 0.17,-0.17 0.26,-0.17 0.1,0 0.16,0.1 0.16,0.23 0,0.13 -0.05,0.24 -0.16,0.24zm0.7 0.01l0 -0 -0.06 -0.08 -0.38 0c-0.08,0 -0.09,0.23 -0.23,0.23 -0.14,0 -0.17,-0.17 -0.26,-0.17 -0.09,0 -0.14,0.07 -0.16,0.17l-0 0 0 0.01 -0 0 0 0 -0 0 0 0 0 0 0 0 -0 0.01 0 0 0 0 0 0 0 0 0 0 -0 0.01 0 0 0 0 0 0 0 0 0 0 0 0 0 0 0 0 0 0 0 0.01 0 0 0 0.01 0 0 0 0.01 0 0 0 0 0 0 0 0.01 0 0 0 0 0 0 0 0 0 0 0 0 0 0 0 0 0 0 0 0 0 0 0 0 0 0 0 0.01 0 0 0 0.01 0 0 0 0c0.02,0.08 0.07,0.14 0.15,0.14 0.1,0 0.12,-0.16 0.26,-0.16 0.14,0 0.15,0.23 0.23,0.23l0.38 0 0.06 -0.08 0 -0 0 -0.45zm-0.7 0.91c-0.1,0 -0.12,-0.16 -0.26,-0.16 -0.14,0 -0.15,0.23 -0.23,0.23l-0.38 0 -0.06 -0.08 0 -0.45 0.06 -0.08 0.38 0c0.08,0 0.09,0.23 0.23,0.23 0.14,0 0.17,-0.17 0.26,-0.17 0.1,0 0.16,0.1 0.16,0.23 0,0.13 -0.05,0.23 -0.16,0.23zm0 0.92c-0.1,0 -0.12,-0.17 -0.26,-0.17 -0.14,0 -0.15,0.23 -0.23,0.23l-0.38 0 -0.06 -0.08 0 -0.45 0.06 -0.08 0.38 0c0.08,0 0.09,0.23 0.23,0.23 0.14,0 0.17,-0.17 0.26,-0.17 0.1,0 0.16,0.1 0.16,0.23 0,0.13 -0.05,0.24 -0.16,0.24zm-0.23 -0.45c0.1,0 0.12,-0.17 0.26,-0.17 0.14,0 0.15,0.23 0.23,0.23l0.38 0 0.06 -0.08 0 -0.45 -0.06 -0.08 -0.38 0c-0.08,0 -0.09,0.23 -0.23,0.23 -0.14,0 -0.17,-0.17 -0.26,-0.17 -0.1,0 -0.16,0.1 -0.16,0.23 -0,0.13 0.05,0.24 0.16,0.24zm0 0.91c0.1,0 0.12,-0.16 0.26,-0.16 0.14,0 0.15,0.23 0.23,0.23l0.38 0 0.06 -0.08 0 -0.45 -0.06 -0.08 -0.38 0c-0.08,0 -0.09,0.23 -0.23,0.23 -0.14,0 -0.17,-0.17 -0.26,-0.17 -0.1,0 -0.16,0.1 -0.16,0.23 -0,0.14 0.05,0.24 0.16,0.24zm0 4.57c0.1,0 0.12,-0.16 0.26,-0.16 0.14,0 0.15,0.23 0.23,0.23l0.38 0 0.06 -0.08 0 -0.45 -0.06 -0.08 -0.38 0c-0.08,0 -0.09,0.23 -0.23,0.23 -0.14,0 -0.17,-0.17 -0.26,-0.17 -0.1,0 -0.16,0.1 -0.16,0.23 -0,0.13 0.05,0.24 0.16,0.24zm0.23 -4.12c-0.1,0 -0.12,-0.17 -0.26,-0.17 -0.14,0 -0.15,0.23 -0.23,0.23l-0.38 0 -0.06 -0.08 0 -0.45 0.06 -0.08 0.38 0c0.08,0 0.09,0.23 0.23,0.23 0.14,0 0.17,-0.17 0.26,-0.17 0.1,0 0.16,0.1 0.16,0.23 0,0.13 -0.05,0.24 -0.16,0.24zm0.7 0.01l0 -0 -0.06 -0.08 -0.38 0c-0.08,0 -0.09,0.23 -0.23,0.23 -0.14,0 -0.17,-0.17 -0.26,-0.17 -0.09,0 -0.14,0.07 -0.16,0.17l-0 0 0 0.01 -0 0 0 0 -0 0 0 0 0 0 0 0 -0 0.01 0 0 0 0 0 0 0 0 0 0 -0 0.01 0 0 0 0 0 0 0 0 0 0 0 0 0 0 0 0 0 0 0 0.01 0 0 0 0.01 0 0 0 0.01 0 0 0 0 0 0 0 0.01 0 0 0 0 0 0 0 0 0 0 0 0 0 0 0 0 0 0 0 0 0 0 0 0 0 0 0 0.01 0 0 0 0.01 0 0 0 0c0.02,0.08 0.07,0.14 0.15,0.14 0.1,0 0.12,-0.16 0.26,-0.16 0.14,0 0.15,0.23 0.23,0.23l0.38 0 0.06 -0.08 0 -0 0 -0.45zm-0.7 0.91c-0.1,0 -0.12,-0.16 -0.26,-0.16 -0.14,0 -0.15,0.23 -0.23,0.23l-0.38 0 -0.06 -0.08 0 -0.45 0.06 -0.08 0.38 0c0.08,0 0.09,0.23 0.23,0.23 0.14,0 0.17,-0.17 0.26,-0.17 0.1,0 0.16,0.1 0.16,0.23 0,0.13 -0.05,0.23 -0.16,0.23zm0 0.92c-0.1,0 -0.12,-0.17 -0.26,-0.17 -0.14,0 -0.15,0.23 -0.23,0.23l-0.38 0 -0.06 -0.08 0 -0.45 0.06 -0.08 0.38 0c0.08,0 0.09,0.23 0.23,0.23 0.14,0 0.17,-0.17 0.26,-0.17 0.1,0 0.16,0.1 0.16,0.23 0,0.13 -0.05,0.24 -0.16,0.24zm-0.23 -0.45c0.1,0 0.12,-0.17 0.26,-0.17 0.14,0 0.15,0.23 0.23,0.23l0.38 0 0.06 -0.08 0 -0.45 -0.06 -0.08 -0.38 0c-0.08,0 -0.09,0.23 -0.23,0.23 -0.14,0 -0.17,-0.17 -0.26,-0.17 -0.1,0 -0.16,0.1 -0.16,0.23 -0,0.13 0.05,0.24 0.16,0.24zm0.23 1.37c-0.1,0 -0.12,-0.17 -0.26,-0.17 -0.14,0 -0.15,0.23 -0.23,0.23l-0.38 0 -0.06 -0.08 0 -0.45 0.06 -0.08 0.38 0c0.08,0 0.09,0.23 0.23,0.23 0.14,0 0.17,-0.16 0.26,-0.16 0.1,0 0.16,0.1 0.16,0.23 0,0.14 -0.05,0.24 -0.16,0.24zm-0.23 -0.45c0.1,0 0.12,-0.16 0.26,-0.16 0.14,0 0.15,0.23 0.23,0.23l0.38 0 0.06 -0.08 0 -0.45 -0.06 -0.08 -0.38 0c-0.08,0 -0.09,0.23 -0.23,0.23 -0.14,0 -0.17,-0.17 -0.26,-0.17 -0.1,0 -0.16,0.1 -0.16,0.23 -0,0.14 0.05,0.24 0.16,0.24zm0.23 1.37c-0.1,0 -0.12,-0.16 -0.26,-0.16 -0.14,0 -0.15,0.23 -0.23,0.23l-0.38 0 -0.06 -0.08 0 -0.45 0.06 -0.08 0.38 0c0.08,0 0.09,0.23 0.23,0.23 0.14,0 0.17,-0.16 0.26,-0.16 0.1,0 0.16,0.1 0.16,0.23 0,0.13 -0.05,0.24 -0.16,0.24zm-0.23 -0.45c0.1,0 0.12,-0.16 0.26,-0.16 0.14,0 0.15,0.23 0.23,0.23l0.38 0 0.06 -0.08 0 -0.45 -0.06 -0.08 -0.38 0c-0.08,0 -0.09,0.23 -0.23,0.23 -0.14,0 -0.17,-0.17 -0.26,-0.17 -0.1,0 -0.16,0.1 -0.16,0.23 -0,0.13 0.05,0.24 0.16,0.24zm0.23 1.37c-0.1,0 -0.12,-0.17 -0.26,-0.17 -0.14,0 -0.15,0.23 -0.23,0.23l-0.38 0 -0.06 -0.08 0 -0.45 0.06 -0.08 0.38 0c0.08,0 0.09,0.23 0.23,0.23 0.14,0 0.17,-0.17 0.26,-0.17 0.1,0 0.16,0.1 0.16,0.23 0,0.13 -0.05,0.24 -0.16,0.24zm0.7 0.01l0 -0 -0.06 -0.08 -0.38 0c-0.08,0 -0.09,0.23 -0.23,0.23 -0.14,0 -0.17,-0.17 -0.26,-0.17 -0.09,0 -0.14,0.07 -0.16,0.17l-0 0 0 0.01 -0 0 0 0 -0 0 0 0 0 0 0 0 -0 0.01 0 0 0 0 0 0 0 0 0 0 -0 0.01 0 0 0 0 0 0 0 0 0 0 0 0 0 0 0 0 0 0 0 0.01 0 0 0 0.01 0 0 0 0.01 0 0 0 0 0 0 0 0.01 0 0 0 0 0 0 0 0 0 0 0 0 0 0 0 0 0 0 0 0 0 0 0 0 0 0 0 0.01 0 0 0 0.01 0 0 0 0c0.02,0.08 0.07,0.14 0.15,0.14 0.1,0 0.12,-0.16 0.26,-0.16 0.14,0 0.15,0.23 0.23,0.23l0.38 0 0.06 -0.08 0 -0 0 -0.45zm-0.7 0.91c-0.1,0 -0.12,-0.16 -0.26,-0.16 -0.14,0 -0.15,0.23 -0.23,0.23l-0.38 0 -0.06 -0.08 0 -0.45 0.06 -0.08 0.38 0c0.08,0 0.09,0.23 0.23,0.23 0.14,0 0.17,-0.17 0.26,-0.17 0.1,0 0.16,0.1 0.16,0.23 0,0.13 -0.05,0.23 -0.16,0.23zm0 0.92c-0.1,0 -0.12,-0.17 -0.26,-0.17 -0.14,0 -0.15,0.23 -0.23,0.23l-0.38 0 -0.06 -0.08 0 -0.45 0.06 -0.08 0.38 0c0.08,0 0.09,0.23 0.23,0.23 0.14,0 0.17,-0.17 0.26,-0.17 0.1,0 0.16,0.1 0.16,0.23 0,0.13 -0.05,0.24 -0.16,0.24zm-0.23 -0.45c0.1,0 0.12,-0.17 0.26,-0.17 0.14,0 0.15,0.23 0.23,0.23l0.38 0 0.06 -0.08 0 -0.45 -0.06 -0.08 -0.38 0c-0.08,0 -0.09,0.23 -0.23,0.23 -0.14,0 -0.17,-0.17 -0.26,-0.17 -0.1,0 -0.16,0.1 -0.16,0.23 -0,0.13 0.05,0.24 0.16,0.24zm0.23 1.37c-0.1,0 -0.12,-0.17 -0.26,-0.17 -0.14,0 -0.15,0.23 -0.23,0.23l-0.38 0 -0.06 -0.08 0 -0.45 0.06 -0.08 0.38 0c0.08,0 0.09,0.23 0.23,0.23 0.14,0 0.17,-0.16 0.26,-0.16 0.1,0 0.16,0.1 0.16,0.23 0,0.14 -0.05,0.24 -0.16,0.24zm-0.23 -0.45c0.1,0 0.12,-0.16 0.26,-0.16 0.14,0 0.15,0.23 0.23,0.23l0.38 0 0.06 -0.08 0 -0.45 -0.06 -0.08 -0.38 0c-0.08,0 -0.09,0.23 -0.23,0.23 -0.14,0 -0.17,-0.17 -0.26,-0.17 -0.1,0 -0.16,0.1 -0.16,0.23 -0,0.14 0.05,0.24 0.16,0.24zm0 0.91c0.1,0 0.12,-0.16 0.26,-0.16 0.14,0 0.15,0.23 0.23,0.23l0.38 0 0.06 -0.08 0 -0.45 -0.06 -0.08 -0.38 0c-0.08,0 -0.09,0.23 -0.23,0.23 -0.14,0 -0.17,-0.17 -0.26,-0.17 -0.1,0 -0.16,0.1 -0.16,0.23 -0,0.13 0.05,0.24 0.16,0.24zm-0.58 18.33l1.4 0 0 0.88 -1.4 0 0 -0.88zm0.58 -13.76c0.1,0 0.12,-0.16 0.26,-0.16 0.14,0 0.15,0.23 0.23,0.23l0.38 0 0.06 -0.08 0 -0.45 -0.06 -0.08 -0.38 0c-0.08,0 -0.09,0.23 -0.23,0.23 -0.14,0 -0.17,-0.17 -0.26,-0.17 -0.1,0 -0.16,0.1 -0.16,0.23 -0,0.13 0.05,0.24 0.16,0.24zm0.23 -4.12c-0.1,0 -0.12,-0.17 -0.26,-0.17 -0.14,0 -0.15,0.23 -0.23,0.23l-0.38 0 -0.06 -0.08 0 -0.45 0.06 -0.08 0.38 0c0.08,0 0.09,0.23 0.23,0.23 0.14,0 0.17,-0.17 0.26,-0.17 0.1,0 0.16,0.1 0.16,0.23 0,0.13 -0.05,0.24 -0.16,0.24zm0.7 0.01l0 -0 -0.06 -0.08 -0.38 0c-0.08,0 -0.09,0.23 -0.23,0.23 -0.14,0 -0.17,-0.17 -0.26,-0.17 -0.09,0 -0.14,0.07 -0.16,0.17l-0 0 0 0.01 -0 0 0 0 -0 0 0 0 0 0 0 0 -0 0.01 0 0 0 0 0 0 0 0 0 0 -0 0.01 0 0 0 0 0 0 0 0 0 0 0 0 0 0 0 0 0 0 0 0.01 0 0 0 0.01 0 0 0 0.01 0 0 0 0 0 0 0 0.01 0 0 0 0 0 0 0 0 0 0 0 0 0 0 0 0 0 0 0 0 0 0 0 0 0 0 0 0.01 0 0 0 0.01 0 0 0 0c0.02,0.08 0.07,0.14 0.15,0.14 0.1,0 0.12,-0.16 0.26,-0.16 0.14,0 0.15,0.23 0.23,0.23l0.38 0 0.06 -0.08 0 -0 0 -0.45zm-0.7 0.91c-0.1,0 -0.12,-0.16 -0.26,-0.16 -0.14,0 -0.15,0.23 -0.23,0.23l-0.38 0 -0.06 -0.08 0 -0.45 0.06 -0.08 0.38 0c0.08,0 0.09,0.23 0.23,0.23 0.14,0 0.17,-0.17 0.26,-0.17 0.1,0 0.16,0.1 0.16,0.23 0,0.13 -0.05,0.23 -0.16,0.23zm0 0.92c-0.1,0 -0.12,-0.17 -0.26,-0.17 -0.14,0 -0.15,0.23 -0.23,0.23l-0.38 0 -0.06 -0.08 0 -0.45 0.06 -0.08 0.38 0c0.08,0 0.09,0.23 0.23,0.23 0.14,0 0.17,-0.17 0.26,-0.17 0.1,0 0.16,0.1 0.16,0.23 0,0.13 -0.05,0.24 -0.16,0.24zm-0.23 -0.45c0.1,0 0.12,-0.17 0.26,-0.17 0.14,0 0.15,0.23 0.23,0.23l0.38 0 0.06 -0.08 0 -0.45 -0.06 -0.08 -0.38 0c-0.08,0 -0.09,0.23 -0.23,0.23 -0.14,0 -0.17,-0.17 -0.26,-0.17 -0.1,0 -0.16,0.1 -0.16,0.23 -0,0.13 0.05,0.24 0.16,0.24zm0.23 1.37c-0.1,0 -0.12,-0.17 -0.26,-0.17 -0.14,0 -0.15,0.23 -0.23,0.23l-0.38 0 -0.06 -0.08 0 -0.45 0.06 -0.08 0.38 0c0.08,0 0.09,0.23 0.23,0.23 0.14,0 0.17,-0.16 0.26,-0.16 0.1,0 0.16,0.1 0.16,0.23 0,0.14 -0.05,0.24 -0.16,0.24zm-0.23 -0.45c0.1,0 0.12,-0.16 0.26,-0.16 0.14,0 0.15,0.23 0.23,0.23l0.38 0 0.06 -0.08 0 -0.45 -0.06 -0.08 -0.38 0c-0.08,0 -0.09,0.23 -0.23,0.23 -0.14,0 -0.17,-0.17 -0.26,-0.17 -0.1,0 -0.16,0.1 -0.16,0.23 -0,0.14 0.05,0.24 0.16,0.24zm0.23 1.37c-0.1,0 -0.12,-0.16 -0.26,-0.16 -0.14,0 -0.15,0.23 -0.23,0.23l-0.38 0 -0.06 -0.08 0 -0.45 0.06 -0.08 0.38 0c0.08,0 0.09,0.23 0.23,0.23 0.14,0 0.17,-0.16 0.26,-0.16 0.1,0 0.16,0.1 0.16,0.23 0,0.13 -0.05,0.24 -0.16,0.24zm-0.23 -0.45c0.1,0 0.12,-0.16 0.26,-0.16 0.14,0 0.15,0.23 0.23,0.23l0.38 0 0.06 -0.08 0 -0.45 -0.06 -0.08 -0.38 0c-0.08,0 -0.09,0.23 -0.23,0.23 -0.14,0 -0.17,-0.17 -0.26,-0.17 -0.1,0 -0.16,0.1 -0.16,0.23 -0,0.13 0.05,0.24 0.16,0.24zm0.23 1.37c-0.1,0 -0.12,-0.17 -0.26,-0.17 -0.14,0 -0.15,0.23 -0.23,0.23l-0.38 0 -0.06 -0.08 0 -0.45 0.06 -0.08 0.38 0c0.08,0 0.09,0.23 0.23,0.23 0.14,0 0.17,-0.17 0.26,-0.17 0.1,0 0.16,0.1 0.16,0.23 0,0.13 -0.05,0.24 -0.16,0.24zm0.7 0.01l0 -0 -0.06 -0.08 -0.38 0c-0.08,0 -0.09,0.23 -0.23,0.23 -0.14,0 -0.17,-0.17 -0.26,-0.17 -0.09,0 -0.14,0.07 -0.16,0.17l-0 0 0 0.01 -0 0 0 0 -0 0 0 0 0 0 0 0 -0 0.01 0 0 0 0 0 0 0 0 0 0 -0 0.01 0 0 0 0 0 0 0 0 0 0 0 0 0 0 0 0 0 0 0 0.01 0 0 0 0.01 0 0 0 0.01 0 0 0 0 0 0 0 0.01 0 0 0 0 0 0 0 0 0 0 0 0 0 0 0 0 0 0 0 0 0 0 0 0 0 0 0 0.01 0 0 0 0.01 0 0 0 0c0.02,0.08 0.07,0.14 0.15,0.14 0.1,0 0.12,-0.16 0.26,-0.16 0.14,0 0.15,0.23 0.23,0.23l0.38 0 0.06 -0.08 0 -0 0 -0.45zm-0.7 0.91c-0.1,0 -0.12,-0.16 -0.26,-0.16 -0.14,0 -0.15,0.23 -0.23,0.23l-0.38 0 -0.06 -0.08 0 -0.45 0.06 -0.08 0.38 0c0.08,0 0.09,0.23 0.23,0.23 0.14,0 0.17,-0.17 0.26,-0.17 0.1,0 0.16,0.1 0.16,0.23 0,0.13 -0.05,0.23 -0.16,0.23zm0 0.92c-0.1,0 -0.12,-0.17 -0.26,-0.17 -0.14,0 -0.15,0.23 -0.23,0.23l-0.38 0 -0.06 -0.08 0 -0.45 0.06 -0.08 0.38 0c0.08,0 0.09,0.23 0.23,0.23 0.14,0 0.17,-0.17 0.26,-0.17 0.1,0 0.16,0.1 0.16,0.23 0,0.13 -0.05,0.24 -0.16,0.24zm-0.23 -0.45c0.1,0 0.12,-0.17 0.26,-0.17 0.14,0 0.15,0.23 0.23,0.23l0.38 0 0.06 -0.08 0 -0.45 -0.06 -0.08 -0.38 0c-0.08,0 -0.09,0.23 -0.23,0.23 -0.14,0 -0.17,-0.17 -0.26,-0.17 -0.1,0 -0.16,0.1 -0.16,0.23 -0,0.13 0.05,0.24 0.16,0.24zm0 0.91c0.1,0 0.12,-0.16 0.26,-0.16 0.14,0 0.15,0.23 0.23,0.23l0.38 0 0.06 -0.08 0 -0.45 -0.06 -0.08 -0.38 0c-0.08,0 -0.09,0.23 -0.23,0.23 -0.14,0 -0.17,-0.17 -0.26,-0.17 -0.1,0 -0.16,0.1 -0.16,0.23 -0,0.14 0.05,0.24 0.16,0.24zm0 4.57c0.1,0 0.12,-0.16 0.26,-0.16 0.14,0 0.15,0.23 0.23,0.23l0.38 0 0.06 -0.08 0 -0.45 -0.06 -0.08 -0.38 0c-0.08,0 -0.09,0.23 -0.23,0.23 -0.14,0 -0.17,-0.17 -0.26,-0.17 -0.1,0 -0.16,0.1 -0.16,0.23 -0,0.13 0.05,0.24 0.16,0.24zm0.23 -4.12c-0.1,0 -0.12,-0.17 -0.26,-0.17 -0.14,0 -0.15,0.23 -0.23,0.23l-0.38 0 -0.06 -0.08 0 -0.45 0.06 -0.08 0.38 0c0.08,0 0.09,0.23 0.23,0.23 0.14,0 0.17,-0.17 0.26,-0.17 0.1,0 0.16,0.1 0.16,0.23 0,0.13 -0.05,0.24 -0.16,0.24zm0.7 0.01l0 -0 -0.06 -0.08 -0.38 0c-0.08,0 -0.09,0.23 -0.23,0.23 -0.14,0 -0.17,-0.17 -0.26,-0.17 -0.09,0 -0.14,0.07 -0.16,0.17l-0 0 0 0.01 -0 0 0 0 -0 0 0 0 0 0 0 0 -0 0.01 0 0 0 0 0 0 0 0 0 0 -0 0.01 0 0 0 0 0 0 0 0 0 0 0 0 0 0 0 0 0 0 0 0.01 0 0 0 0.01 0 0 0 0.01 0 0 0 0 0 0 0 0.01 0 0 0 0 0 0 0 0 0 0 0 0 0 0 0 0 0 0 0 0 0 0 0 0 0 0 0 0.01 0 0 0 0.01 0 0 0 0c0.02,0.08 0.07,0.14 0.15,0.14 0.1,0 0.12,-0.16 0.26,-0.16 0.14,0 0.15,0.23 0.23,0.23l0.38 0 0.06 -0.08 0 -0 0 -0.45zm-0.7 0.91c-0.1,0 -0.12,-0.16 -0.26,-0.16 -0.14,0 -0.15,0.23 -0.23,0.23l-0.38 0 -0.06 -0.08 0 -0.45 0.06 -0.08 0.38 0c0.08,0 0.09,0.23 0.23,0.23 0.14,0 0.17,-0.17 0.26,-0.17 0.1,0 0.16,0.1 0.16,0.23 0,0.13 -0.05,0.23 -0.16,0.23zm0 0.92c-0.1,0 -0.12,-0.17 -0.26,-0.17 -0.14,0 -0.15,0.23 -0.23,0.23l-0.38 0 -0.06 -0.08 0 -0.45 0.06 -0.08 0.38 0c0.08,0 0.09,0.23 0.23,0.23 0.14,0 0.17,-0.17 0.26,-0.17 0.1,0 0.16,0.1 0.16,0.23 0,0.13 -0.05,0.24 -0.16,0.24zm-0.23 -0.45c0.1,0 0.12,-0.17 0.26,-0.17 0.14,0 0.15,0.23 0.23,0.23l0.38 0 0.06 -0.08 0 -0.45 -0.06 -0.08 -0.38 0c-0.08,0 -0.09,0.23 -0.23,0.23 -0.14,0 -0.17,-0.17 -0.26,-0.17 -0.1,0 -0.16,0.1 -0.16,0.23 -0,0.13 0.05,0.24 0.16,0.24zm0.23 1.37c-0.1,0 -0.12,-0.17 -0.26,-0.17 -0.14,0 -0.15,0.23 -0.23,0.23l-0.38 0 -0.06 -0.08 0 -0.45 0.06 -0.08 0.38 0c0.08,0 0.09,0.23 0.23,0.23 0.14,0 0.17,-0.16 0.26,-0.16 0.1,0 0.16,0.1 0.16,0.23 0,0.14 -0.05,0.24 -0.16,0.24zm-0.23 -0.45c0.1,0 0.12,-0.16 0.26,-0.16 0.14,0 0.15,0.23 0.23,0.23l0.38 0 0.06 -0.08 0 -0.45 -0.06 -0.08 -0.38 0c-0.08,0 -0.09,0.23 -0.23,0.23 -0.14,0 -0.17,-0.17 -0.26,-0.17 -0.1,0 -0.16,0.1 -0.16,0.23 -0,0.14 0.05,0.24 0.16,0.24zm0.23 1.37c-0.1,0 -0.12,-0.16 -0.26,-0.16 -0.14,0 -0.15,0.23 -0.23,0.23l-0.38 0 -0.06 -0.08 0 -0.45 0.06 -0.08 0.38 0c0.08,0 0.09,0.23 0.23,0.23 0.14,0 0.17,-0.16 0.26,-0.16 0.1,0 0.16,0.1 0.16,0.23 0,0.13 -0.05,0.24 -0.16,0.24zm-0.23 -0.45c0.1,0 0.12,-0.16 0.26,-0.16 0.14,0 0.15,0.23 0.23,0.23l0.38 0 0.06 -0.08 0 -0.45 -0.06 -0.08 -0.38 0c-0.08,0 -0.09,0.23 -0.23,0.23 -0.14,0 -0.17,-0.17 -0.26,-0.17 -0.1,0 -0.16,0.1 -0.16,0.23 -0,0.13 0.05,0.24 0.16,0.24zm0 5.49c0.1,0 0.12,-0.16 0.26,-0.16 0.14,0 0.15,0.23 0.23,0.23l0.38 0 0.06 -0.08 0 -0.45 -0.06 -0.08 -0.38 0c-0.08,0 -0.09,0.23 -0.23,0.23 -0.14,0 -0.17,-0.17 -0.26,-0.17 -0.1,0 -0.16,0.1 -0.16,0.23 -0,0.13 0.05,0.24 0.16,0.24zm0.23 -4.12c-0.1,0 -0.12,-0.17 -0.26,-0.17 -0.14,0 -0.15,0.23 -0.23,0.23l-0.38 0 -0.06 -0.08 0 -0.45 0.06 -0.08 0.38 0c0.08,0 0.09,0.23 0.23,0.23 0.14,0 0.17,-0.17 0.26,-0.17 0.1,0 0.16,0.1 0.16,0.23 0,0.13 -0.05,0.24 -0.16,0.24zm0.7 0.01l0 -0 -0.06 -0.08 -0.38 0c-0.08,0 -0.09,0.23 -0.23,0.23 -0.14,0 -0.17,-0.17 -0.26,-0.17 -0.09,0 -0.14,0.07 -0.16,0.17l-0 0 0 0.01 -0 0 0 0 -0 0 0 0 0 0 0 0 -0 0.01 0 0 0 0 0 0 0 0 0 0 -0 0.01 0 0 0 0 0 0 0 0 0 0 0 0 0 0 0 0 0 0 0 0.01 0 0 0 0.01 0 0 0 0.01 0 0 0 0 0 0 0 0.01 0 0 0 0 0 0 0 0 0 0 0 0 0 0 0 0 0 0 0 0 0 0 0 0 0 0 0 0.01 0 0 0 0.01 0 0 0 0c0.02,0.08 0.07,0.14 0.15,0.14 0.1,0 0.12,-0.16 0.26,-0.16 0.14,0 0.15,0.23 0.23,0.23l0.38 0 0.06 -0.08 0 -0 0 -0.45zm-1.63 -28.61l0.65 0 0 0.3 -0.65 0 0 -0.3zm0.98 0l0.65 0 0 0.3 -0.65 0 0 -0.3zm-0.82 33.4l0.43 0 0.05 0.05 0 0.22 0.12 0 0.05 0.05 0 0.66 -0.05 0.05 -0.6 0 -0.05 -0.05 0 -0.26 0 -0.41 0 -0.27 0.05 -0.05zm0.74 0.14l0.56 0 0.05 0.05 0 0.79 -0.05 0.05 -0.56 0 -0.05 -0.05 0 -0.79 0.05 -0.05zm0.03 -4.03c-0.1,0 -0.12,-0.16 -0.26,-0.16 -0.14,0 -0.15,0.23 -0.23,0.23l-0.38 0 -0.06 -0.08 0 -0.45 0.06 -0.08 0.38 0c0.08,0 0.09,0.23 0.23,0.23 0.14,0 0.17,-0.17 0.26,-0.17 0.1,0 0.16,0.1 0.16,0.23 0,0.13 -0.05,0.23 -0.16,0.23zm0 0.92c-0.1,0 -0.12,-0.17 -0.26,-0.17 -0.14,0 -0.15,0.23 -0.23,0.23l-0.38 0 -0.06 -0.08 0 -0.45 0.06 -0.08 0.38 0c0.08,0 0.09,0.23 0.23,0.23 0.14,0 0.17,-0.17 0.26,-0.17 0.1,0 0.16,0.1 0.16,0.23 0,0.13 -0.05,0.24 -0.16,0.24zm-0.23 -0.45c0.1,0 0.12,-0.17 0.26,-0.17 0.14,0 0.15,0.23 0.23,0.23l0.38 0 0.06 -0.08 0 -0.45 -0.06 -0.08 -0.38 0c-0.08,0 -0.09,0.23 -0.23,0.23 -0.14,0 -0.17,-0.17 -0.26,-0.17 -0.1,0 -0.16,0.1 -0.16,0.23 -0,0.13 0.05,0.24 0.16,0.24zm0.23 1.37c-0.1,0 -0.12,-0.17 -0.26,-0.17 -0.14,0 -0.15,0.23 -0.23,0.23l-0.38 0 -0.06 -0.08 0 -0.45 0.06 -0.08 0.38 0c0.08,0 0.09,0.23 0.23,0.23 0.14,0 0.17,-0.16 0.26,-0.16 0.1,0 0.16,0.1 0.16,0.23 0,0.14 -0.05,0.24 -0.16,0.24zm-0.23 -0.45c0.1,0 0.12,-0.16 0.26,-0.16 0.14,0 0.15,0.23 0.23,0.23l0.38 0 0.06 -0.08 0 -0.45 -0.06 -0.08 -0.38 0c-0.08,0 -0.09,0.23 -0.23,0.23 -0.14,0 -0.17,-0.17 -0.26,-0.17 -0.1,0 -0.16,0.1 -0.16,0.23 -0,0.14 0.05,0.24 0.16,0.24zm0.23 1.37c-0.1,0 -0.12,-0.16 -0.26,-0.16 -0.14,0 -0.15,0.23 -0.23,0.23l-0.38 0 -0.06 -0.08 0 -0.45 0.06 -0.08 0.38 0c0.08,0 0.09,0.23 0.23,0.23 0.14,0 0.17,-0.16 0.26,-0.16 0.1,0 0.16,0.1 0.16,0.23 0,0.13 -0.05,0.24 -0.16,0.24zm-0.23 -0.45c0.1,0 0.12,-0.16 0.26,-0.16 0.14,0 0.15,0.23 0.23,0.23l0.38 0 0.06 -0.08 0 -0.45 -0.06 -0.08 -0.38 0c-0.08,0 -0.09,0.23 -0.23,0.23 -0.14,0 -0.17,-0.17 -0.26,-0.17 -0.1,0 -0.16,0.1 -0.16,0.23 -0,0.13 0.05,0.24 0.16,0.24z"/>
 </g>
</svg>
