<?xml version="1.0" encoding="UTF-8"?>
<!DOCTYPE svg PUBLIC "-//W3C//DTD SVG 1.1//EN" "http://www.w3.org/Graphics/SVG/1.1/DTD/svg11.dtd">
<!-- Creator: CorelDRAW 2021 (64-Bit) -->
<svg xmlns="http://www.w3.org/2000/svg" xml:space="preserve" width="4.9524mm" height="4.9524mm" version="1.1" style="shape-rendering:geometricPrecision; text-rendering:geometricPrecision; image-rendering:optimizeQuality; fill-rule:evenodd; clip-rule:evenodd"
viewBox="0 0 38.12 38.12"
 xmlns:xlink="http://www.w3.org/1999/xlink"
 xmlns:xodm="http://www.corel.com/coreldraw/odm/2003">
 <defs>
  <style type="text/css">
   <![CDATA[
    .fil0 {fill:#FEFEFE}
    .fil1 {fill:#2B2A29}
   ]]>
  </style>
 </defs>
 <g id="Katman_x0020_1">
  <metadata id="CorelCorpID_0Corel-Layer"/>
  <rect class="fil0" x="-0" y="0" width="38.12" height="38.12" rx="3.26" ry="3.26"/>
  <path class="fil1" d="M14.42 23.6c0,-4.42 9.29,-4.42 9.29,0 0,1.43 -0.59,1.49 -1.07,2.52 -0.61,1.34 -0.5,2.95 -0.5,4.42l-6.16 0c0,-1.47 0.12,-3.08 -0.5,-4.42 -0.48,-1.03 -1.07,-1.09 -1.07,-2.52zm7.67 -5.46c0.34,0.09 0.59,-0.45 1.06,-0.31 0.46,0.13 0.28,0.94 0.57,1.02l1.29 0.36 0.28 -0.2 0.43 -1.54 -0.13 -0.32 -1.29 -0.36c-0.28,-0.08 -0.55,0.71 -1.01,0.58 -0.48,-0.13 -0.41,-0.73 -0.74,-0.83 -0.36,-0.1 -0.65,0.19 -0.78,0.64 -0.14,0.46 -0.05,0.86 0.33,0.96zm-6.06 0c-0.34,0.09 -0.59,-0.45 -1.06,-0.31 -0.46,0.13 -0.28,0.94 -0.57,1.02l-1.29 0.36 -0.28 -0.2 -0.43 -1.54 0.13 -0.32 1.29 -0.36c0.28,-0.08 0.55,0.71 1.01,0.58 0.48,-0.13 0.41,-0.73 0.75,-0.83 0.36,-0.1 0.65,0.19 0.78,0.64 0.14,0.46 0.06,0.86 -0.33,0.96zm0.78 2.32c-0.34,0.1 -0.59,-0.45 -1.06,-0.31 -0.46,0.13 -0.28,0.94 -0.56,1.02l-1.29 0.36 -0.28 -0.2 -0.43 -1.54 0.13 -0.32 1.29 -0.36c0.28,-0.08 0.55,0.71 1.01,0.58 0.48,-0.13 0.41,-0.73 0.74,-0.83 0.36,-0.1 0.65,0.19 0.78,0.64 0.14,0.46 0.06,0.86 -0.33,0.96zm-4.99 -12.89l-2.74 0.77 0.44 1.55 2.74 -0.77 -0.44 -1.55zm1.61 3.79c-0.34,0.09 -0.58,-0.45 -1.06,-0.31 -0.46,0.13 -0.28,0.94 -0.56,1.02l-1.29 0.36 -0.28 -0.2 -0.43 -1.54 0.13 -0.32 1.29 -0.36c0.28,-0.08 0.55,0.71 1.01,0.58 0.48,-0.13 0.41,-0.73 0.75,-0.83 0.36,-0.1 0.65,0.19 0.78,0.64 0.14,0.46 0.05,0.86 -0.33,0.96zm0.94 2.24c-0.34,0.09 -0.59,-0.45 -1.06,-0.31 -0.46,0.13 -0.28,0.94 -0.57,1.02l-1.29 0.36 -0.28 -0.2 -0.43 -1.54 0.13 -0.32 1.29 -0.36c0.28,-0.08 0.55,0.71 1.01,0.58 0.48,-0.13 0.41,-0.73 0.75,-0.83 0.36,-0.1 0.65,0.19 0.78,0.64 0.14,0.46 0.06,0.86 -0.33,0.96zm0.86 2.3c-0.34,0.09 -0.59,-0.45 -1.06,-0.31 -0.46,0.13 -0.28,0.94 -0.57,1.02l-1.29 0.36 -0.28 -0.21 -0.43 -1.54 0.13 -0.32 1.29 -0.36c0.28,-0.08 0.55,0.71 1.01,0.58 0.48,-0.13 0.41,-0.73 0.75,-0.83 0.36,-0.1 0.65,0.19 0.78,0.64 0.14,0.46 0.06,0.86 -0.33,0.96zm6.08 4.56c0.34,0.1 0.59,-0.45 1.06,-0.31 0.46,0.13 0.28,0.94 0.56,1.02l1.29 0.36 0.28 -0.2 0.43 -1.54 -0.13 -0.32 -1.29 -0.36c-0.28,-0.08 -0.55,0.71 -1.01,0.58 -0.48,-0.13 -0.41,-0.73 -0.74,-0.83 -0.36,-0.1 -0.65,0.19 -0.78,0.64 -0.14,0.46 -0.06,0.86 0.33,0.96zm4.99 -12.89l2.74 0.77 -0.44 1.55 -2.74 -0.77 0.44 -1.55zm-1.61 3.79c0.34,0.09 0.58,-0.45 1.06,-0.31 0.46,0.13 0.28,0.94 0.56,1.02l1.29 0.36 0.28 -0.2 0.43 -1.54 -0.13 -0.32 -1.29 -0.36c-0.28,-0.08 -0.55,0.71 -1.01,0.58 -0.48,-0.13 -0.41,-0.73 -0.75,-0.83 -0.36,-0.1 -0.65,0.19 -0.78,0.64 -0.14,0.46 -0.06,0.86 0.33,0.96zm-0.94 2.24c0.34,0.09 0.59,-0.45 1.06,-0.31 0.46,0.13 0.28,0.94 0.57,1.02l1.29 0.36 0.28 -0.2 0.43 -1.54 -0.13 -0.32 -1.29 -0.36c-0.28,-0.08 -0.55,0.71 -1.01,0.58 -0.48,-0.13 -0.41,-0.73 -0.74,-0.83 -0.36,-0.1 -0.65,0.19 -0.78,0.64 -0.14,0.46 -0.05,0.86 0.33,0.96zm-0.86 2.3c0.34,0.09 0.59,-0.45 1.06,-0.31 0.46,0.13 0.28,0.94 0.57,1.02l1.29 0.36 0.28 -0.21 0.43 -1.54 -0.13 -0.32 -1.29 -0.36c-0.28,-0.08 -0.55,0.71 -1.01,0.58 -0.48,-0.13 -0.41,-0.73 -0.75,-0.83 -0.36,-0.1 -0.65,0.19 -0.78,0.64 -0.14,0.46 -0.06,0.86 0.33,0.96zm-5 12.57l0 -5.47c0,-0.64 0.53,-1.17 1.17,-1.17 0.64,0 1.17,0.53 1.17,1.17l0 5.47c0,0.29 -0.24,0.54 -0.54,0.54l-1.26 0c-0.29,0 -0.54,-0.24 -0.54,-0.54zm-0.53 0.54l0 -6.01c0,-0.94 0.77,-1.7 1.7,-1.7 0.94,0 1.7,0.77 1.7,1.7l0 6.01c0,0.29 -0.24,0.54 -0.54,0.54l-2.34 0c-0.29,0 -0.53,-0.24 -0.53,-0.54z"/>
 </g>
</svg>
