<?xml version="1.0" encoding="UTF-8"?>
<!DOCTYPE svg PUBLIC "-//W3C//DTD SVG 1.1//EN" "http://www.w3.org/Graphics/SVG/1.1/DTD/svg11.dtd">
<!-- Creator: CorelDRAW 2021 (64-Bit) -->
<svg xmlns="http://www.w3.org/2000/svg" xml:space="preserve" width="4.9524mm" height="4.9524mm" version="1.1" style="shape-rendering:geometricPrecision; text-rendering:geometricPrecision; image-rendering:optimizeQuality; fill-rule:evenodd; clip-rule:evenodd"
viewBox="0 0 32.84 32.84"
 xmlns:xlink="http://www.w3.org/1999/xlink"
 xmlns:xodm="http://www.corel.com/coreldraw/odm/2003">
 <defs>
  <style type="text/css">
   <![CDATA[
    .fil0 {fill:#434242}
    .fil1 {fill:#2B2A29}
   ]]>
  </style>
 </defs>
 <g id="Katman_x0020_1">
  <metadata id="CorelCorpID_0Corel-Layer"/>
  <rect class="fil0" x="-0" y="0" width="32.84" height="32.84" rx="2.81" ry="2.81"/>
  <path class="fil1" d="M16.14 19.31c0.24,0 0.3,-0.4 0.64,-0.4 0.33,0 0.36,0.56 0.55,0.56l0.91 0 0.15 -0.19 0 -1.08 -0.15 -0.18 -0.91 0c-0.2,0 -0.23,0.56 -0.55,0.56 -0.34,0 -0.4,-0.4 -0.64,-0.4 -0.25,0 -0.39,0.24 -0.39,0.56 -0.01,0.32 0.12,0.57 0.39,0.57zm-3.92 -12.53l8.39 0 0 19.3 -2.55 0c0.03,-0.04 0.04,-0.09 0.04,-0.14l0 -1.98c0,-0.14 -0.11,-0.25 -0.25,-0.25l-2.89 0c-0.14,0 -0.25,0.11 -0.25,0.25l0 1.98c0,0.05 0.02,0.1 0.04,0.14l-2.55 0 0 -19.3zm4.6 0.35l1.57 0 0 0.73 -1.57 0 0 -0.73zm-0.12 2.21c-0.24,0 -0.3,-0.4 -0.64,-0.4 -0.33,0 -0.36,0.56 -0.55,0.56l-0.91 0 -0.14 -0.19 0 -1.08 0.14 -0.19 0.91 0c0.2,0 0.23,0.56 0.55,0.56 0.34,0 0.4,-0.4 0.64,-0.4 0.25,0 0.39,0.24 0.39,0.56 0.01,0.32 -0.12,0.57 -0.39,0.57zm1.69 0.02l0 -0 -0.15 -0.19 -0.91 0c-0.2,0 -0.23,0.56 -0.55,0.56 -0.34,0 -0.4,-0.4 -0.64,-0.4 -0.21,0 -0.34,0.17 -0.38,0.41l-0 0.01 -0 0.02 -0 0.01 0 0 -0 0.01 0 0 -0 0.01 0 0 -0 0.01 0 0 -0 0.01 0 0 -0 0.01 0 0 -0 0.01 0 0 0 0.01 0 0 0 0.01 0 0 0 0.01 0 0 0 0.01 0 0 0 0.01 0 0 0 0.01 0 0 0 0.01 0 0 0 0.01 0 0 0 0.01 0 0 0 0.01 0 0 0 0.01 0 0 0 0.01 0 0 0 0.01 0 0 0 0.01 0 0 0 0.01 0 0 0 0.01 0 0 0 0.01 0 0.01 0 0c0.05,0.2 0.17,0.34 0.37,0.34 0.24,0 0.3,-0.4 0.64,-0.4 0.33,0 0.36,0.56 0.55,0.56l0.91 0 0.15 -0.19 0 -0 0 -1.08zm-3.94 -2.23l1.57 0 0 0.73 -1.57 0 0 -0.73zm0.4 13.82l1.04 0 0.12 0.11 0 0.54 0.29 0 0.12 0.11 0 1.6 -0.12 0.11 -1.45 0 -0.12 -0.11 0 -0.62 0 -0.98 0 -0.65 0.12 -0.11zm1.79 0.34l1.36 0 0.12 0.11 0 1.91 -0.12 0.11 -1.36 0 -0.12 -0.11 0 -1.91 0.12 -0.11zm0.06 -9.74c-0.24,0 -0.3,-0.4 -0.64,-0.4 -0.33,0 -0.36,0.56 -0.55,0.56l-0.91 0 -0.14 -0.19 0 -1.08 0.14 -0.19 0.91 0c0.2,0 0.23,0.56 0.55,0.56 0.34,0 0.4,-0.4 0.64,-0.4 0.25,0 0.39,0.24 0.39,0.56 0.01,0.32 -0.12,0.57 -0.39,0.57zm0 2.21c-0.24,0 -0.3,-0.4 -0.64,-0.4 -0.33,0 -0.36,0.56 -0.55,0.56l-0.91 0 -0.14 -0.19 0 -1.08 0.14 -0.18 0.91 0c0.2,0 0.23,0.56 0.55,0.56 0.34,0 0.4,-0.4 0.64,-0.4 0.25,0 0.39,0.24 0.39,0.56 0.01,0.32 -0.12,0.57 -0.39,0.57zm-0.55 -1.09c0.24,0 0.3,-0.4 0.64,-0.4 0.33,0 0.36,0.56 0.55,0.56l0.91 0 0.15 -0.18 0 -1.09 -0.15 -0.19 -0.91 0c-0.2,0 -0.23,0.56 -0.55,0.56 -0.34,0 -0.4,-0.4 -0.64,-0.4 -0.25,0 -0.39,0.24 -0.39,0.56 -0.01,0.32 0.12,0.57 0.39,0.57zm0.55 3.3c-0.24,0 -0.3,-0.4 -0.64,-0.4 -0.33,0 -0.36,0.56 -0.55,0.56l-0.91 0 -0.14 -0.18 0 -1.08 0.14 -0.18 0.91 0c0.2,0 0.23,0.56 0.55,0.56 0.34,0 0.4,-0.4 0.64,-0.4 0.25,0 0.39,0.24 0.39,0.56 0.01,0.32 -0.12,0.57 -0.39,0.57zm-0.55 -1.09c0.24,0 0.3,-0.4 0.64,-0.4 0.33,0 0.36,0.56 0.55,0.56l0.91 0 0.15 -0.18 0 -1.08 -0.15 -0.19 -0.91 0c-0.2,0 -0.23,0.56 -0.55,0.56 -0.34,0 -0.4,-0.4 -0.64,-0.4 -0.25,0 -0.39,0.24 -0.39,0.56 -0.01,0.33 0.12,0.57 0.39,0.57zm0.55 3.3c-0.24,0 -0.3,-0.4 -0.64,-0.4 -0.33,0 -0.36,0.56 -0.55,0.56l-0.91 0 -0.14 -0.18 0 -1.09 0.14 -0.18 0.91 0c0.2,0 0.23,0.56 0.55,0.56 0.34,0 0.4,-0.4 0.64,-0.4 0.25,0 0.39,0.24 0.39,0.56 0.01,0.33 -0.12,0.57 -0.39,0.57zm-0.55 -1.09c0.24,0 0.3,-0.4 0.64,-0.4 0.33,0 0.36,0.56 0.55,0.56l0.91 0 0.15 -0.18 0 -1.08 -0.15 -0.18 -0.91 0c-0.2,0 -0.23,0.56 -0.55,0.56 -0.34,0 -0.4,-0.4 -0.64,-0.4 -0.25,0 -0.39,0.24 -0.39,0.56 -0.01,0.32 0.12,0.57 0.39,0.57zm0.55 3.3c-0.24,0 -0.3,-0.4 -0.64,-0.4 -0.33,0 -0.36,0.56 -0.55,0.56l-0.91 0 -0.14 -0.19 0 -1.08 0.14 -0.19 0.91 0c0.2,0 0.23,0.56 0.55,0.56 0.34,0 0.4,-0.4 0.64,-0.4 0.25,0 0.39,0.24 0.39,0.56 0.01,0.32 -0.12,0.57 -0.39,0.57z"/>
 </g>
</svg>
