<?xml version="1.0" encoding="UTF-8"?>
<!DOCTYPE svg PUBLIC "-//W3C//DTD SVG 1.1//EN" "http://www.w3.org/Graphics/SVG/1.1/DTD/svg11.dtd">
<!-- Creator: CorelDRAW 2021 (64-Bit) -->
<svg xmlns="http://www.w3.org/2000/svg" xml:space="preserve" width="162.56mm" height="91.4384mm" version="1.1" style="shape-rendering:geometricPrecision; text-rendering:geometricPrecision; image-rendering:optimizeQuality; fill-rule:evenodd; clip-rule:evenodd"
viewBox="0 0 16256 9143.84"
 xmlns:xlink="http://www.w3.org/1999/xlink"
 xmlns:xodm="http://www.corel.com/coreldraw/odm/2003">
 <defs>
  <style type="text/css">
   <![CDATA[
    .fil1 {fill:#2B2A29}
    .fil0 {fill:#E31E24}
    .fil2 {fill:#FEFEFE;fill-rule:nonzero}
    .fil3 {fill:#2B2A29;fill-rule:nonzero}
    .fil4 {fill:#E4272C;fill-rule:nonzero}
   ]]>
  </style>
 </defs>
 <g id="Katman_x0020_1">
  <metadata id="CorelCorpID_0Corel-Layer"/>
  <polygon class="fil0" points="-0,9143.84 4160.59,9143.84 11682.05,0 -0,0 "/>
  <polygon class="fil1" points="16256,0 12136.32,0 10021.51,2563.56 6721.9,6550.81 6687.4,6583.54 4576.08,9143.83 16256,9143.84 "/>
  <path class="fil2" d="M10566.98 2563.56l-1539.03 0 -907.86 1103.76 -310.79 -386.43 -1533.72 0 334.78 412.94 1487.91 0 -254.86 309.87 -981.79 0 335.36 413.57 306.27 0 -1781.78 2166.27 1512.36 0 869.52 -1048.74 266.23 328.38 1517.61 0 -332.33 -413.17 -1381.18 0 256.91 -309.87 874.9 0 -332.56 -413.17 -199.73 0 1793.78 -2163.41zm-1611.07 4022.49l1512.98 0 -332.38 -413.11 -1515.79 0 335.19 413.11zm-1728.48 -4028.26l-1538.41 0 334.79 412.94 1535.77 0 -332.15 -412.94z"/>
  <path class="fil3" d="M8279.24 4373.37l-114.38 139.4 -26.15 -21.46 114.38 -139.4 26.15 21.46zm430.05 -666.12l-30.05 -24.66c-17,-13.94 -36.53,-7.44 -58.62,19.48l-88.33 107.64 84.06 68.98 87.29 -106.38c22.78,-27.77 24.67,-49.45 5.65,-65.06zm53.31 -40.78c16.83,13.81 24.61,31.38 23.31,52.67 -1.28,21.31 -11.46,43.58 -30.49,66.76l-101.46 123.65 94.92 77.89 -41.47 50.53 -253.19 -207.77 140.83 -171.63c18.2,-22.18 37.12,-36.83 56.76,-43.96 21.3,-7.41 40.01,-4.8 56.11,7.82 17.29,13.61 35.5,28.3 54.68,44.04zm-100.2 426.35l-41.46 50.53 -253.2 -207.76 41.47 -50.53 253.19 207.76zm-304.12 -97.45c5.75,4.72 9.07,10.69 9.94,17.92l41.67 311.66 135.64 -165.29 37.06 30.41 -147.92 180.28c-8.06,9.82 -15.49,17.6 -22.33,23.33 -6.81,5.71 -14.34,9.09 -22.56,10.15 -8.2,1.05 -14.86,-0.53 -19.96,-4.71 -5.24,-4.3 -8.72,-12.09 -10.47,-23.46l-41.31 -305.38 -135.63 165.29 -37.06 -30.42 158.54 -193.21c20.01,-24.38 38.13,-29.91 54.39,-16.57z"/>
  <path class="fil3" d="M7730.76 5228.19l-51.58 62.85 -199.02 43.21c-6.69,1.59 -13.76,-0.7 -21.24,-6.83 -14.25,-11.69 -12.85,-27.94 4.19,-48.71l60.02 -74.17c20.1,-24.5 21.66,-43.71 4.7,-57.64l-29.28 -24.02c-17.81,-14.62 -38.1,-8.07 -60.84,19.64l-85.46 104.16 217.13 178.17 -41.38 50.44 -254.31 -208.68 138.92 -169.29c42.29,-51.54 81.5,-62.47 117.65,-32.8l44.05 36.14c15.77,12.95 23.03,30.07 21.74,51.35 -1.27,21.29 -10.85,42.82 -28.74,64.62l-47.62 58.04 211.07 -46.48zm106.74 -351.75l-134.97 164.48 43.05 35.32c19,15.59 40.55,8.67 64.68,-20.73l106.89 -130.26 37.17 30.5 -118.12 143.94c-20.39,24.84 -40.59,40.62 -60.62,47.38 -22.15,7.28 -42.04,3.68 -59.7,-10.81l-143.3 -117.59c-17.66,-14.48 -25.97,-32.63 -24.98,-54.43 0.99,-21.82 11.25,-44.62 30.8,-68.45l121.87 -148.51 37.17 30.5 -107.31 130.77c-23.85,29.07 -26.43,51.27 -7.78,66.57l43.54 35.73 134.97 -164.49 36.64 30.08z"/>
  <path class="fil3" d="M7599.23 5502.88l16.93 -20.63 -25.39 -4.88c-0.41,-0.06 -0.74,0.03 -0.97,0.31l-0.29 0.35c-0.24,0.3 -0.27,0.64 -0.12,1.03l9.84 23.82zm-16.95 -33.37c1.25,-1.53 2.6,-2.56 4.06,-3.1 1.48,-0.53 3.52,-0.55 6.16,-0.07l52.33 9.71c0.56,0.13 0.93,0.34 1.12,0.67 0.18,0.29 0.05,0.7 -0.33,1.17l-6.26 7.63c-0.56,0.68 -1.18,0.92 -1.9,0.73l-11.24 -2.08 -23.15 28.2 4.34 10.5c0.31,0.7 0.17,1.38 -0.35,2.01l-6.4 7.8c-0.43,0.53 -0.81,0.72 -1.14,0.62 -0.36,-0.12 -0.64,-0.44 -0.87,-0.97l-19.89 -49.25c-0.99,-2.49 -1.39,-4.46 -1.22,-5.93 0.17,-1.45 0.79,-2.83 1.83,-4.1l2.91 -3.54z"/>
  <path class="fil3" d="M7637.83 5401.81c0.72,-0.88 1.52,-0.96 2.4,-0.24l23.92 19.63c1.6,1.31 3.05,2.29 4.31,2.9 1.27,0.59 2.46,0.87 3.57,0.76 1.11,-0.09 2.21,-0.54 3.31,-1.34 1.11,-0.81 2.28,-2 3.56,-3.56l19.94 -24.3c0.73,-0.88 1.54,-0.96 2.41,-0.25l5.89 4.83c0.87,0.72 0.95,1.53 0.23,2.42l-20.23 24.66c-2.49,3.03 -4.9,5.39 -7.21,7.04 -2.3,1.66 -4.63,2.64 -6.99,2.95 -2.35,0.32 -4.79,-0.05 -7.31,-1.1 -2.55,-1.03 -5.23,-2.71 -8.12,-5.09l-24.82 -20.36c-0.88,-0.72 -0.95,-1.54 -0.19,-2.47l5.33 -6.48z"/>
  <path class="fil3" d="M7701.59 5324.1c0.72,-0.88 1.52,-0.96 2.4,-0.24l23.92 19.63c1.6,1.31 3.05,2.29 4.31,2.9 1.27,0.6 2.47,0.88 3.57,0.77 1.12,-0.09 2.21,-0.55 3.32,-1.36 1.1,-0.8 2.28,-1.99 3.56,-3.55l19.94 -24.31c0.72,-0.87 1.53,-0.95 2.4,-0.23l5.89 4.83c0.88,0.72 0.96,1.53 0.24,2.4l-20.23 24.66c-2.5,3.04 -4.91,5.4 -7.22,7.05 -2.29,1.66 -4.62,2.64 -6.98,2.96 -2.35,0.3 -4.8,-0.06 -7.32,-1.1 -2.54,-1.05 -5.23,-2.72 -8.12,-5.09l-24.82 -20.37c-0.88,-0.72 -0.93,-1.55 -0.18,-2.47l5.32 -6.48z"/>
  <path class="fil3" d="M7766.15 5245.43c0.71,-0.88 1.52,-0.96 2.4,-0.24l39.34 32.28c0.87,0.72 0.95,1.53 0.23,2.4l-5.32 6.49c-0.75,0.91 -1.58,1.02 -2.45,0.3l-39.34 -32.28c-0.88,-0.72 -0.94,-1.56 -0.19,-2.47l5.33 -6.48z"/>
  <path class="fil3" d="M7837.59 5212.4l16.93 -20.64 -25.38 -4.88c-0.42,-0.06 -0.74,0.03 -0.97,0.31l-0.29 0.35c-0.25,0.3 -0.27,0.64 -0.12,1.03l9.83 23.83zm-16.95 -33.38c1.25,-1.52 2.61,-2.56 4.07,-3.1 1.48,-0.53 3.53,-0.57 6.15,-0.07l52.35 9.7c0.55,0.14 0.92,0.35 1.1,0.68 0.18,0.29 0.07,0.69 -0.33,1.17l-6.26 7.63c-0.56,0.68 -1.17,0.92 -1.89,0.73l-11.24 -2.08 -23.15 28.2 4.35 10.49c0.29,0.71 0.16,1.39 -0.37,2.02l-6.4 7.8c-0.43,0.53 -0.8,0.73 -1.14,0.62 -0.35,-0.12 -0.64,-0.44 -0.87,-0.96l-19.88 -49.26c-0.99,-2.49 -1.4,-4.45 -1.23,-5.93 0.18,-1.45 0.8,-2.83 1.85,-4.11l2.89 -3.53z"/>
  <path class="fil3" d="M7880.57 5105.98c0.79,-0.96 1.49,-1.73 2.08,-2.3 0.6,-0.58 1.24,-1 1.91,-1.27 0.63,-0.25 1.38,-0.43 2.2,-0.48 0.82,-0.07 1.83,-0.09 3.05,-0.02l47.59 1.7c0.39,0.07 0.77,-0.07 1.06,-0.43l0.45 -0.55c0.26,-0.31 0.19,-0.65 -0.22,-0.98l-31.29 -25.68c-0.88,-0.72 -0.97,-1.51 -0.24,-2.4l5.17 -6.29c0.73,-0.89 1.52,-0.96 2.4,-0.24l34.41 28.24c2.44,2 3.74,3.79 3.87,5.38 0.12,1.58 -0.54,3.3 -2.05,5.14l-4.24 5.16c-0.75,0.93 -1.41,1.68 -2.02,2.21 -0.59,0.56 -1.18,0.98 -1.83,1.25 -0.64,0.28 -1.37,0.47 -2.19,0.57 -0.84,0.07 -1.92,0.09 -3.23,0.02l-47.59 -1.62c-0.5,-0.01 -0.85,0.16 -1.08,0.44l-0.44 0.54c-0.27,0.32 -0.2,0.63 0.21,0.96l31.3 25.69c0.88,0.72 0.96,1.53 0.24,2.4l-5.17 6.3c-0.76,0.92 -1.59,1.03 -2.46,0.31l-34.42 -28.24c-2.45,-2.01 -3.72,-3.8 -3.86,-5.38 -0.14,-1.6 0.54,-3.3 2.06,-5.15l4.33 -5.28z"/>
  <path class="fil3" d="M7980.58 4984.1c0.72,-0.87 1.52,-0.95 2.4,-0.23l5.86 4.81c0.93,0.76 1.02,1.57 0.3,2.45l-21.91 26.7c-1.28,1.56 -2.18,2.98 -2.79,4.21 -0.56,1.23 -0.79,2.41 -0.65,3.51 0.12,1.1 0.59,2.21 1.41,3.33 0.83,1.11 2.05,2.32 3.66,3.64l8.5 6.98c1.6,1.31 3.05,2.28 4.31,2.89 1.27,0.6 2.48,0.87 3.57,0.77 1.11,-0.08 2.21,-0.54 3.31,-1.34 1.11,-0.81 2.29,-2.01 3.57,-3.57l21.91 -26.7c0.72,-0.88 1.53,-0.95 2.4,-0.24l5.89 4.84c0.87,0.71 0.96,1.52 0.24,2.4l-22.21 27.06c-2.5,3.05 -4.9,5.4 -7.21,7.05 -2.3,1.66 -4.62,2.63 -6.98,2.95 -2.35,0.3 -4.8,-0.05 -7.32,-1.1 -2.54,-1.04 -5.23,-2.72 -8.12,-5.09l-10.31 -8.47c-2.87,-2.35 -5.05,-4.67 -6.55,-6.94 -1.49,-2.23 -2.32,-4.58 -2.49,-6.94 -0.15,-2.38 0.35,-4.85 1.51,-7.45 1.16,-2.6 2.99,-5.4 5.49,-8.45l22.21 -27.07z"/>
  <path class="fil3" d="M8047 4903.15c0.75,-0.91 1.57,-1.01 2.45,-0.29l5.7 4.68c0.87,0.72 0.94,1.54 0.19,2.45l-21.52 26.23c-1.28,1.56 -2.21,2.95 -2.8,4.19 -0.56,1.23 -0.81,2.41 -0.67,3.53 0.1,1.13 0.58,2.25 1.45,3.36 0.85,1.13 2.06,2.31 3.62,3.59l0.6 0.5 27.84 -33.92c0.71,-0.86 1.5,-0.96 2.38,-0.24l4.75 3.9c0.89,0.73 0.95,1.52 0.24,2.39l-27.84 33.92 1.03 0.84c1.55,1.27 2.97,2.24 4.23,2.85 1.25,0.62 2.45,0.89 3.58,0.77 1.12,-0.1 2.23,-0.56 3.32,-1.37 1.11,-0.81 2.28,-2 3.56,-3.55l21.52 -26.23c0.75,-0.92 1.57,-1.01 2.46,-0.28l5.7 4.67c0.87,0.72 0.94,1.54 0.19,2.46l-21.67 26.4c-2.5,3.05 -4.89,5.4 -7.2,7.04 -2.3,1.67 -4.64,2.65 -6.99,2.96 -2.36,0.31 -4.79,-0.05 -7.31,-1.1 -2.54,-1.04 -5.23,-2.72 -8.12,-5.09l-10.32 -8.47c-2.86,-2.35 -5.04,-4.67 -6.55,-6.94 -1.48,-2.24 -2.32,-4.57 -2.48,-6.94 -0.16,-2.37 0.35,-4.86 1.51,-7.45 1.15,-2.6 2.99,-5.41 5.49,-8.45l21.66 -26.41z"/>
  <path class="fil3" d="M8152.95 4826.02c1.55,1.27 2.97,2.23 4.24,2.84 1.25,0.61 2.46,0.87 3.57,0.77 1.11,-0.09 2.22,-0.54 3.31,-1.35 1.11,-0.81 2.3,-2 3.56,-3.54l14.64 -17.84c1.28,-1.56 2.2,-2.94 2.78,-4.19 0.58,-1.22 0.8,-2.4 0.67,-3.51 -0.11,-1.1 -0.61,-2.23 -1.45,-3.35 -0.85,-1.12 -2.05,-2.34 -3.6,-3.61l-9 -7.39c-1.57,-1.28 -2.98,-2.21 -4.25,-2.83 -1.28,-0.62 -2.47,-0.87 -3.58,-0.77 -1.12,0.08 -2.22,0.54 -3.31,1.34 -1.11,0.81 -2.28,1.99 -3.57,3.55l-14.63 17.83c-1.27,1.55 -2.2,2.95 -2.78,4.2 -0.58,1.22 -0.81,2.39 -0.67,3.5 0.11,1.11 0.59,2.23 1.45,3.36 0.86,1.13 2.05,2.32 3.62,3.61l9 7.38zm-4.02 -47.09c2.49,-3.03 4.89,-5.39 7.24,-7.03 2.33,-1.68 4.67,-2.67 7.03,-2.98 2.36,-0.31 4.8,0.08 7.28,1.11 2.5,1.04 5.18,2.75 8.05,5.1l10.31 8.47c2.9,2.37 5.09,4.66 6.61,6.93 1.53,2.25 2.38,4.56 2.54,6.94 0.15,2.38 -0.37,4.86 -1.57,7.46 -1.18,2.6 -3.03,5.42 -5.51,8.45l-15.23 18.55c-2.5,3.05 -4.89,5.39 -7.2,7.05 -2.3,1.66 -4.61,2.64 -6.97,2.96 -2.37,0.29 -4.82,-0.07 -7.33,-1.11 -2.53,-1.04 -5.23,-2.72 -8.12,-5.09l-10.32 -8.47c-2.87,-2.35 -5.04,-4.67 -6.54,-6.94 -1.49,-2.24 -2.33,-4.58 -2.49,-6.95 -0.15,-2.37 0.35,-4.85 1.52,-7.43 1.14,-2.61 2.98,-5.42 5.47,-8.46l15.23 -18.56z"/>
  <path class="fil3" d="M8228.89 4681.49c0.75,-0.92 1.57,-1.01 2.45,-0.29l5.7 4.68c0.87,0.71 0.94,1.54 0.19,2.45l-21.38 26.05c-1.27,1.55 -2.2,2.95 -2.79,4.19 -0.57,1.23 -0.8,2.4 -0.66,3.51 0.11,1.11 0.6,2.22 1.45,3.36 0.86,1.13 2.05,2.32 3.61,3.6l1.21 0.99 27.66 -33.72c0.72,-0.87 1.52,-0.97 2.41,-0.24l4.74 3.9c0.86,0.7 0.94,1.51 0.22,2.39l-27.66 33.71 15.6 12.8c0.87,0.72 0.95,1.53 0.22,2.42l-5.31 6.47c-0.76,0.93 -1.58,1.02 -2.46,0.3l-24.83 -20.38c-2.87,-2.35 -5.04,-4.67 -6.56,-6.93 -1.47,-2.25 -2.32,-4.58 -2.47,-6.95 -0.16,-2.37 0.35,-4.86 1.5,-7.45 1.16,-2.6 3,-5.41 5.49,-8.45l21.67 -26.41z"/>
  <path class="fil3" d="M8336.48 4550.37c0.75,-0.91 1.57,-1.01 2.45,-0.29l5.7 4.68c0.87,0.72 0.94,1.54 0.19,2.45l-21.52 26.23c-1.27,1.55 -2.21,2.95 -2.8,4.19 -0.56,1.23 -0.81,2.41 -0.67,3.54 0.09,1.12 0.58,2.24 1.44,3.35 0.87,1.13 2.07,2.3 3.64,3.58l0.6 0.5 27.83 -33.91c0.7,-0.86 1.5,-0.95 2.38,-0.24l4.74 3.9c0.89,0.73 0.95,1.53 0.25,2.39l-27.83 33.91 1.03 0.84c1.55,1.27 2.96,2.25 4.22,2.86 1.25,0.62 2.45,0.89 3.57,0.77 1.12,-0.1 2.25,-0.56 3.33,-1.37 1.11,-0.81 2.29,-2 3.56,-3.55l21.52 -26.23c0.75,-0.92 1.57,-1.01 2.46,-0.28l5.7 4.67c0.87,0.72 0.94,1.54 0.19,2.46l-21.67 26.41c-2.5,3.04 -4.88,5.37 -7.2,7.04 -2.3,1.66 -4.63,2.64 -7,2.96 -2.34,0.3 -4.78,-0.06 -7.3,-1.11 -2.54,-1.05 -5.23,-2.72 -8.12,-5.09l-10.32 -8.47c-2.86,-2.35 -5.04,-4.67 -6.55,-6.94 -1.48,-2.24 -2.32,-4.57 -2.49,-6.93 -0.14,-2.39 0.36,-4.86 1.51,-7.46 1.17,-2.61 3,-5.41 5.49,-8.45l21.67 -26.41z"/>
  <path class="fil3" d="M8406.65 4464.86c0.46,-0.55 0.91,-0.71 1.33,-0.45 0.43,0.25 0.67,0.63 0.73,1.15l3.51 33.71 36.03 -2.66c0.5,-0.09 0.92,0.09 1.26,0.46 0.33,0.37 0.26,0.84 -0.2,1.4l-6.75 8.23c-0.39,0.48 -0.76,0.79 -1.11,0.99 -0.33,0.18 -0.8,0.26 -1.32,0.24l-27.67 2.07 3.3 27.62c0.08,0.55 0.12,1.01 0,1.38 -0.09,0.35 -0.34,0.78 -0.77,1.3l-6.4 7.8c-0.43,0.52 -0.86,0.66 -1.29,0.41 -0.42,-0.26 -0.67,-0.66 -0.7,-1.15l-4.33 -36.59 -32.95 2.79c-0.49,0.01 -0.91,-0.15 -1.24,-0.53 -0.36,-0.33 -0.3,-0.79 0.16,-1.36l6.74 -8.22c0.4,-0.48 0.78,-0.78 1.14,-0.97 0.37,-0.17 0.79,-0.24 1.28,-0.27l24.63 -1.65 -2.53 -25.28c-0.08,-0.47 -0.09,-0.9 0.02,-1.32 0.08,-0.35 0.33,-0.81 0.72,-1.29l6.41 -7.81z"/>
  <path class="fil3" d="M8471.3 4386.07c0.72,-0.87 1.52,-0.95 2.4,-0.23l5.87 4.81c0.92,0.76 1.01,1.58 0.3,2.45l-21.91 26.7c-1.29,1.57 -2.19,2.98 -2.79,4.21 -0.57,1.23 -0.81,2.42 -0.67,3.53 0.11,1.09 0.58,2.22 1.42,3.31 0.82,1.12 2.04,2.33 3.65,3.65l8.5 6.98c1.6,1.31 3.05,2.29 4.32,2.89 1.25,0.62 2.47,0.87 3.56,0.78 1.12,-0.09 2.22,-0.56 3.32,-1.36 1.11,-0.81 2.28,-2 3.57,-3.57l21.91 -26.7c0.72,-0.87 1.53,-0.95 2.4,-0.23l5.89 4.83c0.87,0.72 0.96,1.52 0.24,2.4l-22.21 27.07c-2.5,3.04 -4.9,5.39 -7.21,7.04 -2.29,1.66 -4.63,2.65 -6.98,2.95 -2.36,0.32 -4.8,-0.05 -7.33,-1.09 -2.55,-1.03 -5.23,-2.71 -8.12,-5.08l-10.32 -8.47c-2.86,-2.35 -5.05,-4.66 -6.54,-6.95 -1.48,-2.24 -2.32,-4.57 -2.48,-6.95 -0.16,-2.36 0.36,-4.85 1.51,-7.45 1.16,-2.6 2.99,-5.4 5.49,-8.45l22.21 -27.07z"/>
  <path class="fil3" d="M8537.72 4305.13c0.75,-0.92 1.57,-1.01 2.45,-0.29l5.7 4.68c0.87,0.71 0.94,1.54 0.19,2.45l-21.51 26.22c-1.28,1.56 -2.22,2.95 -2.8,4.18 -0.57,1.25 -0.82,2.43 -0.67,3.54 0.08,1.14 0.58,2.24 1.42,3.38 0.86,1.13 2.07,2.3 3.63,3.58l0.61 0.5 27.83 -33.91c0.72,-0.88 1.5,-0.96 2.38,-0.24l4.74 3.9c0.89,0.73 0.97,1.51 0.25,2.39l-27.83 33.9 1.03 0.85c1.55,1.27 2.96,2.25 4.22,2.86 1.27,0.6 2.46,0.88 3.59,0.74 1.11,-0.08 2.23,-0.55 3.33,-1.36 1.1,-0.8 2.28,-2 3.56,-3.56l21.51 -26.22c0.75,-0.91 1.57,-1.01 2.46,-0.28l5.7 4.68c0.87,0.72 0.94,1.54 0.19,2.45l-21.66 26.4c-2.5,3.05 -4.89,5.39 -7.21,7.05 -2.29,1.65 -4.63,2.64 -7,2.97 -2.35,0.3 -4.77,-0.08 -7.3,-1.11 -2.56,-1.03 -5.22,-2.73 -8.11,-5.11l-10.32 -8.46c-2.87,-2.35 -5.07,-4.65 -6.56,-6.94 -1.47,-2.24 -2.33,-4.56 -2.49,-6.92 -0.14,-2.39 0.37,-4.88 1.52,-7.47 1.16,-2.6 2.99,-5.41 5.49,-8.46l21.66 -26.39z"/>
  <path class="fil3" d="M8575.89 4258.62c0.71,-0.88 1.52,-0.96 2.4,-0.24l23.92 19.63c1.6,1.31 3.04,2.3 4.31,2.9 1.26,0.61 2.46,0.87 3.56,0.78 1.12,-0.1 2.22,-0.56 3.32,-1.36 1.11,-0.81 2.28,-1.99 3.55,-3.54l19.94 -24.3c0.73,-0.89 1.55,-0.98 2.42,-0.26l5.89 4.83c0.87,0.72 0.95,1.54 0.22,2.43l-20.23 24.64c-2.5,3.05 -4.89,5.39 -7.2,7.04 -2.3,1.66 -4.64,2.65 -6.99,2.97 -2.36,0.3 -4.79,-0.07 -7.32,-1.1 -2.53,-1.06 -5.22,-2.73 -8.11,-5.1l-24.82 -20.37c-0.88,-0.72 -0.95,-1.54 -0.2,-2.45l5.34 -6.5z"/>
  <path class="fil3" d="M8639.65 4180.91c0.72,-0.88 1.53,-0.96 2.41,-0.24l23.92 19.63c1.6,1.31 3.03,2.3 4.31,2.9 1.26,0.61 2.45,0.89 3.56,0.77 1.11,-0.08 2.21,-0.54 3.32,-1.35 1.11,-0.81 2.27,-1.99 3.54,-3.54l19.95 -24.3c0.72,-0.89 1.55,-0.98 2.42,-0.26l5.89 4.83c0.87,0.71 0.94,1.54 0.21,2.43l-20.22 24.64c-2.5,3.04 -4.89,5.39 -7.2,7.04 -2.31,1.67 -4.64,2.65 -7,2.97 -2.35,0.3 -4.78,-0.07 -7.31,-1.1 -2.55,-1.05 -5.23,-2.72 -8.12,-5.09l-24.82 -20.37c-0.88,-0.72 -0.94,-1.55 -0.2,-2.45l5.34 -6.51z"/>
  <path class="fil3" d="M8732.8 4067.39c0.77,-0.94 1.57,-1.01 2.45,-0.29l5.69 4.68c0.88,0.72 0.97,1.51 0.2,2.45l-21.52 26.22c-1.28,1.56 -2.21,2.96 -2.78,4.17 -0.58,1.25 -0.82,2.43 -0.69,3.56 0.09,1.13 0.58,2.24 1.44,3.36 0.87,1.12 2.08,2.29 3.64,3.57l0.61 0.49 27.82 -33.9c0.72,-0.88 1.51,-0.95 2.38,-0.24l4.75 3.9c0.89,0.73 0.96,1.51 0.24,2.39l-27.82 33.9 1.03 0.85c1.55,1.27 2.95,2.25 4.2,2.87 1.27,0.61 2.46,0.89 3.59,0.76 1.12,-0.1 2.24,-0.56 3.34,-1.38 1.09,-0.79 2.26,-1.98 3.54,-3.54l21.52 -26.22c0.77,-0.94 1.57,-1.01 2.46,-0.28l5.69 4.67c0.88,0.72 0.97,1.52 0.2,2.46l-21.66 26.39c-2.49,3.04 -4.88,5.38 -7.21,7.04 -2.28,1.65 -4.62,2.64 -6.98,2.96 -2.36,0.31 -4.8,-0.05 -7.32,-1.1 -2.55,-1.03 -5.22,-2.72 -8.12,-5.09l-10.31 -8.47c-2.87,-2.35 -5.06,-4.66 -6.55,-6.94 -1.49,-2.24 -2.33,-4.57 -2.49,-6.94 -0.15,-2.38 0.37,-4.87 1.51,-7.45 1.17,-2.61 3,-5.42 5.49,-8.45l21.66 -26.4z"/>
  <path class="fil3" d="M8773.38 4017.94c0.79,-0.97 1.49,-1.74 2.09,-2.31 0.6,-0.58 1.24,-1 1.9,-1.26 0.65,-0.27 1.38,-0.44 2.21,-0.5 0.82,-0.06 1.82,-0.06 3.05,-0.01l47.59 1.7c0.39,0.07 0.76,-0.07 1.06,-0.44l0.43 -0.52c0.27,-0.33 0.19,-0.65 -0.21,-0.98l-31.29 -25.68c-0.88,-0.72 -0.96,-1.53 -0.23,-2.41l5.17 -6.31c0.72,-0.88 1.52,-0.95 2.4,-0.23l34.41 28.24c2.43,2 3.73,3.79 3.87,5.37 0.12,1.59 -0.54,3.31 -2.05,5.15l-4.24 5.16c-0.75,0.92 -1.42,1.68 -2.01,2.2 -0.6,0.57 -1.2,0.99 -1.85,1.26 -0.64,0.29 -1.37,0.48 -2.18,0.57 -0.86,0.08 -1.93,0.1 -3.23,0.03l-47.6 -1.62c-0.5,-0.01 -0.84,0.15 -1.07,0.43l-0.45 0.54c-0.26,0.32 -0.21,0.64 0.2,0.98l31.31 25.69c0.87,0.71 0.96,1.51 0.24,2.38l-5.16 6.3c-0.77,0.94 -1.58,1.02 -2.46,0.3l-34.41 -28.24c-2.45,-2.01 -3.73,-3.78 -3.87,-5.38 -0.14,-1.59 0.54,-3.3 2.05,-5.14l4.33 -5.27z"/>
  <path class="fil3" d="M8873.38 3896.07c0.72,-0.88 1.53,-0.96 2.41,-0.24l5.86 4.81c0.92,0.76 1.02,1.58 0.3,2.46l-21.91 26.69c-1.29,1.58 -2.19,2.99 -2.78,4.2 -0.57,1.23 -0.79,2.41 -0.67,3.53 0.13,1.08 0.58,2.22 1.41,3.32 0.83,1.11 2.05,2.32 3.66,3.64l8.51 6.98c1.59,1.31 3.04,2.29 4.3,2.9 1.27,0.61 2.49,0.85 3.58,0.77 1.12,-0.1 2.22,-0.56 3.32,-1.36 1.1,-0.79 2.26,-1.98 3.55,-3.56l21.91 -26.69c0.72,-0.88 1.53,-0.96 2.4,-0.24l5.89 4.83c0.88,0.72 0.96,1.53 0.24,2.41l-22.21 27.06c-2.49,3.04 -4.89,5.39 -7.19,7.03 -2.3,1.66 -4.64,2.65 -7,2.96 -2.35,0.31 -4.79,-0.06 -7.33,-1.08 -2.54,-1.04 -5.2,-2.74 -8.09,-5.12l-10.32 -8.46c-2.87,-2.35 -5.07,-4.65 -6.57,-6.92 -1.46,-2.26 -2.31,-4.59 -2.47,-6.96 -0.15,-2.37 0.36,-4.86 1.51,-7.46 1.15,-2.58 2.99,-5.4 5.48,-8.43l22.21 -27.07z"/>
  <path class="fil3" d="M8939.81 3815.11c0.75,-0.91 1.57,-1.01 2.45,-0.29l5.7 4.68c0.87,0.72 0.94,1.54 0.19,2.45l-21.51 26.22c-1.28,1.56 -2.22,2.96 -2.81,4.19 -0.55,1.23 -0.81,2.42 -0.67,3.55 0.09,1.12 0.59,2.22 1.44,3.35 0.87,1.12 2.08,2.29 3.64,3.57l0.61 0.5 27.81 -33.89c0.72,-0.88 1.52,-0.98 2.4,-0.26l4.75 3.89c0.88,0.73 0.94,1.54 0.22,2.42l-27.81 33.89 1.03 0.85c1.55,1.27 2.96,2.24 4.21,2.86 1.26,0.61 2.45,0.89 3.57,0.77 1.13,-0.1 2.25,-0.57 3.33,-1.37 1.11,-0.81 2.29,-2.01 3.57,-3.57l21.51 -26.22c0.75,-0.91 1.57,-1 2.46,-0.27l5.7 4.67c0.87,0.72 0.94,1.54 0.19,2.46l-21.67 26.4c-2.48,3.03 -4.89,5.39 -7.19,7.03 -2.3,1.66 -4.64,2.65 -7,2.97 -2.34,0.3 -4.78,-0.07 -7.32,-1.09 -2.53,-1.06 -5.21,-2.74 -8.1,-5.11l-10.32 -8.47c-2.87,-2.35 -5.05,-4.66 -6.57,-6.92 -1.46,-2.26 -2.3,-4.59 -2.47,-6.96 -0.15,-2.37 0.36,-4.86 1.52,-7.46 1.14,-2.58 2.99,-5.4 5.48,-8.43l21.66 -26.41z"/>
  <path class="fil4" d="M7989.7 4397.05l-79.52 96.9 22.59 114.19 -40.38 -0.4 -79.24 96.57 43.29 0.25 76.88 -93.68 6.34 32.06 -50.73 61.81 43.37 0.26 15.82 -19.29 44.34 224.11 78.14 -95.22 -21.11 -108.93 34.43 0.2 78.41 -95.55 -43.18 -0.43 -71.36 86.97 -6.24 -32.19 45.2 -55.08 -43.19 -0.41 -10.32 12.57 -43.54 -224.71zm170.03 309.26l78.17 -95.26 -43.19 -0.42 -78.31 95.44 43.33 0.24zm-342.94 -99.29l-79.48 96.86 43.3 0.26 79.35 -96.7 -43.17 -0.42z"/>
 </g>
</svg>
