<?xml version="1.0" encoding="UTF-8"?>
<!DOCTYPE svg PUBLIC "-//W3C//DTD SVG 1.1//EN" "http://www.w3.org/Graphics/SVG/1.1/DTD/svg11.dtd">
<!-- Creator: CorelDRAW 2021 (64-Bit) -->
<svg xmlns="http://www.w3.org/2000/svg" xml:space="preserve" width="51px" height="51px" version="1.1" style="shape-rendering:geometricPrecision; text-rendering:geometricPrecision; image-rendering:optimizeQuality; fill-rule:evenodd; clip-rule:evenodd"
viewBox="0 0 2.53 2.53"
 xmlns:xlink="http://www.w3.org/1999/xlink"
 xmlns:xodm="http://www.corel.com/coreldraw/odm/2003">
 <defs>
  <style type="text/css">
   <![CDATA[
    .fil0 {fill:#2B2A29;fill-rule:nonzero}
   ]]>
  </style>
 </defs>
 <g id="Katman_x0020_1">
  <metadata id="CorelCorpID_0Corel-Layer"/>
  <path class="fil0" d="M2.47 1.27c0,-0.34 -0.13,-0.64 -0.35,-0.86 -0.22,-0.21 -0.52,-0.35 -0.85,-0.35 -0.34,0 -0.64,0.14 -0.86,0.35 -0.21,0.22 -0.35,0.52 -0.35,0.86 0,0.33 0.14,0.63 0.35,0.85 0.22,0.22 0.52,0.35 0.86,0.35 0.33,0 0.63,-0.13 0.85,-0.35 0.22,-0.22 0.35,-0.52 0.35,-0.85zm-0.16 0c0,-0.58 -0.47,-1.05 -1.04,-1.05 -0.58,0 -1.05,0.47 -1.05,1.05 0,0.57 0.47,1.04 1.05,1.04 0.57,0 1.04,-0.47 1.04,-1.04zm-0.6 -0.47c0.05,-0.05 0.13,-0.05 0.19,0 0.05,0.05 0.05,0.13 0,0.18l-0.74 0.75c-0.05,0.05 -0.13,0.05 -0.18,0l-0.34 -0.33c-0.05,-0.05 -0.06,-0.13 -0.01,-0.18 0.05,-0.05 0.14,-0.05 0.19,0l0.25 0.24 0.64 -0.66 0 0zm0.45 -0.43c0.23,0.23 0.37,0.55 0.37,0.9 0,0.35 -0.14,0.66 -0.37,0.89 -0.23,0.23 -0.54,0.37 -0.89,0.37 -0.35,0 -0.67,-0.14 -0.9,-0.37 -0.23,-0.23 -0.37,-0.54 -0.37,-0.89 0,-0.35 0.14,-0.67 0.37,-0.9 0.23,-0.23 0.55,-0.37 0.9,-0.37 0.35,0 0.66,0.14 0.89,0.37z"/>
 </g>
</svg>
