<?xml version="1.0" encoding="UTF-8"?>
<!DOCTYPE svg PUBLIC "-//W3C//DTD SVG 1.1//EN" "http://www.w3.org/Graphics/SVG/1.1/DTD/svg11.dtd">
<!-- Creator: CorelDRAW 2021 (64-Bit) -->
<svg xmlns="http://www.w3.org/2000/svg" xml:space="preserve" width="30px" height="17px" version="1.1" style="shape-rendering:geometricPrecision; text-rendering:geometricPrecision; image-rendering:optimizeQuality; fill-rule:evenodd; clip-rule:evenodd"
viewBox="0 0 0.45 0.26"
 xmlns:xlink="http://www.w3.org/1999/xlink"
 xmlns:xodm="http://www.corel.com/coreldraw/odm/2003">
 <defs>
  <style type="text/css">
   <![CDATA[
    .fil0 {fill:#2B2A29;fill-rule:nonzero}
   ]]>
  </style>
 </defs>
 <g id="Katman_x0020_1">
  <metadata id="CorelCorpID_0Corel-Layer"/>
  <path class="fil0" d="M0.43 0.21l-0.05 0c0,-0.02 -0.02,-0.04 -0.04,-0.04 -0.02,0 -0.04,0.02 -0.04,0.04l-0.01 0 0 -0.14 0.09 0 0.05 0.08 0 0.06 0 0zm-0.24 -0.15c0,-0.01 0.01,-0.01 0.02,0 0,0 0,0.01 0,0.02l-0.08 0.07c0,0.01 -0.01,0.01 -0.02,0l-0.03 -0.03c-0.01,-0.01 -0.01,-0.01 0,-0.02 0,0 0.01,0 0.02,0l0.02 0.03 0.07 -0.07zm0.13 0.07l0 -0.02 0.04 0 0.02 0.02 -0.06 0zm0.05 -0.04l-0.06 0c0,0 -0.01,0 -0.01,0.01l0 0.04c0,0.01 0.01,0.01 0.01,0.01l0.09 0c0,0 0,0 0,0 0.01,-0.01 0.01,-0.01 0,-0.01l-0.03 -0.05c0,0 0,0 0,0l0 0zm-0.03 0.15c-0.01,0 -0.02,-0.01 -0.02,-0.02 0,-0.02 0.01,-0.03 0.02,-0.03 0.02,0 0.03,0.01 0.03,0.03 0,0.01 -0.01,0.02 -0.03,0.02zm-0.27 -0.05c0.02,0 0.03,0.01 0.03,0.03 0,0.01 -0.01,0.02 -0.03,0.02 -0.01,0 -0.02,-0.01 -0.02,-0.02 0,-0.02 0.01,-0.03 0.02,-0.03zm0.32 -0.13c0,0 0,0 -0.01,0l-0.09 0 0 -0.05c0,-0.01 0,-0.01 -0.01,-0.01l-0.27 0c-0.01,0 -0.01,0 -0.01,0.01l0 0.21c0,0 0,0 0.01,0l0.02 0c0.01,0.02 0.03,0.04 0.05,0.04 0.02,0 0.03,-0.02 0.04,-0.04l0.03 0c0,0 0,0 0,0 0,-0.01 0,-0.01 0,-0.01l-0.03 0c-0.01,-0.02 -0.03,-0.04 -0.04,-0.04 -0.03,0 -0.04,0.02 -0.05,0.04l-0.01 0 0 -0.19 0.25 0 0 0.19 -0.09 0c-0.01,0 -0.01,0 -0.01,0.01 0,0 0,0 0.01,0l0.12 0c0,0.02 0.02,0.04 0.04,0.04 0.02,0 0.04,-0.02 0.04,-0.04l0.06 0c0,0 0.01,0 0.01,0l0 -0.07c0,-0.01 0,-0.01 0,-0.01l-0.06 -0.08 0 0z"/>
 </g>
</svg>
