<?xml version="1.0" encoding="UTF-8"?>
<!DOCTYPE svg PUBLIC "-//W3C//DTD SVG 1.1//EN" "http://www.w3.org/Graphics/SVG/1.1/DTD/svg11.dtd">
<!-- Creator: CorelDRAW 2021 (64-Bit) -->
<svg xmlns="http://www.w3.org/2000/svg" xml:space="preserve" width="20px" height="20px" version="1.1" style="shape-rendering:geometricPrecision; text-rendering:geometricPrecision; image-rendering:optimizeQuality; fill-rule:evenodd; clip-rule:evenodd"
viewBox="0 0 0.19 0.18"
 xmlns:xlink="http://www.w3.org/1999/xlink"
 xmlns:xodm="http://www.corel.com/coreldraw/odm/2003">
 <defs>
  <style type="text/css">
   <![CDATA[
    .fil0 {fill:#2B2A29}
   ]]>
  </style>
 </defs>
 <g id="Katman_x0020_1">
  <metadata id="CorelCorpID_0Corel-Layer"/>
  <g id="_1317806589360">
   <path class="fil0" d="M0.16 0.06l-0.02 0.03 -0.01 0.02 -0.04 0 -0.03 0 -0.01 -0.02 -0.02 -0.03 0.02 -0.03 0.01 -0.03 0.03 0 0.04 0 0.01 0.03 0.02 0.03zm-0.16 0.06l0.16 0c0.02,0 0.03,0.02 0.03,0.03 0,0.02 -0.01,0.03 -0.03,0.03l-0.16 0 0 -0.01 0.16 0c0.01,0 0.01,-0.01 0.01,-0.02 0,-0.01 0,-0.01 -0.01,-0.01l-0.16 0 0 -0.02zm0.16 0.02c0,0 0.01,0.01 0.01,0.01 0,0.01 -0.01,0.01 -0.01,0.01 -0.01,0 -0.01,0 -0.01,-0.01 0,0 0,-0.01 0.01,-0.01zm-0.03 0c0,0 0.01,0.01 0.01,0.01 0,0.01 -0.01,0.01 -0.01,0.01 -0.01,0 -0.01,0 -0.01,-0.01 0,0 0,-0.01 0.01,-0.01zm-0.03 0c0,0 0.01,0.01 0.01,0.01 0,0.01 -0.01,0.01 -0.01,0.01 -0.01,0 -0.01,0 -0.01,-0.01 0,0 0.01,-0.01 0.01,-0.01zm-0.03 0c0,0 0.01,0.01 0.01,0.01 0,0.01 -0.01,0.01 -0.01,0.01 -0.01,0 -0.01,0 -0.01,-0.01 0,0 0.01,-0.01 0.01,-0.01zm-0.03 0c0,0 0.01,0.01 0.01,0.01 0,0.01 -0.01,0.01 -0.01,0.01 0,0 -0.01,0 -0.01,-0.01 0,0 0.01,-0.01 0.01,-0.01zm-0.03 0c0,0 0.01,0.01 0.01,0.01 0,0.01 -0.01,0.01 -0.01,0.01 0,0 -0.01,0 -0.01,-0.01 0,0 0.01,-0.01 0.01,-0.01zm0.09 -0.11c0.01,0 0.02,0.01 0.02,0.03 0,0.01 -0.01,0.02 -0.02,0.02 -0.02,0 -0.03,-0.01 -0.03,-0.02 0,-0.02 0.01,-0.03 0.03,-0.03zm0 0.01c0,0 0.01,0.01 0.01,0.02 0,0 -0.01,0.01 -0.01,0.01 -0.01,0 -0.02,-0.01 -0.02,-0.01 0,-0.01 0.01,-0.02 0.02,-0.02zm0.04 0.02l-0.01 0.02 -0.01 0.02 -0.02 0 -0.03 0 -0.01 -0.02 -0.01 -0.02 0.01 -0.02 0.01 -0.03 0.03 0 0.02 0 0.01 0.03 0.01 0.02z"/>
  </g>
 </g>
</svg>
