<?xml version="1.0" encoding="UTF-8"?>
<!DOCTYPE svg PUBLIC "-//W3C//DTD SVG 1.1//EN" "http://www.w3.org/Graphics/SVG/1.1/DTD/svg11.dtd">
<!-- Creator: CorelDRAW 2021 (64-Bit) -->
<svg xmlns="http://www.w3.org/2000/svg" xml:space="preserve" width="30px" height="17px" version="1.1" style="shape-rendering:geometricPrecision; text-rendering:geometricPrecision; image-rendering:optimizeQuality; fill-rule:evenodd; clip-rule:evenodd"
viewBox="0 0 0.47 0.27"
 xmlns:xlink="http://www.w3.org/1999/xlink"
 xmlns:xodm="http://www.corel.com/coreldraw/odm/2003">
 <defs>
  <style type="text/css">
   <![CDATA[
    .fil0 {fill:#2B2A29;fill-rule:nonzero}
   ]]>
  </style>
 </defs>
 <g id="Katman_x0020_1">
  <metadata id="CorelCorpID_0Corel-Layer"/>
  <path class="fil0" d="M0.45 0.22l-0.05 0c-0.01,-0.02 -0.02,-0.04 -0.04,-0.04 -0.03,0 -0.04,0.02 -0.05,0.04l-0.01 0 0 -0.14 0.1 0 0.05 0.08 0 0.06 0 0zm-0.4 -0.07l0.15 0c0,0 0.01,0 0.01,-0.01 0,0 -0.01,0 -0.01,0l-0.15 0c-0.01,0 -0.01,0 -0.01,0 0,0.01 0,0.01 0.01,0.01zm0.2 -0.01l-0.02 0c-0.01,0 -0.01,0 -0.01,0 0,0.01 0,0.01 0.01,0.01l0.02 0c0.01,0 0.01,0 0.01,-0.01 0,0 0,0 -0.01,0zm0 -0.06l-0.15 0c0,0 -0.01,0.01 -0.01,0.01 0,0.01 0.01,0.01 0.01,0.01l0.15 0c0.01,0 0.01,0 0.01,-0.01 0,0 0,-0.01 -0.01,-0.01zm-0.2 0.02l0.02 0c0.01,0 0.01,0 0.01,-0.01 0,0 0,-0.01 -0.01,-0.01l-0.02 0c-0.01,0 -0.01,0.01 -0.01,0.01 0,0.01 0,0.01 0.01,0.01zm0.29 0.04l0 -0.03 0.04 0 0.02 0.03 -0.06 0zm0.04 -0.05l-0.05 0c-0.01,0 -0.01,0.01 -0.01,0.01l0 0.05c0,0 0,0.01 0.01,0.01l0.08 0c0.01,0 0.01,-0.01 0.01,-0.01 0,0 0,0 0,-0.01l-0.03 -0.04c0,-0.01 0,-0.01 -0.01,-0.01l0 0zm-0.02 0.16c-0.02,0 -0.03,-0.01 -0.03,-0.02 0,-0.02 0.01,-0.03 0.03,-0.03 0.01,0 0.02,0.01 0.02,0.03 0,0.01 -0.01,0.02 -0.02,0.02zm-0.28 -0.05c0.01,0 0.02,0.01 0.02,0.03 0,0.01 -0.01,0.02 -0.02,0.02 -0.02,0 -0.03,-0.01 -0.03,-0.02 0,-0.02 0.01,-0.03 0.03,-0.03zm0.33 -0.14c0,0 -0.01,0 -0.01,0l-0.1 0 0 -0.05c0,-0.01 0,-0.01 -0.01,-0.01l-0.28 0c-0.01,0 -0.01,0 -0.01,0.01l0 0.21c0,0.01 0,0.01 0.01,0.01l0.03 0c0,0.02 0.02,0.04 0.04,0.04 0.02,0 0.04,-0.02 0.04,-0.04l0.03 0c0.01,0 0.01,0 0.01,-0.01 0,0 0,0 -0.01,0l-0.03 0c0,-0.02 -0.02,-0.04 -0.04,-0.04 -0.02,0 -0.04,0.02 -0.04,0.04l-0.02 0 0 -0.2 0.27 0 0 0.2 -0.11 0c0,0 -0.01,0 -0.01,0 0,0.01 0.01,0.01 0.01,0.01l0.13 0c0.01,0.02 0.03,0.04 0.05,0.04 0.02,0 0.04,-0.02 0.04,-0.04l0.06 0c0,0 0.01,0 0.01,-0.01l0 -0.07c0,0 0,0 0,0l-0.06 -0.09 0 0z"/>
 </g>
</svg>
