<?xml version="1.0" encoding="UTF-8"?>
<!DOCTYPE svg PUBLIC "-//W3C//DTD SVG 1.1//EN" "http://www.w3.org/Graphics/SVG/1.1/DTD/svg11.dtd">
<!-- Creator: CorelDRAW 2021 (64-Bit) -->
<svg xmlns="http://www.w3.org/2000/svg" xml:space="preserve" width="51px" height="51px" version="1.1" style="shape-rendering:geometricPrecision; text-rendering:geometricPrecision; image-rendering:optimizeQuality; fill-rule:evenodd; clip-rule:evenodd"
viewBox="0 0 1.63 1.63"
 xmlns:xlink="http://www.w3.org/1999/xlink"
 xmlns:xodm="http://www.corel.com/coreldraw/odm/2003">
 <defs>
  <style type="text/css">
   <![CDATA[
    .fil0 {fill:#2B2A29}
   ]]>
  </style>
 </defs>
 <g id="Katman_x0020_1">
  <metadata id="CorelCorpID_0Corel-Layer"/>
  <path class="fil0" d="M0.81 0.14c0.37,0 0.67,0.3 0.67,0.67 0,0.37 -0.3,0.67 -0.67,0.67 -0.37,0 -0.67,-0.3 -0.67,-0.67 0,-0.37 0.3,-0.67 0.67,-0.67zm0.78 0.67c0,-0.21 -0.09,-0.4 -0.23,-0.54 -0.14,-0.14 -0.33,-0.23 -0.55,-0.23 -0.21,0 -0.4,0.09 -0.54,0.23 -0.14,0.14 -0.23,0.33 -0.23,0.54 0,0.22 0.09,0.41 0.23,0.55 0.14,0.14 0.33,0.23 0.54,0.23 0.22,0 0.41,-0.09 0.55,-0.23 0.14,-0.14 0.23,-0.33 0.23,-0.55zm-0.2 -0.57c0.15,0.15 0.24,0.35 0.24,0.57 0,0.23 -0.09,0.43 -0.24,0.58 -0.15,0.15 -0.35,0.24 -0.58,0.24 -0.22,0 -0.42,-0.09 -0.57,-0.24 -0.15,-0.15 -0.24,-0.35 -0.24,-0.58 0,-0.22 0.09,-0.42 0.24,-0.57 0.15,-0.15 0.35,-0.24 0.57,-0.24 0.23,0 0.43,0.09 0.58,0.24zm-0.68 0.11l0.21 0 0 0.63 -0.21 0 0 -0.63zm-0.22 0.71l0.54 0c0.06,0 0.11,0.05 0.11,0.11 0,0.06 -0.05,0.1 -0.11,0.1l-0.54 0 0 -0.05 0.54 0c0.03,0 0.06,-0.02 0.06,-0.05 0,-0.03 -0.03,-0.06 -0.06,-0.06l-0.54 0 0 -0.05 0 0zm0.54 0.08c0.02,0 0.03,0.01 0.03,0.03 0,0.01 -0.01,0.02 -0.03,0.02 -0.01,0 -0.02,-0.01 -0.02,-0.02 0,-0.02 0.01,-0.03 0.02,-0.03zm-0.1 0c0.01,0 0.03,0.01 0.03,0.03 0,0.01 -0.02,0.02 -0.03,0.02 -0.02,0 -0.03,-0.01 -0.03,-0.02 0,-0.02 0.01,-0.03 0.03,-0.03zm-0.1 0c0.01,0 0.02,0.01 0.02,0.03 0,0.01 -0.01,0.02 -0.02,0.02 -0.02,0 -0.03,-0.01 -0.03,-0.02 0,-0.02 0.01,-0.03 0.03,-0.03zm-0.11 0c0.02,0 0.03,0.01 0.03,0.03 0,0.01 -0.01,0.02 -0.03,0.02 -0.01,0 -0.02,-0.01 -0.02,-0.02 0,-0.02 0.01,-0.03 0.02,-0.03zm-0.1 0c0.01,0 0.02,0.01 0.02,0.03 0,0.01 -0.01,0.02 -0.02,0.02 -0.02,0 -0.03,-0.01 -0.03,-0.02 0,-0.02 0.01,-0.03 0.03,-0.03zm-0.1 0c0.01,0 0.02,0.01 0.02,0.03 0,0.01 -0.01,0.02 -0.02,0.02 -0.02,0 -0.03,-0.01 -0.03,-0.02 0,-0.02 0.01,-0.03 0.03,-0.03zm0.3 -0.24c-0.01,0 -0.01,0 -0.01,0 0,0 -0.01,0 -0.01,0l-0.01 0 0 0 0 -0.01 0 0 0.01 0c0,0 0.01,0 0.01,0 0,0 0,0 0.01,0 0,0 0,0 0,0 0,0.01 0,0.01 0,0.01l0 0zm-0.03 0.04l0.04 0 0 0.03 -0.04 0 0 -0.03zm0.02 -0.4c0,0 0,-0.01 0.01,-0.01 0,0 0,0.01 0,0.01l0.02 0 0 0 0 -0.02 0 0 -0.02 0c0,0 0,0.01 0,0.01 -0.01,0 -0.01,-0.01 -0.01,-0.01 0,0 0,0.01 0,0.01 0,0 0,0.01 0,0.01l0 0zm0.01 -0.13c-0.01,0 -0.01,0 -0.01,0 0,0 -0.01,0.01 -0.01,0.01l-0.01 0 0 -0.01 0 -0.01 0 0 0.01 0c0,0 0.01,0.01 0.01,0.01 0,0 0,-0.01 0.01,-0.01 0,0 0,0 0,0.01 0,0 0,0 0,0l0 0zm0.02 0l0 0 -0.02 0c0,0 0,0.01 0,0.01 -0.01,0 -0.01,-0.01 -0.01,-0.01 0,0 0,0.01 0,0.01l0 0 0 0 0 0 0 0 0 0 0 0 0 0 0 0 0 0 0 0 0 0 0 0 0 0 0 0 0 0 0 0 0 0 0 0 0 0 0 0 0 0 0 0 0 0 0 0 0 0 0 0 0 0 0 0 0 0 0 0 0 0 0 0 0 0c0,0.01 0,0.01 0,0.01 0,0 0,-0.01 0.01,-0.01 0,0 0,0.01 0,0.01l0.02 0 0 0 0 -0.02 0 0zm-0.02 0.03c-0.01,0 -0.01,0 -0.01,0 0,0 -0.01,0 -0.01,0l-0.01 0 0 0 0 -0.01 0 0 0.01 0c0,0 0.01,0 0.01,0 0,0 0,0 0.01,0 0,0 0,0 0,0 0,0.01 0,0.01 0,0.01l0 0zm0 0.03c-0.01,0 -0.01,-0.01 -0.01,-0.01 0,0 -0.01,0.01 -0.01,0.01l-0.01 0 0 0 0 -0.02 0 0 0.01 0c0,0 0.01,0.01 0.01,0.01 0,0 0,-0.01 0.01,-0.01 0,0 0,0.01 0,0.01 0,0.01 0,0.01 0,0.01zm-0.01 -0.01c0,0 0,-0.01 0.01,-0.01 0,0 0,0.01 0,0.01l0.02 0 0 -0.01 0 -0.01 0 0 -0.02 0c0,0 0,0.01 0,0.01 -0.01,0 -0.01,-0.01 -0.01,-0.01 0,0 0,0 0,0.01 0,0 0,0.01 0,0.01l0 0zm0.01 0.04c-0.01,0 -0.01,-0.01 -0.01,-0.01 0,0 -0.01,0.01 -0.01,0.01l-0.01 0 0 0 0 -0.02 0 0 0.01 0c0,0 0.01,0.01 0.01,0.01 0,0 0,-0.01 0.01,-0.01 0,0 0,0 0,0.01 0,0 0,0.01 0,0.01l0 0zm-0.01 -0.02c0,0 0,0 0.01,0 0,0 0,0 0,0l0.02 0 0 0 0 -0.01 0 0 -0.02 0c0,0 0,0 0,0 -0.01,0 -0.01,0 -0.01,0 0,0 0,0 0,0.01 0,0 0,0 0,0l0 0zm0.01 0.04c-0.01,0 -0.01,0 -0.01,0 0,0 -0.01,0 -0.01,0l-0.01 0 0 0 0 -0.01 0 0 0.01 0c0,0 0.01,0 0.01,0 0,0 0,0 0.01,0 0,0 0,0 0,0.01 0,0 0,0 0,0l0 0zm-0.01 -0.01c0,0 0,-0.01 0.01,-0.01 0,0 0,0.01 0,0.01l0.02 0 0 0 0 -0.01 0 -0.01 -0.02 0c0,0 0,0.01 0,0.01 -0.01,0 -0.01,0 -0.01,0 0,0 0,0 0,0 0,0.01 0,0.01 0,0.01l0 0zm0.01 0.04c-0.01,0 -0.01,-0.01 -0.01,-0.01 0,0 -0.01,0.01 -0.01,0.01l-0.01 0 0 0 0 -0.01 0 -0.01 0.01 0c0,0 0.01,0.01 0.01,0.01 0,0 0,0 0.01,0 0,0 0,0 0,0 0,0.01 0,0.01 0,0.01l0 0zm0.02 0l0 0 0 0 -0.02 0c0,0 0,0 0,0 -0.01,0 -0.01,0 -0.01,0 0,0 0,0 0,0l0 0 0 0 0 0 0 0.01 0 0 0 0 0 0 0 0 0 0 0 0 0 0 0 0 0 0 0 0 0 0 0 0 0 0 0 0 0 0 0 0 0 0 0 0 0 0 0 0 0 0 0 0 0 0 0 0 0 0 0 0 0 0 0 0 0 0c0,0 0,0 0,0 0,0 0,0 0.01,0 0,0 0,0.01 0,0.01l0.02 0 0 -0.01 0 -0.01 0 0zm-0.02 0.03c-0.01,0 -0.01,-0.01 -0.01,-0.01 0,0 -0.01,0.01 -0.01,0.01l-0.01 0 0 0 0 -0.02 0 0 0.01 0c0,0 0.01,0.01 0.01,0.01 0,0 0,-0.01 0.01,-0.01 0,0 0,0.01 0,0.01 0,0 0,0.01 0,0.01l0 0zm0 0.02c-0.01,0 -0.01,0 -0.01,0 0,0 -0.01,0.01 -0.01,0.01l-0.01 0 0 -0.01 0 -0.01 0 0 0.01 0c0,0 0.01,0 0.01,0 0,0 0,0 0.01,0 0,0 0,0 0,0.01 0,0 0,0 0,0zm-0.01 -0.01c0,0 0,0 0.01,0 0,0 0,0 0,0l0.02 0 0 0 0 -0.01 0 -0.01 -0.02 0c0,0 0,0.01 0,0.01 -0.01,0 -0.01,0 -0.01,0 0,0 0,0 0,0 0,0.01 0,0.01 0,0.01zm0 0.03c0,0 0,-0.01 0.01,-0.01 0,0 0,0.01 0,0.01l0.02 0 0 0 0 -0.02 0 0 -0.02 0c0,0 0,0.01 0,0.01 -0.01,0 -0.01,-0.01 -0.01,-0.01 0,0 0,0.01 0,0.01 0,0 0,0.01 0,0.01l0 0zm0 0.13c0,0 0,0 0.01,0 0,0 0,0 0,0l0.02 0 0 0 0 -0.01 0 0 -0.02 0c0,0 0,0 0,0 -0.01,0 -0.01,0 -0.01,0 0,0 0,0 0,0.01 0,0 0,0 0,0l0 0zm0.01 -0.12c-0.01,0 -0.01,0 -0.01,0 0,0 -0.01,0 -0.01,0l-0.01 0 0 0 0 -0.01 0 -0.01 0.01 0c0,0 0.01,0.01 0.01,0.01 0,0 0,0 0.01,0 0,0 0,0 0,0 0,0.01 0,0.01 0,0.01l0 0zm0.02 0l0 0 0 0 -0.02 0c0,0 0,0.01 0,0.01 -0.01,0 -0.01,-0.01 -0.01,-0.01 0,0 0,0 0,0.01l0 0 0 0 0 0 0 0 0 0 0 0 0 0 0 0 0 0 0 0 0 0 0 0 0 0 0 0 0 0 0 0 0 0 0 0 0 0 0 0 0 0 0 0 0 0 0 0 0 0 0 0 0 0 0 0 0 0 0 0 0 0 0 0c0,0 0,0 0,0 0,0 0,0 0.01,0 0,0 0,0.01 0,0.01l0.02 0 0 -0.01 0 -0.01 0 0zm-0.02 0.03c-0.01,0 -0.01,-0.01 -0.01,-0.01 0,0 -0.01,0.01 -0.01,0.01l-0.01 0 0 0 0 -0.02 0 0 0.01 0c0,0 0.01,0.01 0.01,0.01 0,0 0,-0.01 0.01,-0.01 0,0 0,0.01 0,0.01 0,0 0,0.01 0,0.01l0 0zm0 0.02c-0.01,0 -0.01,0 -0.01,0 0,0 -0.01,0.01 -0.01,0.01l-0.01 0 0 -0.01 0 -0.01 0 0 0.01 0c0,0 0.01,0.01 0.01,0.01 0,0 0,-0.01 0.01,-0.01 0,0 0,0 0,0.01 0,0 0,0 0,0l0 0zm-0.01 -0.01c0,0 0,0 0.01,0 0,0 0,0 0,0l0.02 0 0 0 0 -0.01 0 0 -0.02 0c0,0 0,0 0,0 -0.01,0 -0.01,0 -0.01,0 0,0 0,0 0,0 0,0.01 0,0.01 0,0.01zm0.01 0.04c-0.01,0 -0.01,0 -0.01,0 0,0 -0.01,0 -0.01,0l-0.01 0 0 0 0 -0.01 0 0 0.01 0c0,0 0.01,0 0.01,0 0,0 0,0 0.01,0 0,0 0,0 0,0 0,0.01 0,0.01 0,0.01l0 0zm-0.01 -0.01c0,0 0,-0.01 0.01,-0.01 0,0 0,0.01 0,0.01l0.02 0 0 0 0 -0.02 0 0 -0.02 0c0,0 0,0.01 0,0.01 -0.01,0 -0.01,-0.01 -0.01,-0.01 0,0 0,0.01 0,0.01 0,0.01 0,0.01 0,0.01l0 0zm0.01 0.04c-0.01,0 -0.01,-0.01 -0.01,-0.01 0,0 -0.01,0.01 -0.01,0.01l-0.01 0 0 0 0 -0.01 0 -0.01 0.01 0c0,0 0.01,0.01 0.01,0.01 0,0 0,-0.01 0.01,-0.01 0,0 0,0.01 0,0.01 0,0.01 0,0.01 0,0.01l0 0zm-0.01 -0.01c0,0 0,-0.01 0.01,-0.01 0,0 0,0.01 0,0.01l0.02 0 0 -0.01 0 -0.01 0 0 -0.02 0c0,0 0,0.01 0,0.01 -0.01,0 -0.01,-0.01 -0.01,-0.01 0,0 0,0 0,0.01 0,0 0,0.01 0,0.01l0 0zm0 0.16c0,0 0,-0.01 0.01,-0.01 0,0 0,0.01 0,0.01l0.02 0 0 0 0 -0.02 0 0 -0.02 0c0,0 0,0.01 0,0.01 -0.01,0 -0.01,-0.01 -0.01,-0.01 0,0 0,0.01 0,0.01 0,0 0,0.01 0,0.01l0 0zm0.01 -0.12c-0.01,0 -0.01,-0.01 -0.01,-0.01 0,0 -0.01,0.01 -0.01,0.01l-0.01 0 0 0 0 -0.02 0 0 0.01 0c0,0 0.01,0.01 0.01,0.01 0,0 0,-0.01 0.01,-0.01 0,0 0,0 0,0.01 0,0 0,0.01 0,0.01l0 0zm0.02 0l0 0 0 -0.01 -0.02 0c0,0 0,0.01 0,0.01 -0.01,0 -0.01,0 -0.01,0 0,0 0,0 0,0l0 0 0 0 0 0 0 0 0 0 0 0 0 0 0 0 0 0 0 0 0 0 0 0 0 0 0 0 0 0 0 0 0 0 0 0 0 0 0 0 0 0 0 0 0 0 0 0 0 0 0 0 0 0 0 0 0 0 0 0.01 0 0 0 0c0,0 0,0 0,0 0,0 0,-0.01 0.01,-0.01 0,0 0,0.01 0,0.01l0.02 0 0 0 0 -0.01 0 0zm-0.05 -0.38l0.02 0 0 0 -0.02 0 0 0zm0.03 0l0.02 0 0 0 -0.02 0 0 0zm-0.03 0.52l0.02 0 0 0 0 0.01 0 0 0 0 0 0.02 0 0 -0.02 0 0 0 0 -0.01 0 -0.01 0 -0.01 0 0zm0.03 0l0.01 0 0 0 0 0.03 0 0 -0.01 0 -0.01 0 0 -0.03 0.01 0zm0 -0.12c-0.01,0 -0.01,0 -0.01,0 0,0 -0.01,0 -0.01,0l-0.01 0 0 0 0 -0.01 0 0 0.01 0c0,0 0.01,0 0.01,0 0,0 0,0 0.01,0 0,0 0,0 0,0.01 0,0 0,0 0,0l0 0zm0 0.03c-0.01,0 -0.01,-0.01 -0.01,-0.01 0,0 -0.01,0.01 -0.01,0.01l-0.01 0 0 0 0 -0.01 0 -0.01 0.01 0c0,0 0.01,0.01 0.01,0.01 0,0 0,0 0.01,0 0,0 0,0 0,0 0,0.01 0,0.01 0,0.01l0 0zm-0.01 -0.01c0,0 0,-0.01 0.01,-0.01 0,0 0,0.01 0,0.01l0.02 0 0 0 0 -0.02 0 0 -0.02 0c0,0 0,0.01 0,0.01 -0.01,0 -0.01,-0.01 -0.01,-0.01 0,0 0,0.01 0,0.01 0,0 0,0.01 0,0.01zm0.01 0.04c-0.01,0 -0.01,-0.01 -0.01,-0.01 0,0 -0.01,0.01 -0.01,0.01l-0.01 0 0 0 0 -0.02 0 0 0.01 0c0,0 0.01,0.01 0.01,0.01 0,0 0,-0.01 0.01,-0.01 0,0 0,0.01 0,0.01 0,0 0,0.01 0,0.01l0 0zm-0.01 -0.02c0,0 0,0 0.01,0 0,0 0,0.01 0,0.01l0.02 0 0 -0.01 0 -0.01 0 0 -0.02 0c0,0 0,0 0,0 -0.01,0 -0.01,0 -0.01,0 0,0 0,0 0,0.01 0,0 0,0 0,0l0 0zm0.01 0.04c-0.01,0 -0.01,0 -0.01,0 0,0 -0.01,0.01 -0.01,0.01l-0.01 0 0 -0.01 0 -0.01 0 0 0.01 0c0,0 0.01,0 0.01,0 0,0 0,0 0.01,0 0,0 0,0 0,0.01 0,0 0,0 0,0l0 0zm-0.01 -0.01c0,0 0,0 0.01,0 0,0 0,0 0,0l0.02 0 0 0 0 -0.01 0 -0.01 -0.02 0c0,0 0,0.01 0,0.01 -0.01,0 -0.01,0 -0.01,0 0,0 0,0 0,0 0,0.01 0,0.01 0,0.01l0 0z"/>
 </g>
</svg>
