<?xml version="1.0" encoding="UTF-8"?>
<!DOCTYPE svg PUBLIC "-//W3C//DTD SVG 1.1//EN" "http://www.w3.org/Graphics/SVG/1.1/DTD/svg11.dtd">
<!-- Creator: CorelDRAW 2021 (64-Bit) -->
<svg xmlns="http://www.w3.org/2000/svg" xml:space="preserve" width="51px" height="51px" version="1.1" style="shape-rendering:geometricPrecision; text-rendering:geometricPrecision; image-rendering:optimizeQuality; fill-rule:evenodd; clip-rule:evenodd"
viewBox="0 0 2.22 2.22"
 xmlns:xlink="http://www.w3.org/1999/xlink"
 xmlns:xodm="http://www.corel.com/coreldraw/odm/2003">
 <defs>
  <style type="text/css">
   <![CDATA[
    .fil0 {fill:#2B2A29}
   ]]>
  </style>
 </defs>
 <g id="Katman_x0020_1">
  <metadata id="CorelCorpID_0Corel-Layer"/>
  <path class="fil0" d="M2.02 1.11c0,-0.51 -0.41,-0.91 -0.91,-0.91 -0.51,0 -0.91,0.4 -0.91,0.91 0,0.5 0.4,0.91 0.91,0.91 0.5,0 0.91,-0.41 0.91,-0.91zm0.14 0c0,-0.29 -0.12,-0.56 -0.31,-0.75 -0.19,-0.19 -0.45,-0.31 -0.74,-0.31 -0.29,0 -0.56,0.12 -0.75,0.31 -0.19,0.19 -0.31,0.46 -0.31,0.75 0,0.29 0.12,0.55 0.31,0.74 0.19,0.19 0.46,0.31 0.75,0.31 0.29,0 0.55,-0.12 0.74,-0.31 0.19,-0.19 0.31,-0.45 0.31,-0.74zm-0.27 -0.79c0.2,0.21 0.33,0.48 0.33,0.79 0,0.3 -0.13,0.58 -0.33,0.78 -0.2,0.2 -0.48,0.33 -0.78,0.33 -0.31,0 -0.58,-0.13 -0.79,-0.33 -0.2,-0.2 -0.32,-0.48 -0.32,-0.78 0,-0.31 0.12,-0.58 0.32,-0.79 0.21,-0.2 0.48,-0.32 0.79,-0.32 0.3,0 0.58,0.12 0.78,0.32zm-1.41 1.03c0,-0.06 0.04,-0.11 0.09,-0.13 -0.01,-0.01 -0.02,-0.01 -0.03,-0.03 -0.06,-0.06 0.01,-0.13 0.05,-0.18 0.05,-0.05 0.09,-0.13 0.15,-0.17 0.02,-0.01 0.03,-0.02 0.04,-0.02 0.01,-0.02 0.01,-0.03 0.02,-0.05 0.01,-0.01 0.02,-0.03 0.04,-0.04 0.02,0.01 0.02,0.01 0.02,0 0.01,-0.03 0.03,-0.08 0.06,-0.08 0.03,0 0.05,0.01 0.06,-0.02 0,-0.02 0.01,-0.03 0.01,-0.04 0.03,-0.06 0.17,-0.03 0.23,-0.03 0.09,0.01 0.17,0.02 0.26,0.02 0.07,0 0.19,-0.01 0.23,0.05l0 0c0.04,0.07 0.03,0.17 0,0.24 -0.01,0.07 -0.03,0.07 -0.1,0.07 -0.04,0.01 -0.09,0 -0.14,0.01 -0.08,0.01 -0.15,0.1 -0.21,0.16 -0.08,0.07 -0.16,0.13 -0.23,0.2 -0.03,0.03 -0.07,0.07 -0.12,0.06 0,0 0,0 -0.01,0 0,0.04 -0.03,0.05 -0.04,0.09 -0.03,0.06 -0.03,0.14 -0.03,0.2l-0.28 0c0,-0.06 0.01,-0.14 -0.02,-0.2 -0.02,-0.04 -0.05,-0.05 -0.05,-0.11l0 0zm0.18 -0.15c0.08,-0.01 0.15,0.01 0.2,0.05 0.03,-0.07 0.11,-0.11 0.13,-0.18 0.02,-0.03 -0.01,-0.05 -0.04,-0.06 -0.03,-0.02 -0.05,-0.03 -0.07,0.01 0,0.02 -0.01,0.04 -0.02,0.06 -0.02,0.07 -0.09,0.15 -0.16,0.08 -0.01,0.01 -0.02,0.03 -0.04,0.04zm-0.02 0.37l0 -0.25c0,-0.03 0.02,-0.05 0.05,-0.05 0.03,0 0.06,0.02 0.06,0.05l0 0.25c0,0.01 -0.02,0.02 -0.03,0.02l-0.06 0c-0.01,0 -0.02,-0.01 -0.02,-0.02l0 0zm-0.03 0.02l0 -0.27c0,-0.04 0.04,-0.08 0.08,-0.08 0.04,0 0.08,0.04 0.08,0.08l0 0.27c0,0.02 -0.01,0.03 -0.02,0.03l-0.11 0c-0.02,0 -0.03,-0.01 -0.03,-0.03l0 0z"/>
 </g>
</svg>
