<?xml version="1.0" encoding="UTF-8"?>
<!DOCTYPE svg PUBLIC "-//W3C//DTD SVG 1.1//EN" "http://www.w3.org/Graphics/SVG/1.1/DTD/svg11.dtd">
<!-- Creator: CorelDRAW 2021 (64-Bit) -->
<svg xmlns="http://www.w3.org/2000/svg" xml:space="preserve" width="51px" height="51px" version="1.1" style="shape-rendering:geometricPrecision; text-rendering:geometricPrecision; image-rendering:optimizeQuality; fill-rule:evenodd; clip-rule:evenodd"
viewBox="0 0 1.29 1.29"
 xmlns:xlink="http://www.w3.org/1999/xlink"
 xmlns:xodm="http://www.corel.com/coreldraw/odm/2003">
 <defs>
  <style type="text/css">
   <![CDATA[
    .fil0 {fill:#2B2A29;fill-rule:nonzero}
   ]]>
  </style>
 </defs>
 <g id="Katman_x0020_1">
  <metadata id="CorelCorpID_0Corel-Layer"/>
  <path class="fil0" d="M1.26 0.65c0,-0.17 -0.07,-0.33 -0.18,-0.44 -0.11,-0.11 -0.27,-0.18 -0.43,-0.18 -0.17,0 -0.33,0.07 -0.44,0.18 -0.11,0.11 -0.18,0.27 -0.18,0.44 0,0.16 0.07,0.32 0.18,0.43 0.11,0.11 0.27,0.18 0.44,0.18 0.16,0 0.32,-0.07 0.43,-0.18 0.11,-0.11 0.18,-0.27 0.18,-0.43zm-0.61 -0.54c0.29,0 0.53,0.24 0.53,0.54 0,0.29 -0.24,0.53 -0.53,0.53 -0.3,0 -0.54,-0.24 -0.54,-0.53 0,-0.3 0.24,-0.54 0.54,-0.54zm-0.12 0.24l-0.08 0c-0.01,0 -0.02,0.01 -0.02,0.01 -0.01,0.01 -0.01,0.02 -0.01,0.03l0 0.54c0,0.01 0,0.02 0.01,0.03 0,0 0.01,0.01 0.02,0.01l0.39 0c0.01,0 0.02,-0.01 0.02,-0.01 0.01,-0.01 0.01,-0.02 0.01,-0.03l0 -0.54c0,-0.01 0,-0.02 -0.01,-0.03 0,0 -0.01,-0.01 -0.02,-0.01l-0.07 0 0 -0.02c0,0 -0.01,0 -0.01,0 0,0 0,-0.01 0,-0.01l-0.22 0c0,0 -0.01,0.01 -0.01,0.01 0,0 0,0 0,0l0 0.02 0 0zm-0.05 0.47l0.33 0 0 -0.03 -0.33 0 0 0.03zm0 -0.08l0.33 0 0 -0.03 -0.33 0 0 0.03zm0 -0.08l0.33 0 0 -0.03 -0.33 0 0 0.03zm0 -0.07l0.33 0 0 -0.04 -0.33 0 0 0.04zm0 -0.08l0.33 0 0 -0.04 -0.33 0 0 0.04zm0.29 -0.11l0.07 0 0 0.52 -0.39 0 0 -0.52 0.08 0 0 0.03c0,0 0,0 0,0.01 0,0 0.01,0 0.01,0l0.21 0c0.01,0 0.01,0 0.01,0 0,-0.01 0,-0.01 0,-0.01l0 -0.03 0.01 0zm-0.02 -0.05l-0.2 0 0 0 0.2 0 0 0zm0 0.05l0 0.02 -0.2 0 0 -0.02 0.2 0zm0.35 -0.21c0.12,0.12 0.19,0.28 0.19,0.46 0,0.17 -0.07,0.33 -0.19,0.45 -0.12,0.12 -0.28,0.19 -0.45,0.19 -0.18,0 -0.34,-0.07 -0.46,-0.19 -0.12,-0.12 -0.19,-0.28 -0.19,-0.45 0,-0.18 0.07,-0.34 0.19,-0.46 0.12,-0.12 0.28,-0.19 0.46,-0.19 0.17,0 0.33,0.07 0.45,0.19z"/>
 </g>
</svg>
