<?xml version="1.0" encoding="UTF-8"?>
<!DOCTYPE svg PUBLIC "-//W3C//DTD SVG 1.1//EN" "http://www.w3.org/Graphics/SVG/1.1/DTD/svg11.dtd">
<!-- Creator: CorelDRAW 2021 (64-Bit) -->
<svg xmlns="http://www.w3.org/2000/svg" xml:space="preserve" width="153px" height="57px" version="1.1" style="shape-rendering:geometricPrecision; text-rendering:geometricPrecision; image-rendering:optimizeQuality; fill-rule:evenodd; clip-rule:evenodd"
viewBox="0 0 15.56 5.79"
 xmlns:xlink="http://www.w3.org/1999/xlink"
 xmlns:xodm="http://www.corel.com/coreldraw/odm/2003">
 <defs>
  <style type="text/css">
   <![CDATA[
    .fil0 {fill:#2B2A29}
   ]]>
  </style>
 </defs>
 <g id="Katman_x0020_1">
  <metadata id="CorelCorpID_0Corel-Layer"/>
  <path class="fil0" d="M1.12 0l13.32 0c0.62,0 1.12,0.5 1.12,1.12l0 3.55c0,0.62 -0.5,1.12 -1.12,1.12l-13.32 0c-0.62,0 -1.12,-0.5 -1.12,-1.12l0 -3.55c0,-0.62 0.5,-1.12 1.12,-1.12zm-0.07 0.71l13.46 0c0.24,0 0.44,0.24 0.44,0.52l0 3.32c0,0.29 -0.2,0.53 -0.44,0.53l-13.46 0c-0.24,0 -0.44,-0.24 -0.44,-0.53l0 -3.32c0,-0.28 0.2,-0.52 0.44,-0.52l0 0zm-0.02 -0.31l13.5 0c0.38,0 0.69,0.37 0.69,0.82l0 3.35c0,0.45 -0.31,0.82 -0.69,0.82l-13.5 0c-0.38,0 -0.69,-0.37 -0.69,-0.82l0 -3.35c0,-0.45 0.31,-0.82 0.69,-0.82l0 0z"/>
 </g>
</svg>
