<?xml version="1.0" encoding="UTF-8"?>
<!DOCTYPE svg PUBLIC "-//W3C//DTD SVG 1.1//EN" "http://www.w3.org/Graphics/SVG/1.1/DTD/svg11.dtd">
<!-- Creator: CorelDRAW 2021 (64-Bit) -->
<svg xmlns="http://www.w3.org/2000/svg" xml:space="preserve" width="2.5117mm" height="1.4408mm" version="1.1" style="shape-rendering:geometricPrecision; text-rendering:geometricPrecision; image-rendering:optimizeQuality; fill-rule:evenodd; clip-rule:evenodd"
viewBox="0 0 4.36 2.5"
 xmlns:xlink="http://www.w3.org/1999/xlink"
 xmlns:xodm="http://www.corel.com/coreldraw/odm/2003">
 <defs>
  <style type="text/css">
   <![CDATA[
    .fil0 {fill:#FF5E57;fill-rule:nonzero}
   ]]>
  </style>
 </defs>
 <g id="Katman_x0020_1">
  <metadata id="CorelCorpID_0Corel-Layer"/>
  <path class="fil0" d="M4.2 2.01l-0.47 0c-0.04,-0.19 -0.21,-0.33 -0.4,-0.33 -0.2,0 -0.37,0.14 -0.4,0.33l-0.09 0 0 -1.3 0.87 0 0.5 0.74 0 0.56zm-3.75 -0.61l1.41 0c0.05,0 0.08,-0.04 0.08,-0.08 0,-0.05 -0.04,-0.08 -0.08,-0.08l-1.41 0c-0.05,0 -0.08,0.04 -0.08,0.08 0,0.05 0.04,0.08 0.08,0.08zm1.93 -0.16l-0.24 0c-0.05,0 -0.08,0.04 -0.08,0.08 0,0.05 0.04,0.08 0.08,0.08l0.24 0c0.04,0 0.08,-0.04 0.08,-0.08 0,-0.05 -0.04,-0.08 -0.08,-0.08zm0 -0.47l-1.41 0c-0.05,0 -0.08,0.04 -0.08,0.08 0,0.05 0.04,0.08 0.08,0.08l1.41 0c0.04,0 0.08,-0.04 0.08,-0.08 0,-0.05 -0.04,-0.08 -0.08,-0.08zm-1.93 0.16l0.24 0c0.05,0 0.08,-0.04 0.08,-0.08 0,-0.05 -0.04,-0.08 -0.08,-0.08l-0.24 0c-0.05,0 -0.08,0.04 -0.08,0.08 0,0.05 0.04,0.08 0.08,0.08zm2.69 0.35l0 -0.28 0.4 0 0.19 0.28 -0.59 0zm0.44 -0.44l-0.53 0c-0.05,0 -0.08,0.04 -0.08,0.08l0 0.44c0,0.05 0.04,0.08 0.08,0.08l0.82 0c0.03,0 0.06,-0.02 0.07,-0.04 0.01,-0.03 0.01,-0.06 -0,-0.08l-0.3 -0.44c-0.02,-0.02 -0.04,-0.04 -0.07,-0.04zm-0.26 1.49c-0.14,0 -0.25,-0.11 -0.25,-0.25 0,-0.14 0.11,-0.25 0.25,-0.25 0.14,0 0.25,0.11 0.25,0.25 0,0.14 -0.11,0.25 -0.25,0.25zm-2.59 -0.5c0.14,0 0.25,0.11 0.25,0.25 0,0.14 -0.11,0.25 -0.25,0.25 -0.14,0 -0.25,-0.11 -0.25,-0.25 0,-0.14 0.11,-0.25 0.25,-0.25zm3.08 -1.27c-0.02,-0.02 -0.04,-0.04 -0.07,-0.04l-0.91 0 0 -0.46c0,-0.05 -0.04,-0.08 -0.08,-0.08l-2.66 0c-0.05,0 -0.08,0.04 -0.08,0.08l0 2.01c0,0.05 0.04,0.08 0.08,0.08l0.25 0c0.04,0.19 0.21,0.33 0.4,0.33 0.2,0 0.37,-0.14 0.4,-0.33l0.28 0c0.05,0 0.08,-0.04 0.08,-0.08 0,-0.05 -0.04,-0.08 -0.08,-0.08l-0.28 0c-0.04,-0.19 -0.21,-0.33 -0.4,-0.33 -0.2,0 -0.37,0.14 -0.4,0.33l-0.16 0 0 -1.84 2.5 0 0 1.84 -0.96 0c-0.05,0 -0.08,0.04 -0.08,0.08 0,0.05 0.04,0.08 0.08,0.08l1.21 0c0.04,0.19 0.21,0.33 0.4,0.33 0.2,0 0.37,-0.14 0.4,-0.33l0.55 0c0.05,0 0.08,-0.04 0.08,-0.08l0 -0.67c0,-0.02 -0.01,-0.03 -0.01,-0.05l-0.54 -0.8z"/>
 </g>
</svg>
