<?xml version="1.0" encoding="UTF-8"?>
<!DOCTYPE svg PUBLIC "-//W3C//DTD SVG 1.1//EN" "http://www.w3.org/Graphics/SVG/1.1/DTD/svg11.dtd">
<!-- Creator: CorelDRAW 2021 (64-Bit) -->
<svg xmlns="http://www.w3.org/2000/svg" xml:space="preserve" width="1.7016mm" height="1.6532mm" version="1.1" style="shape-rendering:geometricPrecision; text-rendering:geometricPrecision; image-rendering:optimizeQuality; fill-rule:evenodd; clip-rule:evenodd"
viewBox="0 0 2.05 2"
 xmlns:xlink="http://www.w3.org/1999/xlink"
 xmlns:xodm="http://www.corel.com/coreldraw/odm/2003">
 <defs>
  <style type="text/css">
   <![CDATA[
    .fil0 {fill:#FF6B6B}
   ]]>
  </style>
 </defs>
 <g id="Katman_x0020_1">
  <metadata id="CorelCorpID_0Corel-Layer"/>
  <path class="fil0" d="M1.73 0.63l-0.18 0.31 -0.18 0.31 -0.35 0 -0.35 0 -0.18 -0.31 -0.18 -0.31 0.18 -0.31 0.18 -0.31 0.35 0 0.35 0 0.18 0.31 0.18 0.31zm-1.73 0.7l1.72 0c0.18,0 0.34,0.15 0.34,0.34 0,0.18 -0.15,0.34 -0.34,0.34l-1.72 0 0 -0.17 1.71 0c0.09,0 0.17,-0.08 0.17,-0.17 0,-0.09 -0.08,-0.17 -0.17,-0.17l-1.71 0 0 -0.17zm1.71 0.25c0.05,0 0.08,0.04 0.08,0.08 0,0.04 -0.04,0.08 -0.08,0.08 -0.04,0 -0.08,-0.04 -0.08,-0.08 0,-0.05 0.04,-0.08 0.08,-0.08zm-0.32 0c0.04,0 0.08,0.04 0.08,0.08 0,0.04 -0.04,0.08 -0.08,0.08 -0.05,0 -0.08,-0.04 -0.08,-0.08 0,-0.05 0.04,-0.08 0.08,-0.08zm-0.32 0c0.04,0 0.08,0.04 0.08,0.08 0,0.04 -0.04,0.08 -0.08,0.08 -0.05,0 -0.08,-0.04 -0.08,-0.08 0,-0.05 0.04,-0.08 0.08,-0.08zm-0.32 0c0.04,0 0.08,0.04 0.08,0.08 0,0.04 -0.04,0.08 -0.08,0.08 -0.05,0 -0.08,-0.04 -0.08,-0.08 0,-0.05 0.04,-0.08 0.08,-0.08zm-0.32 0c0.04,0 0.08,0.04 0.08,0.08 0,0.04 -0.04,0.08 -0.08,0.08 -0.05,0 -0.08,-0.04 -0.08,-0.08 0,-0.05 0.04,-0.08 0.08,-0.08zm-0.32 0c0.04,0 0.08,0.04 0.08,0.08 0,0.04 -0.04,0.08 -0.08,0.08 -0.05,0 -0.08,-0.04 -0.08,-0.08 0,-0.05 0.04,-0.08 0.08,-0.08zm0.93 -1.25c0.16,0 0.29,0.13 0.29,0.29 0,0.16 -0.13,0.29 -0.29,0.29 -0.16,0 -0.29,-0.13 -0.29,-0.29 0,-0.16 0.13,-0.29 0.29,-0.29zm0 0.16c0.07,0 0.14,0.06 0.14,0.14 0,0.07 -0.06,0.14 -0.14,0.14 -0.07,0 -0.14,-0.06 -0.14,-0.14 0,-0.07 0.06,-0.14 0.14,-0.14zm0.51 0.14l-0.13 0.23 -0.13 0.23 -0.26 0 -0.26 0 -0.13 -0.23 -0.13 -0.23 0.13 -0.23 0.13 -0.23 0.26 0 0.26 0 0.13 0.23 0.13 0.23z"/>
 </g>
</svg>
