<?xml version="1.0" encoding="UTF-8"?>
<!DOCTYPE svg PUBLIC "-//W3C//DTD SVG 1.1//EN" "http://www.w3.org/Graphics/SVG/1.1/DTD/svg11.dtd">
<!-- Creator: CorelDRAW 2021 (64-Bit) -->
<svg xmlns="http://www.w3.org/2000/svg" xml:space="preserve" width="18.3913mm" height="3.554mm" version="1.1" style="shape-rendering:geometricPrecision; text-rendering:geometricPrecision; image-rendering:optimizeQuality; fill-rule:evenodd; clip-rule:evenodd"
viewBox="0 0 218.63 42.25"
 xmlns:xlink="http://www.w3.org/1999/xlink"
 xmlns:xodm="http://www.corel.com/coreldraw/odm/2003">
 <defs>
  <style type="text/css">
   <![CDATA[
    .fil0 {fill:#2B2A29;fill-rule:nonzero}
    .fil1 {fill:#E4272C;fill-rule:nonzero}
   ]]>
  </style>
 </defs>
 <g id="Katman_x0020_1">
  <metadata id="CorelCorpID_0Corel-Layer"/>
  <path class="fil0" d="M133.13 21.12l-18.07 0 0 -3.39 18.07 0 0 3.39zm78.95 -9.03l0 -3.9c0,-2.2 -1.75,-3.3 -5.23,-3.3l-13.96 0 0 10.9 13.79 0c3.6,0 5.4,-1.23 5.4,-3.7zm6.55 1.54c0,2.18 -0.87,3.9 -2.6,5.15 -1.73,1.26 -4.1,1.88 -7.11,1.88l-16.03 0 0 12.31 -6.55 0 0 -32.83 22.25 0c2.88,0 5.21,0.53 7.01,1.6 1.93,1.18 2.92,2.79 2.96,4.84 0.04,2.21 0.06,4.55 0.06,7.04zm-39.4 19.34l-6.55 0 0 -32.83 6.55 0 0 32.83zm-11.78 -29.76c0,0.75 -0.25,1.38 -0.76,1.91l-21.5 23.04 21.43 0 0 4.81 -23.37 0c-1.27,0 -2.35,-0.08 -3.23,-0.25 -0.87,-0.17 -1.62,-0.53 -2.22,-1.1 -0.6,-0.57 -0.9,-1.18 -0.9,-1.84 0,-0.68 0.38,-1.44 1.15,-2.3l21.03 -22.61 -21.43 0 0 -4.81 25.05 0c3.16,0 4.74,1.05 4.74,3.16z"/>
  <path class="fil0" d="M32.04 32.97l-8.15 0 -16 -12.67c-0.55,-0.42 -0.82,-1.11 -0.82,-2.08 0,-1.85 1.35,-2.77 4.04,-2.77l9.56 -0.07c3.18,0 4.76,-1.1 4.76,-3.3l0 -3.8c0,-2.31 -1.8,-3.46 -5.39,-3.46l-13.5 0 0 28.15 -6.54 0 0 -32.97 21.95 0c6.68,0 10.02,2.34 10.02,7.03l0 5.71c0,2.05 -0.86,3.7 -2.6,4.95 -1.73,1.26 -4.01,1.88 -6.83,1.88l-7.52 0 17.02 13.4zm34.04 -14.09l-21.32 0 0 5.58c0,2.46 1.91,3.69 5.72,3.69l16.89 0 0 4.82 -18.66 0c-3.22,0 -5.73,-0.56 -7.53,-1.68 -1.97,-1.25 -2.96,-3.02 -2.96,-5.31l0 -18.58c0,-2.29 0.88,-4.09 2.63,-5.4 1.75,-1.31 4.17,-1.96 7.26,-1.96l19.25 0 0 4.82 -16.95 0c-3.77,0 -5.65,1.21 -5.65,3.63l0 5.65 21.32 0 0 4.75z"/>
  <path class="fil0" d="M2.39 40.24l2.67 0 -1.24 -2.28c-0.02,-0.04 -0.05,-0.06 -0.09,-0.06l-0.05 0c-0.04,0 -0.07,0.02 -0.09,0.06l-1.22 2.28zm1.51 -3.44c0.2,0 0.36,0.04 0.5,0.12 0.13,0.08 0.27,0.24 0.4,0.47l2.57 4.67c0.03,0.05 0.03,0.09 0.02,0.13 -0.01,0.03 -0.05,0.05 -0.11,0.05l-0.99 0c-0.09,0 -0.15,-0.03 -0.18,-0.1l-0.55 -1 -3.66 0 -0.54 1c-0.03,0.07 -0.1,0.1 -0.18,0.1l-1.01 0c-0.07,0 -0.11,-0.02 -0.12,-0.05 -0.01,-0.03 -0.01,-0.08 0.02,-0.13l2.55 -4.67c0.13,-0.24 0.26,-0.39 0.38,-0.47 0.12,-0.08 0.27,-0.12 0.43,-0.12l0.46 0z"/>
  <path class="fil0" d="M12.68 36.81c0.11,0 0.17,0.06 0.17,0.17l0 3.1c0,0.21 0.02,0.38 0.05,0.52 0.03,0.14 0.09,0.25 0.17,0.33 0.08,0.08 0.18,0.14 0.32,0.17 0.13,0.03 0.3,0.05 0.5,0.05l3.15 0c0.12,0 0.17,0.06 0.17,0.17l0 0.76c0,0.11 -0.06,0.17 -0.17,0.17l-3.2 0c-0.39,0 -0.73,-0.04 -1,-0.11 -0.27,-0.07 -0.5,-0.19 -0.67,-0.35 -0.17,-0.16 -0.3,-0.37 -0.38,-0.64 -0.08,-0.26 -0.12,-0.58 -0.12,-0.95l0 -3.22c0,-0.11 0.06,-0.17 0.18,-0.17l0.84 0z"/>
  <path class="fil0" d="M22.75 36.81c0.11,0 0.17,0.06 0.17,0.17l0 3.1c0,0.21 0.02,0.38 0.05,0.52 0.03,0.14 0.09,0.25 0.17,0.33 0.08,0.08 0.18,0.14 0.32,0.17 0.13,0.03 0.3,0.05 0.5,0.05l3.15 0c0.11,0 0.17,0.06 0.17,0.17l0 0.76c0,0.11 -0.06,0.17 -0.17,0.17l-3.2 0c-0.4,0 -0.73,-0.04 -1.01,-0.11 -0.27,-0.07 -0.5,-0.19 -0.67,-0.35 -0.17,-0.16 -0.3,-0.37 -0.38,-0.64 -0.08,-0.26 -0.12,-0.58 -0.12,-0.95l0 -3.22c0,-0.11 0.06,-0.17 0.18,-0.17l0.84 0z"/>
  <path class="fil0" d="M32.95 36.81c0.11,0 0.17,0.06 0.17,0.17l0 5.1c0,0.11 -0.06,0.17 -0.17,0.17l-0.84 0c-0.12,0 -0.18,-0.06 -0.18,-0.17l0 -5.1c0,-0.11 0.06,-0.17 0.18,-0.17l0.84 0z"/>
  <path class="fil0" d="M40.05 40.24l2.67 0 -1.24 -2.28c-0.02,-0.04 -0.05,-0.06 -0.09,-0.06l-0.05 0c-0.04,0 -0.07,0.02 -0.09,0.06l-1.22 2.28zm1.51 -3.44c0.2,0 0.36,0.04 0.5,0.12 0.13,0.08 0.27,0.24 0.4,0.47l2.58 4.67c0.02,0.05 0.03,0.09 0.02,0.13 -0.01,0.03 -0.05,0.05 -0.11,0.05l-0.99 0c-0.09,0 -0.15,-0.03 -0.18,-0.1l-0.55 -1 -3.66 0 -0.54 1c-0.04,0.07 -0.1,0.1 -0.18,0.1l-1.01 0c-0.07,0 -0.11,-0.02 -0.12,-0.05 -0.01,-0.03 -0.01,-0.08 0.02,-0.13l2.55 -4.67c0.13,-0.24 0.26,-0.39 0.38,-0.47 0.12,-0.08 0.27,-0.12 0.44,-0.12l0.46 0z"/>
  <path class="fil0" d="M51.03 36.81c0.12,0 0.23,0 0.31,0.01 0.08,0.01 0.16,0.03 0.22,0.07 0.06,0.03 0.12,0.08 0.18,0.14 0.06,0.06 0.12,0.14 0.2,0.24l2.89 3.79c0.02,0.03 0.05,0.05 0.1,0.05l0.07 0c0.04,0 0.06,-0.03 0.06,-0.08l0 -4.06c0,-0.11 0.06,-0.17 0.17,-0.17l0.82 0c0.12,0 0.17,0.06 0.17,0.17l0 4.46c0,0.32 -0.06,0.53 -0.17,0.64 -0.12,0.11 -0.29,0.17 -0.53,0.17l-0.67 0c-0.12,0 -0.22,-0 -0.3,-0.02 -0.08,-0.01 -0.15,-0.03 -0.21,-0.06 -0.06,-0.03 -0.12,-0.07 -0.18,-0.13 -0.06,-0.06 -0.13,-0.14 -0.21,-0.25l-2.9 -3.79c-0.03,-0.04 -0.07,-0.06 -0.1,-0.06l-0.07 0c-0.04,0 -0.06,0.02 -0.06,0.08l0 4.06c0,0.11 -0.06,0.17 -0.17,0.17l-0.82 0c-0.12,0 -0.18,-0.06 -0.18,-0.17l0 -4.46c0,-0.32 0.06,-0.53 0.17,-0.64 0.12,-0.11 0.29,-0.17 0.53,-0.17l0.68 0z"/>
  <path class="fil0" d="M66.83 36.81c0.11,0 0.17,0.06 0.17,0.17l0 0.76c0,0.12 -0.06,0.18 -0.17,0.18l-3.46 0c-0.2,0 -0.37,0.02 -0.5,0.05 -0.13,0.03 -0.24,0.09 -0.31,0.17 -0.08,0.08 -0.13,0.19 -0.17,0.32 -0.03,0.13 -0.05,0.31 -0.05,0.51l0 1.1c0,0.21 0.02,0.38 0.05,0.52 0.03,0.14 0.09,0.25 0.17,0.33 0.08,0.08 0.18,0.14 0.31,0.17 0.13,0.03 0.3,0.05 0.5,0.05l3.46 0c0.11,0 0.17,0.06 0.17,0.17l0 0.76c0,0.11 -0.06,0.17 -0.17,0.17l-3.51 0c-0.39,0 -0.73,-0.04 -1,-0.11 -0.28,-0.07 -0.5,-0.19 -0.67,-0.35 -0.17,-0.16 -0.3,-0.37 -0.38,-0.64 -0.08,-0.26 -0.12,-0.58 -0.12,-0.95l0 -1.34c0,-0.37 0.04,-0.69 0.12,-0.95 0.08,-0.26 0.21,-0.47 0.38,-0.63 0.17,-0.16 0.4,-0.28 0.67,-0.36 0.27,-0.08 0.61,-0.11 1,-0.11l3.51 0z"/>
  <path class="fil0" d="M77.32 36.81c0.12,0 0.18,0.06 0.18,0.17l0 0.74c0,0.11 -0.06,0.17 -0.18,0.17l-3.4 0c-0.2,0 -0.37,0.02 -0.5,0.05 -0.13,0.03 -0.24,0.09 -0.32,0.17 -0.08,0.08 -0.14,0.19 -0.17,0.33 -0.03,0.14 -0.05,0.31 -0.05,0.51l0 0.08 4.4 0c0.11,0 0.17,0.06 0.17,0.17l0 0.62c0,0.12 -0.06,0.17 -0.17,0.17l-4.4 0 0 0.13c0,0.2 0.02,0.37 0.05,0.51 0.03,0.14 0.09,0.25 0.17,0.33 0.08,0.08 0.19,0.14 0.32,0.17 0.13,0.03 0.3,0.05 0.5,0.05l3.4 0c0.12,0 0.18,0.06 0.18,0.17l0 0.74c0,0.11 -0.06,0.17 -0.18,0.17l-3.42 0c-0.39,0 -0.73,-0.04 -1,-0.11 -0.27,-0.07 -0.5,-0.19 -0.67,-0.35 -0.17,-0.16 -0.3,-0.37 -0.38,-0.64 -0.08,-0.26 -0.12,-0.58 -0.12,-0.95l0 -1.34c0,-0.37 0.04,-0.69 0.12,-0.95 0.08,-0.26 0.21,-0.47 0.38,-0.63 0.17,-0.16 0.4,-0.28 0.67,-0.36 0.27,-0.08 0.61,-0.11 1,-0.11l3.42 0z"/>
  <path class="fil0" d="M90.04 40.11c0,0.2 0.02,0.37 0.05,0.51 0.03,0.14 0.09,0.25 0.17,0.32 0.08,0.08 0.18,0.14 0.31,0.17 0.13,0.03 0.3,0.05 0.5,0.05l2.31 0c0.2,0 0.37,-0.02 0.5,-0.05 0.13,-0.03 0.24,-0.09 0.31,-0.17 0.08,-0.08 0.13,-0.19 0.17,-0.32 0.03,-0.14 0.05,-0.31 0.05,-0.51l0 -1.17c0,-0.2 -0.02,-0.37 -0.05,-0.51 -0.03,-0.14 -0.09,-0.25 -0.17,-0.33 -0.08,-0.08 -0.18,-0.14 -0.31,-0.17 -0.13,-0.03 -0.3,-0.05 -0.5,-0.05l-2.31 0c-0.2,0 -0.37,0.02 -0.5,0.05 -0.13,0.03 -0.24,0.09 -0.31,0.17 -0.08,0.08 -0.14,0.19 -0.17,0.33 -0.03,0.14 -0.05,0.31 -0.05,0.51l0 1.17zm3.39 -3.31c0.39,0 0.73,0.04 1,0.11 0.28,0.07 0.5,0.19 0.68,0.36 0.17,0.16 0.3,0.38 0.38,0.63 0.08,0.26 0.12,0.58 0.12,0.95l0 1.34c0,0.38 -0.04,0.69 -0.12,0.95 -0.08,0.26 -0.2,0.47 -0.38,0.64 -0.17,0.16 -0.4,0.28 -0.68,0.35 -0.28,0.07 -0.61,0.11 -1,0.11l-2.41 0c-0.39,0 -0.73,-0.04 -1,-0.11 -0.27,-0.07 -0.5,-0.19 -0.67,-0.35 -0.17,-0.17 -0.3,-0.38 -0.38,-0.64 -0.08,-0.26 -0.12,-0.58 -0.12,-0.95l0 -1.34c0,-0.37 0.04,-0.69 0.12,-0.95 0.08,-0.26 0.21,-0.47 0.38,-0.63 0.17,-0.16 0.4,-0.28 0.67,-0.36 0.27,-0.08 0.61,-0.11 1,-0.11l2.41 0z"/>
  <path class="fil0" d="M106.06 36.81c0.12,0 0.18,0.06 0.18,0.17l0 0.74c0,0.11 -0.06,0.17 -0.18,0.17l-3.38 0c-0.2,0 -0.37,0.02 -0.5,0.05 -0.13,0.03 -0.24,0.09 -0.32,0.17 -0.08,0.08 -0.13,0.19 -0.17,0.33 -0.03,0.14 -0.05,0.31 -0.05,0.51l0 0.16 4.37 0c0.11,0 0.17,0.06 0.17,0.17l0 0.61c0,0.11 -0.06,0.17 -0.17,0.17l-4.37 0 0 2.02c0,0.11 -0.06,0.17 -0.17,0.17l-0.84 0c-0.12,0 -0.18,-0.06 -0.18,-0.17l0 -3.22c0,-0.37 0.04,-0.69 0.12,-0.95 0.08,-0.26 0.21,-0.47 0.38,-0.63 0.17,-0.16 0.4,-0.28 0.67,-0.36 0.27,-0.08 0.61,-0.11 1,-0.11l3.42 0z"/>
  <path class="fil0" d="M123.06 36.81c0.12,0 0.18,0.06 0.18,0.17l0 0.74c0,0.11 -0.06,0.17 -0.18,0.17l-3.4 0c-0.2,0 -0.37,0.02 -0.5,0.05 -0.13,0.03 -0.24,0.09 -0.32,0.17 -0.08,0.08 -0.14,0.19 -0.17,0.33 -0.03,0.14 -0.05,0.31 -0.05,0.51l0 0.08 4.4 0c0.11,0 0.17,0.06 0.17,0.17l0 0.62c0,0.12 -0.06,0.17 -0.17,0.17l-4.4 0 0 0.13c0,0.2 0.01,0.37 0.05,0.51 0.03,0.14 0.09,0.25 0.17,0.33 0.08,0.08 0.19,0.14 0.32,0.17 0.13,0.03 0.3,0.05 0.5,0.05l3.4 0c0.12,0 0.18,0.06 0.18,0.17l0 0.74c0,0.11 -0.06,0.17 -0.18,0.17l-3.42 0c-0.39,0 -0.73,-0.04 -1,-0.11 -0.27,-0.07 -0.5,-0.19 -0.67,-0.35 -0.17,-0.16 -0.3,-0.37 -0.38,-0.64 -0.08,-0.26 -0.12,-0.58 -0.12,-0.95l0 -1.34c0,-0.37 0.04,-0.69 0.12,-0.95 0.08,-0.26 0.21,-0.47 0.38,-0.63 0.18,-0.16 0.4,-0.28 0.67,-0.36 0.28,-0.08 0.61,-0.11 1,-0.11l3.42 0z"/>
  <path class="fil0" d="M134.15 36.81c0.07,0 0.11,0.02 0.12,0.07 0.01,0.05 -0.01,0.09 -0.04,0.13l-2.39 2.42 2.5 2.62c0.04,0.03 0.05,0.08 0.05,0.13 -0.01,0.05 -0.05,0.07 -0.12,0.07l-1.07 0c-0.06,0 -0.11,-0.01 -0.15,-0.02 -0.03,-0.01 -0.07,-0.05 -0.1,-0.09l-1.92 -2.01 -1.93 2.01c-0.04,0.04 -0.07,0.07 -0.11,0.09 -0.03,0.02 -0.08,0.02 -0.15,0.02l-1.01 0c-0.07,0 -0.11,-0.02 -0.11,-0.07 -0.01,-0.05 0.01,-0.09 0.04,-0.13l2.56 -2.66 -2.31 -2.38c-0.03,-0.04 -0.05,-0.08 -0.04,-0.13 0,-0.05 0.04,-0.07 0.12,-0.07l1.07 0c0.06,0 0.11,0.01 0.15,0.03 0.04,0.02 0.07,0.05 0.1,0.08l1.69 1.8 1.8 -1.8c0.03,-0.04 0.06,-0.06 0.1,-0.08 0.03,-0.02 0.08,-0.03 0.15,-0.03l1.01 0z"/>
  <path class="fil0" d="M144.36 36.81c0.11,0 0.17,0.06 0.17,0.17l0 0.76c0,0.12 -0.06,0.18 -0.17,0.18l-3.46 0c-0.2,0 -0.37,0.02 -0.5,0.05 -0.13,0.03 -0.24,0.09 -0.32,0.17 -0.08,0.08 -0.14,0.19 -0.17,0.32 -0.03,0.13 -0.05,0.31 -0.05,0.51l0 1.1c0,0.21 0.02,0.38 0.05,0.52 0.03,0.14 0.09,0.25 0.17,0.33 0.08,0.08 0.18,0.14 0.32,0.17 0.13,0.03 0.3,0.05 0.5,0.05l3.46 0c0.11,0 0.17,0.06 0.17,0.17l0 0.76c0,0.11 -0.06,0.17 -0.17,0.17l-3.51 0c-0.39,0 -0.73,-0.04 -1,-0.11 -0.27,-0.07 -0.5,-0.19 -0.67,-0.35 -0.17,-0.16 -0.3,-0.37 -0.38,-0.64 -0.08,-0.26 -0.12,-0.58 -0.12,-0.95l0 -1.34c0,-0.37 0.04,-0.69 0.12,-0.95 0.08,-0.26 0.21,-0.47 0.38,-0.63 0.17,-0.16 0.4,-0.28 0.67,-0.36 0.27,-0.08 0.61,-0.11 1,-0.11l3.51 0z"/>
  <path class="fil0" d="M154.85 36.81c0.12,0 0.18,0.06 0.18,0.17l0 0.74c0,0.11 -0.06,0.17 -0.18,0.17l-3.4 0c-0.2,0 -0.37,0.02 -0.5,0.05 -0.13,0.03 -0.24,0.09 -0.32,0.17 -0.08,0.08 -0.14,0.19 -0.17,0.33 -0.03,0.14 -0.05,0.31 -0.05,0.51l0 0.08 4.39 0c0.11,0 0.17,0.06 0.17,0.17l0 0.62c0,0.12 -0.06,0.17 -0.17,0.17l-4.39 0 0 0.13c0,0.2 0.01,0.37 0.05,0.51 0.03,0.14 0.09,0.25 0.17,0.33 0.08,0.08 0.18,0.14 0.32,0.17 0.13,0.03 0.3,0.05 0.5,0.05l3.4 0c0.12,0 0.18,0.06 0.18,0.17l0 0.74c0,0.11 -0.06,0.17 -0.18,0.17l-3.42 0c-0.39,0 -0.73,-0.04 -1,-0.11 -0.27,-0.07 -0.5,-0.19 -0.68,-0.35 -0.17,-0.16 -0.3,-0.37 -0.38,-0.64 -0.08,-0.26 -0.12,-0.58 -0.12,-0.95l0 -1.34c0,-0.37 0.04,-0.69 0.12,-0.95 0.08,-0.26 0.21,-0.47 0.38,-0.63 0.18,-0.16 0.4,-0.28 0.68,-0.36 0.28,-0.08 0.61,-0.11 1,-0.11l3.42 0z"/>
  <path class="fil0" d="M160.88 36.81c0.11,0 0.17,0.06 0.17,0.17l0 3.1c0,0.21 0.01,0.38 0.05,0.52 0.03,0.14 0.09,0.25 0.17,0.33 0.08,0.08 0.18,0.14 0.32,0.17 0.13,0.03 0.3,0.05 0.5,0.05l3.15 0c0.11,0 0.17,0.06 0.17,0.17l0 0.76c0,0.11 -0.06,0.17 -0.17,0.17l-3.2 0c-0.39,0 -0.73,-0.04 -1,-0.11 -0.27,-0.07 -0.5,-0.19 -0.67,-0.35 -0.17,-0.16 -0.3,-0.37 -0.38,-0.64 -0.08,-0.26 -0.12,-0.58 -0.12,-0.95l0 -3.22c0,-0.11 0.06,-0.17 0.18,-0.17l0.84 0z"/>
  <path class="fil0" d="M170.96 36.81c0.11,0 0.17,0.06 0.17,0.17l0 3.1c0,0.21 0.01,0.38 0.05,0.52 0.03,0.14 0.09,0.25 0.17,0.33 0.08,0.08 0.18,0.14 0.32,0.17 0.13,0.03 0.3,0.05 0.5,0.05l3.15 0c0.11,0 0.17,0.06 0.17,0.17l0 0.76c0,0.11 -0.06,0.17 -0.17,0.17l-3.2 0c-0.39,0 -0.73,-0.04 -1,-0.11 -0.28,-0.07 -0.5,-0.19 -0.67,-0.35 -0.17,-0.16 -0.3,-0.37 -0.38,-0.64 -0.08,-0.26 -0.12,-0.58 -0.12,-0.95l0 -3.22c0,-0.11 0.06,-0.17 0.18,-0.17l0.84 0z"/>
  <path class="fil0" d="M185.68 36.81c0.12,0 0.18,0.06 0.18,0.17l0 0.74c0,0.11 -0.06,0.17 -0.18,0.17l-3.4 0c-0.2,0 -0.37,0.02 -0.5,0.05 -0.13,0.03 -0.24,0.09 -0.32,0.17 -0.08,0.08 -0.14,0.19 -0.17,0.33 -0.03,0.14 -0.04,0.31 -0.04,0.51l0 0.08 4.4 0c0.11,0 0.17,0.06 0.17,0.17l0 0.62c0,0.12 -0.06,0.17 -0.17,0.17l-4.4 0 0 0.13c0,0.2 0.01,0.37 0.04,0.51 0.03,0.14 0.09,0.25 0.17,0.33 0.08,0.08 0.19,0.14 0.32,0.17 0.13,0.03 0.3,0.05 0.5,0.05l3.4 0c0.12,0 0.18,0.06 0.18,0.17l0 0.74c0,0.11 -0.06,0.17 -0.18,0.17l-3.42 0c-0.39,0 -0.73,-0.04 -1,-0.11 -0.27,-0.07 -0.5,-0.19 -0.67,-0.35 -0.17,-0.16 -0.3,-0.37 -0.38,-0.64 -0.08,-0.26 -0.12,-0.58 -0.12,-0.95l0 -1.34c0,-0.37 0.04,-0.69 0.12,-0.95 0.08,-0.26 0.21,-0.47 0.38,-0.63 0.17,-0.16 0.4,-0.28 0.67,-0.36 0.28,-0.08 0.61,-0.11 1,-0.11l3.42 0z"/>
  <path class="fil0" d="M192.09 36.81c0.12,0 0.23,0 0.31,0.01 0.08,0.01 0.16,0.03 0.22,0.07 0.06,0.03 0.12,0.08 0.18,0.14 0.06,0.06 0.12,0.14 0.19,0.24l2.89 3.79c0.02,0.03 0.05,0.05 0.1,0.05l0.07 0c0.04,0 0.06,-0.03 0.06,-0.08l0 -4.06c0,-0.11 0.06,-0.17 0.17,-0.17l0.82 0c0.11,0 0.17,0.06 0.17,0.17l0 4.46c0,0.32 -0.06,0.53 -0.17,0.64 -0.12,0.11 -0.29,0.17 -0.53,0.17l-0.67 0c-0.12,0 -0.22,-0 -0.3,-0.02 -0.08,-0.01 -0.15,-0.03 -0.22,-0.06 -0.06,-0.03 -0.12,-0.07 -0.18,-0.13 -0.06,-0.06 -0.13,-0.14 -0.21,-0.25l-2.9 -3.79c-0.03,-0.04 -0.07,-0.06 -0.1,-0.06l-0.07 0c-0.04,0 -0.06,0.02 -0.06,0.08l0 4.06c0,0.11 -0.06,0.17 -0.17,0.17l-0.82 0c-0.12,0 -0.18,-0.06 -0.18,-0.17l0 -4.46c0,-0.32 0.06,-0.53 0.17,-0.64 0.11,-0.11 0.29,-0.17 0.53,-0.17l0.68 0z"/>
  <path class="fil0" d="M207.89 36.81c0.11,0 0.17,0.06 0.17,0.17l0 0.76c0,0.12 -0.06,0.18 -0.17,0.18l-3.46 0c-0.2,0 -0.37,0.02 -0.5,0.05 -0.13,0.03 -0.24,0.09 -0.32,0.17 -0.08,0.08 -0.14,0.19 -0.17,0.32 -0.03,0.13 -0.05,0.31 -0.05,0.51l0 1.1c0,0.21 0.02,0.38 0.05,0.52 0.03,0.14 0.09,0.25 0.17,0.33 0.08,0.08 0.18,0.14 0.32,0.17 0.13,0.03 0.3,0.05 0.5,0.05l3.46 0c0.11,0 0.17,0.06 0.17,0.17l0 0.76c0,0.11 -0.06,0.17 -0.17,0.17l-3.51 0c-0.39,0 -0.73,-0.04 -1,-0.11 -0.27,-0.07 -0.5,-0.19 -0.68,-0.35 -0.17,-0.16 -0.3,-0.37 -0.38,-0.64 -0.08,-0.26 -0.12,-0.58 -0.12,-0.95l0 -1.34c0,-0.37 0.04,-0.69 0.12,-0.95 0.08,-0.26 0.21,-0.47 0.38,-0.63 0.17,-0.16 0.4,-0.28 0.68,-0.36 0.27,-0.08 0.61,-0.11 1,-0.11l3.51 0z"/>
  <path class="fil0" d="M218.38 36.81c0.12,0 0.18,0.06 0.18,0.17l0 0.74c0,0.11 -0.06,0.17 -0.18,0.17l-3.4 0c-0.2,0 -0.37,0.02 -0.5,0.05 -0.13,0.03 -0.24,0.09 -0.32,0.17 -0.08,0.08 -0.14,0.19 -0.17,0.33 -0.03,0.14 -0.05,0.31 -0.05,0.51l0 0.08 4.39 0c0.11,0 0.17,0.06 0.17,0.17l0 0.62c0,0.12 -0.06,0.17 -0.17,0.17l-4.39 0 0 0.13c0,0.2 0.01,0.37 0.05,0.51 0.03,0.14 0.09,0.25 0.17,0.33 0.08,0.08 0.19,0.14 0.32,0.17 0.13,0.03 0.3,0.05 0.5,0.05l3.4 0c0.12,0 0.18,0.06 0.18,0.17l0 0.74c0,0.11 -0.06,0.17 -0.18,0.17l-3.42 0c-0.39,0 -0.73,-0.04 -1,-0.11 -0.27,-0.07 -0.5,-0.19 -0.68,-0.35 -0.17,-0.16 -0.3,-0.37 -0.38,-0.64 -0.08,-0.26 -0.12,-0.58 -0.12,-0.95l0 -1.34c0,-0.37 0.04,-0.69 0.12,-0.95 0.08,-0.26 0.21,-0.47 0.38,-0.63 0.17,-0.16 0.4,-0.28 0.68,-0.36 0.27,-0.08 0.61,-0.11 1,-0.11l3.42 0z"/>
  <path class="fil1" d="M112.89 0.19l-12.56 0 -7.41 9.01 -2.54 -3.15 -12.52 0 2.73 3.37 12.14 0 -2.08 2.53 -8.01 0 2.74 3.38 2.5 0 -14.54 17.68 12.35 0 7.1 -8.56 2.17 2.68 12.39 0 -2.71 -3.37 -11.27 0 2.1 -2.53 7.14 0 -2.72 -3.37 -1.63 0 14.64 -17.66zm-13.15 32.84l12.35 0 -2.71 -3.37 -12.37 0 2.74 3.37zm-14.11 -32.88l-12.56 0 2.73 3.37 12.54 0 -2.71 -3.37z"/>
 </g>
</svg>
