<?xml version="1.0" encoding="UTF-8"?>
<!DOCTYPE svg PUBLIC "-//W3C//DTD SVG 1.1//EN" "http://www.w3.org/Graphics/SVG/1.1/DTD/svg11.dtd">
<!-- Creator: CorelDRAW 2021 (64-Bit) -->
<svg xmlns="http://www.w3.org/2000/svg" xml:space="preserve" width="2.3573mm" height="2.3573mm" version="1.1" style="shape-rendering:geometricPrecision; text-rendering:geometricPrecision; image-rendering:optimizeQuality; fill-rule:evenodd; clip-rule:evenodd"
viewBox="0 0 3.78 3.78"
 xmlns:xlink="http://www.w3.org/1999/xlink"
 xmlns:xodm="http://www.corel.com/coreldraw/odm/2003">
 <defs>
  <style type="text/css">
   <![CDATA[
    .fil0 {fill:#C5C6C6;fill-rule:nonzero}
   ]]>
  </style>
 </defs>
 <g id="Katman_x0020_1">
  <metadata id="CorelCorpID_0Corel-Layer"/>
  <path class="fil0" d="M0.63 2.15c-0.42,-0.42 -0.42,-1.1 0,-1.52 0.42,-0.42 1.1,-0.42 1.52,0 0.42,0.42 0.42,1.1 0,1.52 -0.42,0.42 -1.1,0.42 -1.52,0zm3.05 1.08l-0.77 -0.77 -0.1 0.1 -0.23 -0.23 -0.26 0.26 0.23 0.23 -0.09 0.1 0.77 0.77c0.12,0.12 0.32,0.12 0.45,0 0.12,-0.12 0.12,-0.32 0,-0.45zm-1.31 -2.83c-0.54,-0.54 -1.43,-0.54 -1.97,0 -0.54,0.54 -0.54,1.43 0,1.97 0.54,0.54 1.43,0.54 1.97,0 0.54,-0.54 0.54,-1.43 0,-1.97z"/>
 </g>
</svg>
