<?xml version="1.0" encoding="UTF-8"?>
<!DOCTYPE svg PUBLIC "-//W3C//DTD SVG 1.1//EN" "http://www.w3.org/Graphics/SVG/1.1/DTD/svg11.dtd">
<!-- Creator: CorelDRAW 2021 (64-Bit) -->
<svg xmlns="http://www.w3.org/2000/svg" xml:space="preserve" width="58px" height="58px" version="1.1" style="shape-rendering:geometricPrecision; text-rendering:geometricPrecision; image-rendering:optimizeQuality; fill-rule:evenodd; clip-rule:evenodd"
viewBox="0 0 2.33 2.33"
 xmlns:xlink="http://www.w3.org/1999/xlink"
 xmlns:xodm="http://www.corel.com/coreldraw/odm/2003">
 <defs>
  <style type="text/css">
   <![CDATA[
    .fil0 {fill:#2B2A29}
   ]]>
  </style>
 </defs>
 <g id="Katman_x0020_1">
  <metadata id="CorelCorpID_0Corel-Layer"/>
  <path class="fil0" d="M0.2 0l1.93 0c0.11,0 0.2,0.09 0.2,0.2l0 1.93c0,0.11 -0.09,0.2 -0.2,0.2l-1.93 0c-0.11,0 -0.2,-0.09 -0.2,-0.2l0 -1.93c0,-0.11 0.09,-0.2 0.2,-0.2l0 0zm1.2 0.86l0.15 1 -0.39 0.07 -0.38 -0.07 0.15 -1 0 -0.23c0,-0.13 0.1,-0.23 0.23,-0.23l0.01 0c0.12,0 0.23,0.1 0.23,0.23l0 0.23 0 0zm-0.03 0.92l0.04 -0.05 -0.02 -0.13 -0.06 -0.05 -0.33 0 -0.06 0.05 -0.02 0.13 0.04 0.05 0.41 0 0 0zm-0.33 -0.92l0.25 0 0.04 -0.21c0.02,-0.1 -0.07,-0.19 -0.16,-0.19l-0.01 0c-0.1,0 -0.19,0.09 -0.17,0.19l0.05 0.21 0 0z"/>
 </g>
</svg>
