<?xml version="1.0" encoding="UTF-8"?>
<!DOCTYPE svg PUBLIC "-//W3C//DTD SVG 1.1//EN" "http://www.w3.org/Graphics/SVG/1.1/DTD/svg11.dtd">
<!-- Creator: CorelDRAW 2021 (64-Bit) -->
<svg xmlns="http://www.w3.org/2000/svg" xml:space="preserve" width="58px" height="58px" version="1.1" style="shape-rendering:geometricPrecision; text-rendering:geometricPrecision; image-rendering:optimizeQuality; fill-rule:evenodd; clip-rule:evenodd"
viewBox="0 0 2.12 2.12"
 xmlns:xlink="http://www.w3.org/1999/xlink"
 xmlns:xodm="http://www.corel.com/coreldraw/odm/2003">
 <defs>
  <style type="text/css">
   <![CDATA[
    .fil0 {fill:#2B2A29}
   ]]>
  </style>
 </defs>
 <g id="Katman_x0020_1">
  <metadata id="CorelCorpID_0Corel-Layer"/>
  <path class="fil0" d="M0.18 0l1.76 0c0.1,0 0.18,0.08 0.18,0.18l0 1.76c0,0.1 -0.08,0.18 -0.18,0.18l-1.76 0c-0.1,0 -0.18,-0.08 -0.18,-0.18l0 -1.76c0,-0.1 0.08,-0.18 0.18,-0.18l0 0zm0.49 0.97l0.28 0 0 0.86 -0.28 0 0 -0.86zm0.5 -0.68l0.28 0 0 1.54 -0.28 0 0 -1.54zm0.15 1.4c-0.01,0 -0.01,-0.01 -0.01,-0.01 -0.01,0 -0.01,0.01 -0.01,0.01l-0.02 0 0 0 0 -0.02 0 -0.01 0.02 0c0,0 0,0.01 0.01,0.01 0,0 0,0 0.01,0 0,0 0,0 0,0.01 0,0 0,0.01 0,0.01l0 0zm-0.01 -1.13c0,0 0,-0.01 0.01,-0.01 0,0 0,0.01 0.01,0.01l0.01 0 0.01 0 0 -0.02 -0.01 -0.01 -0.01 0c-0.01,0 -0.01,0.01 -0.01,0.01 -0.01,0 -0.01,0 -0.01,0 -0.01,0 -0.01,0 -0.01,0.01 0,0 0,0.01 0.01,0.01l0 0zm0.01 -0.17c-0.01,0 -0.01,-0.01 -0.01,-0.01 -0.01,0 -0.01,0.01 -0.01,0.01l-0.02 0 0 0 0 -0.02 0 0 0.02 0c0,0 0,0.01 0.01,0.01 0,0 0,-0.01 0.01,-0.01 0,0 0,0 0,0.01 0,0 0,0.01 0,0.01l0 0zm0.03 0l-0.01 0 -0.01 0c-0.01,0 -0.01,0 -0.01,0 -0.01,0 -0.01,0 -0.01,0 -0.01,0 -0.01,0 -0.01,0l0 0.01 0 0 0 0 0 0 0 0 0 0 0 0 0 0 0 0c0,0 0,0 0.01,0 0,0 0,0 0.01,0 0,0 0,0.01 0.01,0.01l0.01 0 0.01 -0.01 0 -0.01 0 0zm-0.03 0.04c-0.01,0 -0.01,-0.01 -0.01,-0.01 -0.01,0 -0.01,0.01 -0.01,0.01l-0.02 0 0 0 0 -0.02 0 -0.01 0.02 0c0,0 0,0.01 0.01,0.01 0,0 0,0 0.01,0 0,0 0,0 0,0.01 0,0 0,0 0,0l0 0.01zm0 0.03c-0.01,0 -0.01,0 -0.01,0 -0.01,0 -0.01,0.01 -0.01,0.01l-0.02 0 0 -0.01 0 -0.02 0 0 0.02 0c0,0 0,0.01 0.01,0.01 0,0 0,-0.01 0.01,-0.01 0,0 0,0.01 0,0.01 0,0.01 0,0.01 0,0.01l0 0zm-0.01 -0.02c0,0 0,0 0.01,0 0,0 0,0.01 0.01,0.01l0.01 0 0.01 -0.01 0 -0.01 -0.01 -0.01 -0.01 0c-0.01,0 -0.01,0.01 -0.01,0.01 -0.01,0 -0.01,-0.01 -0.01,-0.01 -0.01,0 -0.01,0.01 -0.01,0.01 0,0.01 0,0.01 0.01,0.01l0 0zm0.01 0.06c-0.01,0 -0.01,-0.01 -0.01,-0.01 -0.01,0 -0.01,0.01 -0.01,0.01l-0.02 0 0 0 0 -0.02 0 0 0.02 0c0,0 0,0.01 0.01,0.01 0,0 0,-0.01 0.01,-0.01 0,0 0,0 0,0.01 0,0.01 0,0.01 0,0.01l0 0zm-0.01 -0.02c0,0 0,0 0.01,0 0,0 0,0 0.01,0l0.01 0 0.01 0 0 -0.02 -0.01 0 -0.01 0c-0.01,0 -0.01,0.01 -0.01,0.01 -0.01,0 -0.01,-0.01 -0.01,-0.01 -0.01,0 -0.01,0.01 -0.01,0.01 0,0.01 0,0.01 0.01,0.01l0 0zm0.01 0.06c-0.01,0 -0.01,-0.01 -0.01,-0.01 -0.01,0 -0.01,0.01 -0.01,0.01l-0.02 0 0 0 0 -0.02 0 0 0.02 0c0,0 0,0.01 0.01,0.01 0,0 0,-0.01 0.01,-0.01 0,0 0,0 0,0.01 0,0 0,0.01 0,0.01l0 0zm-0.01 -0.02c0,0 0,-0.01 0.01,-0.01 0,0 0,0.01 0.01,0.01l0.01 0 0.01 0 0 -0.02 -0.01 0 -0.01 0c-0.01,0 -0.01,0.01 -0.01,0.01 -0.01,0 -0.01,-0.01 -0.01,-0.01 -0.01,0 -0.01,0 -0.01,0.01 0,0 0,0.01 0.01,0.01l0 0zm0.01 0.05c-0.01,0 -0.01,0 -0.01,0 -0.01,0 -0.01,0.01 -0.01,0.01l-0.02 0 0 -0.01 0 -0.01 0 -0.01 0.02 0c0,0 0,0.01 0.01,0.01 0,0 0,0 0.01,0 0,0 0,0 0,0 0,0.01 0,0.01 0,0.01l0 0zm0.03 0.01l-0.01 -0.01 -0.01 0c-0.01,0 -0.01,0.01 -0.01,0.01 -0.01,0 -0.01,-0.01 -0.01,-0.01 -0.01,0 -0.01,0.01 -0.01,0.01l0 0 0 0 0 0 0 0 0 0 0 0 0 0 0 0 0 0c0,0.01 0,0.01 0.01,0.01 0,0 0,-0.01 0.01,-0.01 0,0 0,0.01 0.01,0.01l0.01 0 0.01 0 0 -0.02 0 0.01zm-0.03 0.03c-0.01,0 -0.01,0 -0.01,0 -0.01,0 -0.01,0.01 -0.01,0.01l-0.02 0 0 -0.01 0 -0.02 0 0 0.02 0c0,0 0,0.01 0.01,0.01 0,0 0,-0.01 0.01,-0.01 0,0 0,0.01 0,0.01 0,0.01 0,0.01 0,0.01l0 0zm0 0.04c-0.01,0 -0.01,-0.01 -0.01,-0.01 -0.01,0 -0.01,0.01 -0.01,0.01l-0.02 0 0 0 0 -0.02 0 0 0.02 0c0,0 0,0.01 0.01,0.01 0,0 0,-0.01 0.01,-0.01 0,0 0,0 0,0.01 0,0 0,0.01 0,0.01l0 0zm-0.01 -0.02c0,0 0,-0.01 0.01,-0.01 0,0 0,0.01 0.01,0.01l0.01 0 0.01 0 0 -0.02 -0.01 0 -0.01 0c-0.01,0 -0.01,0.01 -0.01,0.01 -0.01,0 -0.01,-0.01 -0.01,-0.01 -0.01,0 -0.01,0.01 -0.01,0.01 0,0.01 0,0.01 0.01,0.01l0 0zm0 0.04c0,0 0,-0.01 0.01,-0.01 0,0 0,0.01 0.01,0.01l0.01 0 0.01 0 0 -0.02 -0.01 0 -0.01 0c-0.01,0 -0.01,0.01 -0.01,0.01 -0.01,0 -0.01,-0.01 -0.01,-0.01 -0.01,0 -0.01,0 -0.01,0.01 0,0 0,0.01 0.01,0.01l0 0zm0 0.18c0,0 0,0 0.01,0 0,0 0,0.01 0.01,0.01l0.01 0 0.01 -0.01 0 -0.02 -0.01 0 -0.01 0c-0.01,0 -0.01,0.01 -0.01,0.01 -0.01,0 -0.01,-0.01 -0.01,-0.01 -0.01,0 -0.01,0.01 -0.01,0.01 0,0.01 0,0.01 0.01,0.01l0 0zm0.01 -0.16c-0.01,0 -0.01,-0.01 -0.01,-0.01 -0.01,0 -0.01,0.01 -0.01,0.01l-0.02 0 0 0 0 -0.02 0 -0.01 0.02 0c0,0 0,0.01 0.01,0.01 0,0 0,0 0.01,0 0,0 0,0 0,0.01 0,0 0,0.01 0,0.01l0 0zm0.03 0l-0.01 -0.01 -0.01 0c-0.01,0 -0.01,0.01 -0.01,0.01 -0.01,0 -0.01,0 -0.01,0 -0.01,0 -0.01,0 -0.01,0l0 0 0 0 0 0 0 0 0 0 0 0.01 0 0 0 0 0 0c0,0 0,0 0.01,0 0,0 0,0 0.01,0 0,0 0,0 0.01,0l0.01 0 0.01 0 0 -0.02 0 0.01zm-0.03 0.03c-0.01,0 -0.01,0 -0.01,0 -0.01,0 -0.01,0.01 -0.01,0.01l-0.02 0 0 -0.01 0 -0.01 0 -0.01 0.02 0c0,0 0,0.01 0.01,0.01 0,0 0,-0.01 0.01,-0.01 0,0 0,0.01 0,0.01 0,0.01 0,0.01 0,0.01l0 0zm0 0.04c-0.01,0 -0.01,-0.01 -0.01,-0.01 -0.01,0 -0.01,0.01 -0.01,0.01l-0.02 0 0 0 0 -0.02 0 0 0.02 0c0,0 0,0.01 0.01,0.01 0,0 0,-0.01 0.01,-0.01 0,0 0,0.01 0,0.01 0,0.01 0,0.01 0,0.01l0 0zm-0.01 -0.02c0,0 0,0 0.01,0 0,0 0,0.01 0.01,0.01l0.01 0 0.01 -0.01 0 -0.02 -0.01 0 -0.01 0c-0.01,0 -0.01,0.01 -0.01,0.01 -0.01,0 -0.01,-0.01 -0.01,-0.01 -0.01,0 -0.01,0.01 -0.01,0.01 0,0.01 0,0.01 0.01,0.01l0 0zm0.01 0.06c-0.01,0 -0.01,-0.01 -0.01,-0.01 -0.01,0 -0.01,0.01 -0.01,0.01l-0.02 0 0 0 0 -0.02 0 0 0.02 0c0,0 0,0.01 0.01,0.01 0,0 0,-0.01 0.01,-0.01 0,0 0,0 0,0.01 0,0 0,0.01 0,0.01l0 0zm-0.01 -0.02c0,0 0,-0.01 0.01,-0.01 0,0 0,0.01 0.01,0.01l0.01 0 0.01 0 0 -0.02 -0.01 0 -0.01 0c-0.01,0 -0.01,0.01 -0.01,0.01 -0.01,0 -0.01,-0.01 -0.01,-0.01 -0.01,0 -0.01,0 -0.01,0.01 0,0.01 0,0.01 0.01,0.01l0 0zm0.01 0.06c-0.01,0 -0.01,-0.01 -0.01,-0.01 -0.01,0 -0.01,0.01 -0.01,0.01l-0.02 0 0 0 0 -0.02 0 -0.01 0.02 0c0,0 0,0.01 0.01,0.01 0,0 0,0 0.01,0 0,0 0,0 0,0.01 0,0 0,0.01 0,0.01l0 0zm-0.01 -0.02c0,0 0,-0.01 0.01,-0.01 0,0 0,0.01 0.01,0.01l0.01 0 0.01 0 0 -0.02 -0.01 0 -0.01 0c-0.01,0 -0.01,0 -0.01,0 -0.01,0 -0.01,0 -0.01,0 -0.01,0 -0.01,0 -0.01,0.01 0,0 0,0.01 0.01,0.01l0 0zm0.01 0.05c-0.01,0 -0.01,0 -0.01,0 -0.01,0 -0.01,0.01 -0.01,0.01l-0.02 0 0 -0.01 0 -0.02 0 0 0.02 0c0,0 0,0.01 0.01,0.01 0,0 0,-0.01 0.01,-0.01 0,0 0,0.01 0,0.01 0,0.01 0,0.01 0,0.01l0 0zm0.03 0l-0.01 0 -0.01 0c-0.01,0 -0.01,0.01 -0.01,0.01 -0.01,0 -0.01,-0.01 -0.01,-0.01 -0.01,0 -0.01,0.01 -0.01,0.01l0 0 0 0 0 0 0 0 0 0 0 0 0 0 0 0 0 0c0,0.01 0,0.01 0.01,0.01 0,0 0,-0.01 0.01,-0.01 0,0 0,0.01 0.01,0.01l0.01 0 0.01 0 0 -0.02 0 0zm-0.03 0.04c-0.01,0 -0.01,-0.01 -0.01,-0.01 -0.01,0 -0.01,0.01 -0.01,0.01l-0.02 0 0 0 0 -0.02 0 0 0.02 0c0,0 0,0.01 0.01,0.01 0,0 0,-0.01 0.01,-0.01 0,0 0,0 0,0.01 0,0.01 0,0.01 0,0.01l0 0zm0 0.04c-0.01,0 -0.01,-0.01 -0.01,-0.01 -0.01,0 -0.01,0.01 -0.01,0.01l-0.02 0 0 0 0 -0.02 0 0 0.02 0c0,0 0,0 0.01,0 0,0 0,0 0.01,0 0,0 0,0 0,0.01 0,0 0,0.01 0,0.01l0 0zm-0.01 -0.02c0,0 0,-0.01 0.01,-0.01 0,0 0,0.01 0.01,0.01l0.01 0 0.01 0 0 -0.02 -0.01 0 -0.01 0c-0.01,0 -0.01,0.01 -0.01,0.01 -0.01,0 -0.01,-0.01 -0.01,-0.01 -0.01,0 -0.01,0 -0.01,0.01 0,0 0,0.01 0.01,0.01l0 0zm0.01 0.05c-0.01,0 -0.01,0 -0.01,0 -0.01,0 -0.01,0.01 -0.01,0.01l-0.02 0 0 -0.01 0 -0.01 0 -0.01 0.02 0c0,0 0,0.01 0.01,0.01 0,0 0,0 0.01,0 0,0 0,0 0,0 0,0.01 0,0.01 0,0.01l0 0zm-0.01 -0.01c0,0 0,-0.01 0.01,-0.01 0,0 0,0.01 0.01,0.01l0.01 0 0.01 0 0 -0.02 -0.01 -0.01 -0.01 0c-0.01,0 -0.01,0.01 -0.01,0.01 -0.01,0 -0.01,0 -0.01,0 -0.01,0 -0.01,0 -0.01,0.01 0,0 0,0.01 0.01,0.01l0 0zm0 0.03c0,0 0,0 0.01,0 0,0 0,0.01 0.01,0.01l0.01 0 0.01 -0.01 0 -0.02 -0.01 0 -0.01 0c-0.01,0 -0.01,0.01 -0.01,0.01 -0.01,0 -0.01,-0.01 -0.01,-0.01 -0.01,0 -0.01,0.01 -0.01,0.01 0,0.01 0,0.01 0.01,0.01l0 0zm-0.03 0.75l0.06 0 0 0.03 -0.06 0 0 -0.03zm0.03 -0.56c0,0 0,-0.01 0.01,-0.01 0,0 0,0.01 0.01,0.01l0.01 0 0.01 0 0 -0.02 -0.01 0 -0.01 0c-0.01,0 -0.01,0.01 -0.01,0.01 -0.01,0 -0.01,-0.01 -0.01,-0.01 -0.01,0 -0.01,0 -0.01,0.01 0,0 0,0.01 0.01,0.01l0 0zm0.01 -0.17c-0.01,0 -0.01,-0.01 -0.01,-0.01 -0.01,0 -0.01,0.01 -0.01,0.01l-0.02 0 0 0 0 -0.02 0 0 0.02 0c0,0 0,0.01 0.01,0.01 0,0 0,-0.01 0.01,-0.01 0,0 0,0.01 0,0.01 0,0.01 0,0.01 0,0.01l0 0zm0.03 0l-0.01 0 -0.01 0c-0.01,0 -0.01,0.01 -0.01,0.01 -0.01,0 -0.01,-0.01 -0.01,-0.01 -0.01,0 -0.01,0 -0.01,0.01l0 0 0 0 0 0 0 0 0 0 0 0 0 0 0 0 0 0c0,0.01 0,0.01 0.01,0.01 0,0 0,-0.01 0.01,-0.01 0,0 0,0.01 0.01,0.01l0.01 0 0.01 0 0 -0.02 0 0zm-0.03 0.04c-0.01,0 -0.01,-0.01 -0.01,-0.01 -0.01,0 -0.01,0.01 -0.01,0.01l-0.02 0 0 0 0 -0.02 0 0 0.02 0c0,0 0,0.01 0.01,0.01 0,0 0,-0.01 0.01,-0.01 0,0 0,0 0,0.01 0,0 0,0.01 0,0.01l0 0zm0 0.04c-0.01,0 -0.01,-0.01 -0.01,-0.01 -0.01,0 -0.01,0.01 -0.01,0.01l-0.02 0 0 0 0 -0.02 0 -0.01 0.02 0c0,0 0,0.01 0.01,0.01 0,0 0,0 0.01,0 0,0 0,0 0,0.01 0,0 0,0.01 0,0.01l0 0zm-0.01 -0.02c0,0 0,-0.01 0.01,-0.01 0,0 0,0.01 0.01,0.01l0.01 0 0.01 0 0 -0.02 -0.01 0 -0.01 0c-0.01,0 -0.01,0.01 -0.01,0.01 -0.01,0 -0.01,-0.01 -0.01,-0.01 -0.01,0 -0.01,0 -0.01,0.01 0,0 0,0.01 0.01,0.01l0 0zm0.01 0.05c-0.01,0 -0.01,0 -0.01,0 -0.01,0 -0.01,0.01 -0.01,0.01l-0.02 0 0 -0.01 0 -0.02 0 0 0.02 0c0,0 0,0.01 0.01,0.01 0,0 0,-0.01 0.01,-0.01 0,0 0,0.01 0,0.01 0,0.01 0,0.01 0,0.01l0 0zm-0.01 -0.01c0,0 0,-0.01 0.01,-0.01 0,0 0,0.01 0.01,0.01l0.01 0 0.01 0 0 -0.02 -0.01 -0.01 -0.01 0c-0.01,0 -0.01,0.01 -0.01,0.01 -0.01,0 -0.01,0 -0.01,0 -0.01,0 -0.01,0 -0.01,0.01 0,0 0,0.01 0.01,0.01l0 0zm0.01 0.05c-0.01,0 -0.01,-0.01 -0.01,-0.01 -0.01,0 -0.01,0.01 -0.01,0.01l-0.02 0 0 0 0 -0.02 0 0 0.02 0c0,0 0,0.01 0.01,0.01 0,0 0,-0.01 0.01,-0.01 0,0 0,0.01 0,0.01 0,0.01 0,0.01 0,0.01l0 0zm-0.01 -0.02c0,0 0,0 0.01,0 0,0 0,0.01 0.01,0.01l0.01 0 0.01 -0.01 0 -0.02 -0.01 0 -0.01 0c-0.01,0 -0.01,0.01 -0.01,0.01 -0.01,0 -0.01,-0.01 -0.01,-0.01 -0.01,0 -0.01,0.01 -0.01,0.01 0,0.01 0,0.01 0.01,0.01l0 0zm0.01 0.06c-0.01,0 -0.01,-0.01 -0.01,-0.01 -0.01,0 -0.01,0.01 -0.01,0.01l-0.02 0 0 0 0 -0.02 0 0 0.02 0c0,0 0,0.01 0.01,0.01 0,0 0,-0.01 0.01,-0.01 0,0 0,0 0,0.01 0,0 0,0.01 0,0.01l0 0zm0.03 0l-0.01 0 -0.01 0c-0.01,0 -0.01,0 -0.01,0 -0.01,0 -0.01,0 -0.01,0 -0.01,0 -0.01,0 -0.01,0l0 0.01 0 0 0 0 0 0 0 0 0 0 0 0 0 0 0 0c0,0 0,0 0.01,0 0,0 0,0 0.01,0 0,0 0,0.01 0.01,0.01l0.01 0 0.01 -0.01 0 -0.01 0 0zm-0.03 0.04c-0.01,0 -0.01,-0.01 -0.01,-0.01 -0.01,0 -0.01,0.01 -0.01,0.01l-0.02 0 0 0 0 -0.02 0 -0.01 0.02 0c0,0 0,0.01 0.01,0.01 0,0 0,0 0.01,0 0,0 0,0 0,0.01 0,0 0,0 0,0l0 0.01zm0 0.03c-0.01,0 -0.01,0 -0.01,0 -0.01,0 -0.01,0.01 -0.01,0.01l-0.02 0 0 -0.01 0 -0.02 0 0 0.02 0c0,0 0,0.01 0.01,0.01 0,0 0,-0.01 0.01,-0.01 0,0 0,0.01 0,0.01 0,0.01 0,0.01 0,0.01l0 0zm-0.01 -0.02c0,0 0,0 0.01,0 0,0 0,0.01 0.01,0.01l0.01 0 0.01 -0.01 0 -0.01 -0.01 -0.01 -0.01 0c-0.01,0 -0.01,0.01 -0.01,0.01 -0.01,0 -0.01,-0.01 -0.01,-0.01 -0.01,0 -0.01,0.01 -0.01,0.01 0,0.01 0,0.01 0.01,0.01l0 0zm0 0.04c0,0 0,0 0.01,0 0,0 0,0 0.01,0l0.01 0 0.01 0 0 -0.02 -0.01 0 -0.01 0c-0.01,0 -0.01,0.01 -0.01,0.01 -0.01,0 -0.01,-0.01 -0.01,-0.01 -0.01,0 -0.01,0.01 -0.01,0.01 0,0.01 0,0.01 0.01,0.01l0 0zm0 0.19c0,0 0,-0.01 0.01,-0.01 0,0 0,0.01 0.01,0.01l0.01 0 0.01 0 0 -0.02 -0.01 -0.01 -0.01 0c-0.01,0 -0.01,0.01 -0.01,0.01 -0.01,0 -0.01,0 -0.01,0 -0.01,0 -0.01,0 -0.01,0.01 0,0 0,0.01 0.01,0.01l0 0zm0.01 -0.17c-0.01,0 -0.01,-0.01 -0.01,-0.01 -0.01,0 -0.01,0.01 -0.01,0.01l-0.02 0 0 0 0 -0.02 0 0 0.02 0c0,0 0,0.01 0.01,0.01 0,0 0,-0.01 0.01,-0.01 0,0 0,0 0,0.01 0,0 0,0.01 0,0.01l0 0zm0.03 0l-0.01 0 -0.01 0c-0.01,0 -0.01,0.01 -0.01,0.01 -0.01,0 -0.01,-0.01 -0.01,-0.01 -0.01,0 -0.01,0 -0.01,0.01l0 0 0 0 0 0 0 0 0 0 0 0 0 0 0 0 0 0c0,0 0,0.01 0.01,0.01 0,0 0,-0.01 0.01,-0.01 0,0 0,0.01 0.01,0.01l0.01 0 0.01 0 0 -0.02 0 0zm-0.03 0.04c-0.01,0 -0.01,-0.01 -0.01,-0.01 -0.01,0 -0.01,0.01 -0.01,0.01l-0.02 0 0 0 0 -0.02 0 0 0.02 0c0,0 0,0 0.01,0 0,0 0,0 0.01,0 0,0 0,0 0,0.01 0,0 0,0.01 0,0.01l0 0zm0 0.03c-0.01,0 -0.01,0 -0.01,0 -0.01,0 -0.01,0.01 -0.01,0.01l-0.02 0 0 -0.01 0 -0.01 0 -0.01 0.02 0c0,0 0,0.01 0.01,0.01 0,0 0,-0.01 0.01,-0.01 0,0 0,0.01 0,0.01 0,0.01 0,0.01 0,0.01l0 0zm-0.01 -0.01c0,0 0,-0.01 0.01,-0.01 0,0 0,0.01 0.01,0.01l0.01 0 0.01 0 0 -0.02 -0.01 -0.01 -0.01 0c-0.01,0 -0.01,0.01 -0.01,0.01 -0.01,0 -0.01,0 -0.01,0 -0.01,0 -0.01,0 -0.01,0.01 0,0 0,0.01 0.01,0.01l0 0zm0.01 0.05c-0.01,0 -0.01,-0.01 -0.01,-0.01 -0.01,0 -0.01,0.01 -0.01,0.01l-0.02 0 0 0 0 -0.02 0 0 0.02 0c0,0 0,0.01 0.01,0.01 0,0 0,-0.01 0.01,-0.01 0,0 0,0.01 0,0.01 0,0.01 0,0.01 0,0.01l0 0zm-0.01 -0.02c0,0 0,0 0.01,0 0,0 0,0.01 0.01,0.01l0.01 0 0.01 -0.01 0 -0.02 -0.01 0 -0.01 0c-0.01,0 -0.01,0.01 -0.01,0.01 -0.01,0 -0.01,-0.01 -0.01,-0.01 -0.01,0 -0.01,0.01 -0.01,0.01 0,0.01 0,0.01 0.01,0.01l0 0zm0.01 0.06c-0.01,0 -0.01,-0.01 -0.01,-0.01 -0.01,0 -0.01,0.01 -0.01,0.01l-0.02 0 0 0 0 -0.02 0 0 0.02 0c0,0 0,0.01 0.01,0.01 0,0 0,-0.01 0.01,-0.01 0,0 0,0 0,0.01 0,0 0,0.01 0,0.01l0 0zm-0.01 -0.02c0,0 0,-0.01 0.01,-0.01 0,0 0,0.01 0.01,0.01l0.01 0 0.01 0 0 -0.02 -0.01 0 -0.01 0c-0.01,0 -0.01,0.01 -0.01,0.01 -0.01,0 -0.01,-0.01 -0.01,-0.01 -0.01,0 -0.01,0.01 -0.01,0.01 0,0.01 0,0.01 0.01,0.01l0 0zm0 0.22c0,0 0,0 0.01,0 0,0 0,0.01 0.01,0.01l0.01 0 0.01 -0.01 0 -0.02 -0.01 0 -0.01 0c-0.01,0 -0.01,0.01 -0.01,0.01 -0.01,0 -0.01,-0.01 -0.01,-0.01 -0.01,0 -0.01,0.01 -0.01,0.01 0,0.01 0,0.01 0.01,0.01l0 0zm0.01 -0.16c-0.01,0 -0.01,-0.01 -0.01,-0.01 -0.01,0 -0.01,0.01 -0.01,0.01l-0.02 0 0 0 0 -0.02 0 -0.01 0.02 0c0,0 0,0.01 0.01,0.01 0,0 0,0 0.01,0 0,0 0,0 0,0.01 0,0 0,0.01 0,0.01l0 0zm0.03 0l-0.01 -0.01 -0.01 0c-0.01,0 -0.01,0.01 -0.01,0.01 -0.01,0 -0.01,0 -0.01,0 -0.01,0 -0.01,0 -0.01,0l0 0 0 0 0 0 0 0 0 0 0 0.01 0 0 0 0 0 0c0,0 0,0 0.01,0 0,0 0,0 0.01,0 0,0 0,0 0.01,0l0.01 0 0.01 0 0 -0.02 0 0.01zm-0.07 -1.16l0.03 0 0 0.01 -0.03 0 0 -0.01zm0.04 0l0.03 0 0 0.01 -0.03 0 0 -0.01zm-0.03 1.35l0.01 0 0.01 0 0 0.01 0 0 0 0 0 0.03 0 0 -0.02 0 -0.01 0 0 -0.01 0 -0.02 0 -0.01 0.01 0 0 0zm0.03 0.01l0.02 0 0 0 0 0.03 0 0 -0.02 0 -0.01 0 0 -0.03 0.01 0zm0 -0.17c-0.01,0 -0.01,0 -0.01,0 -0.01,0 -0.01,0.01 -0.01,0.01l-0.02 0 0 -0.01 0 -0.02 0 0 0.02 0c0,0 0,0.01 0.01,0.01 0,0 0,-0.01 0.01,-0.01 0,0 0,0.01 0,0.01 0,0.01 0,0.01 0,0.01l0 0zm0 0.04c-0.01,0 -0.01,-0.01 -0.01,-0.01 -0.01,0 -0.01,0.01 -0.01,0.01l-0.02 0 0 0 0 -0.02 0 0 0.02 0c0,0 0,0.01 0.01,0.01 0,0 0,-0.01 0.01,-0.01 0,0 0,0 0,0.01 0,0.01 0,0.01 0,0.01l0 0zm-0.01 -0.02c0,0 0,0 0.01,0 0,0 0,0 0.01,0l0.01 0 0.01 0 0 -0.02 -0.01 0 -0.01 0c-0.01,0 -0.01,0.01 -0.01,0.01 -0.01,0 -0.01,-0.01 -0.01,-0.01 -0.01,0 -0.01,0.01 -0.01,0.01 0,0.01 0,0.01 0.01,0.01l0 0zm0.01 0.06c-0.01,0 -0.01,-0.01 -0.01,-0.01 -0.01,0 -0.01,0.01 -0.01,0.01l-0.02 0 0 0 0 -0.02 0 0 0.02 0c0,0 0,0 0.01,0 0,0 0,0 0.01,0 0,0 0,0 0,0.01 0,0 0,0.01 0,0.01l0 0zm-0.01 -0.02c0,0 0,-0.01 0.01,-0.01 0,0 0,0.01 0.01,0.01l0.01 0 0.01 0 0 -0.02 -0.01 0 -0.01 0c-0.01,0 -0.01,0.01 -0.01,0.01 -0.01,0 -0.01,-0.01 -0.01,-0.01 -0.01,0 -0.01,0 -0.01,0.01 0,0.01 0,0.01 0.01,0.01l0 0zm0.01 0.06c-0.01,0 -0.01,-0.01 -0.01,-0.01 -0.01,0 -0.01,0.01 -0.01,0.01l-0.02 0 0 -0.01 0 -0.01 0 -0.01 0.02 0c0,0 0,0.01 0.01,0.01 0,0 0,0 0.01,0 0,0 0,0 0,0.01 0,0 0,0.01 0,0.01l0 0zm-0.01 -0.02c0,0 0,-0.01 0.01,-0.01 0,0 0,0.01 0.01,0.01l0.01 0 0.01 0 0 -0.02 -0.01 0 -0.01 0c-0.01,0 -0.01,0 -0.01,0 -0.01,0 -0.01,0 -0.01,0 -0.01,0 -0.01,0 -0.01,0.01 0,0 0,0.01 0.01,0.01l0 0zm-0.5 0.08c0,0 0,-0.01 -0.01,-0.01 0,0 0,0.01 -0.01,0.01l-0.01 0 0 0 0 -0.02 0 0 0.01 0c0.01,0 0.01,0.01 0.01,0.01 0.01,0 0.01,-0.01 0.01,-0.01 0.01,0 0.01,0 0.01,0.01 0,0 0,0.01 -0.01,0.01l0 0zm-0.03 0.06l0.06 0 0 0.03 -0.06 0 0 -0.03zm0.02 -0.56c0.01,0 0.01,-0.01 0.02,-0.01 0,0 0,0.01 0,0.01l0.02 0 0 0 0 -0.02 0 0 -0.02 0c0,0 0,0.01 0,0.01 -0.01,0 -0.01,-0.01 -0.02,-0.01 0,0 0,0 0,0.01 0,0 0,0.01 0,0.01l0 0zm0.01 -0.17c0,0 0,-0.01 -0.01,-0.01 0,0 0,0.01 -0.01,0.01l-0.01 0 0 0 0 -0.02 0 0 0.01 0c0.01,0 0.01,0.01 0.01,0.01 0.01,0 0.01,-0.01 0.01,-0.01 0.01,0 0.01,0.01 0.01,0.01 0,0.01 0,0.01 -0.01,0.01l0 0zm0.03 0l0 0 -0.02 0c0,0 0,0.01 -0.01,0.01 0,0 0,-0.01 -0.01,-0.01 0,0 0,0 0,0.01l0 0 0 0 0 0 0 0 0 0 0 0 0 0 0 0 0 0c0,0 0,0.01 0,0.01 0.01,0 0.01,-0.01 0.01,-0.01 0.01,0 0.01,0.01 0.01,0.01l0.02 0 0 0 0 -0.02 0 0zm-0.03 0.04c0,0 0,-0.01 -0.01,-0.01 0,0 0,0.01 -0.01,0.01l-0.01 0 0 0 0 -0.02 0 0 0.01 0c0.01,0 0.01,0.01 0.01,0.01 0.01,0 0.01,-0.01 0.01,-0.01 0.01,0 0.01,0 0.01,0.01 0,0 0,0.01 -0.01,0.01l0 0zm0 0.04c0,0 0,-0.01 -0.01,-0.01 0,0 0,0.01 -0.01,0.01l-0.01 0 0 -0.01 0 -0.01 0 -0.01 0.01 0c0.01,0 0.01,0.01 0.01,0.01 0.01,0 0.01,0 0.01,0 0.01,0 0.01,0 0.01,0.01 0,0 0,0 -0.01,0l0 0.01zm-0.01 -0.02c0.01,0 0.01,-0.01 0.02,-0.01 0,0 0,0.01 0,0.01l0.02 0 0 0 0 -0.02 0 0 -0.02 0c0,0 0,0 0,0 -0.01,0 -0.01,0 -0.02,0 0,0 0,0 0,0.01 0,0 0,0.01 0,0.01l0 0zm0.01 0.05c0,0 0,0 -0.01,0 0,0 0,0.01 -0.01,0.01l-0.01 0 0 -0.01 0 -0.02 0 0 0.01 0c0.01,0 0.01,0.01 0.01,0.01 0.01,0 0.01,-0.01 0.01,-0.01 0.01,0 0.01,0.01 0.01,0.01 0,0.01 0,0.01 -0.01,0.01l0 0zm-0.01 -0.02c0.01,0 0.01,0 0.02,0 0,0 0,0.01 0,0.01l0.02 0 0 -0.01 0 -0.01 0 -0.01 -0.02 0c0,0 0,0.01 0,0.01 -0.01,0 -0.01,0 -0.02,0 0,0 0,0 0,0 0,0.01 0,0.01 0,0.01l0 0zm0.01 0.06c0,0 0,-0.01 -0.01,-0.01 0,0 0,0.01 -0.01,0.01l-0.01 0 0 0 0 -0.02 0 0 0.01 0c0.01,0 0.01,0.01 0.01,0.01 0.01,0 0.01,-0.01 0.01,-0.01 0.01,0 0.01,0.01 0.01,0.01 0,0.01 0,0.01 -0.01,0.01l0 0zm-0.01 -0.02c0.01,0 0.01,0 0.02,0 0,0 0,0 0,0l0.02 0 0 0 0 -0.02 0 0 -0.02 0c0,0 0,0.01 0,0.01 -0.01,0 -0.01,-0.01 -0.02,-0.01 0,0 0,0.01 0,0.01 0,0.01 0,0.01 0,0.01l0 0zm0.01 0.06c0,0 0,-0.01 -0.01,-0.01 0,0 0,0.01 -0.01,0.01l-0.01 0 0 0 0 -0.02 0 0 0.01 0c0.01,0 0.01,0 0.01,0 0.01,0 0.01,0 0.01,0 0.01,0 0.01,0 0.01,0.01 0,0 0,0.01 -0.01,0.01l0 0zm0.03 0l0 -0.01 -0.02 0c0,0 0,0.01 -0.01,0.01 0,0 0,0 -0.01,0 0,0 0,0 0,0l0 0 0 0 0 0.01 0 0 0 0 0 0 0 0 0 0 0 0c0,0 0,0 0,0 0.01,0 0.01,0 0.01,0 0.01,0 0.01,0.01 0.01,0.01l0.02 0 0 -0.01 0 -0.02 0 0.01zm-0.03 0.03c0,0 0,0 -0.01,0 0,0 0,0.01 -0.01,0.01l-0.01 0 0 -0.01 0 -0.01 0 -0.01 0.01 0c0.01,0 0.01,0.01 0.01,0.01 0.01,0 0.01,0 0.01,0 0.01,0 0.01,0 0.01,0 0,0.01 0,0.01 -0.01,0.01l0 0zm0 0.04c0,0 0,0 -0.01,0 0,0 0,0 -0.01,0l-0.01 0 0 0 0 -0.02 0 0 0.01 0c0.01,0 0.01,0.01 0.01,0.01 0.01,0 0.01,-0.01 0.01,-0.01 0.01,0 0.01,0.01 0.01,0.01 0,0.01 0,0.01 -0.01,0.01l0 0zm-0.01 -0.02c0.01,0 0.01,0 0.02,0 0,0 0,0.01 0,0.01l0.02 0 0 -0.01 0 -0.02 0 0 -0.02 0c0,0 0,0.01 0,0.01 -0.01,0 -0.01,-0.01 -0.02,-0.01 0,0 0,0.01 0,0.01 0,0.01 0,0.01 0,0.01l0 0zm0 0.04c0.01,0 0.01,-0.01 0.02,-0.01 0,0 0,0.01 0,0.01l0.02 0 0 0 0 -0.02 0 0 -0.02 0c0,0 0,0.01 0,0.01 -0.01,0 -0.01,-0.01 -0.02,-0.01 0,0 0,0.01 0,0.01 0,0.01 0,0.01 0,0.01l0 0zm0 0.19c0.01,0 0.01,-0.01 0.02,-0.01 0,0 0,0.01 0,0.01l0.02 0 0 0 0 -0.02 0 -0.01 -0.02 0c0,0 0,0.01 0,0.01 -0.01,0 -0.01,0 -0.02,0 0,0 0,0 0,0.01 0,0 0,0.01 0,0.01l0 0zm0.01 -0.17c0,0 0,-0.01 -0.01,-0.01 0,0 0,0.01 -0.01,0.01l-0.01 0 0 0 0 -0.02 0 0 0.01 0c0.01,0 0.01,0.01 0.01,0.01 0.01,0 0.01,-0.01 0.01,-0.01 0.01,0 0.01,0 0.01,0.01 0,0 0,0.01 -0.01,0.01l0 0zm0.03 0l0 0 -0.02 0c0,0 0,0.01 -0.01,0.01 0,0 0,-0.01 -0.01,-0.01 0,0 0,0 0,0.01l0 0 0 0 0 0 0 0 0 0 0 0 0 0 0 0 0 0c0,0 0,0 0,0 0.01,0 0.01,0 0.01,0 0.01,0 0.01,0.01 0.01,0.01l0.02 0 0 -0.01 0 -0.01 0 0zm-0.03 0.04c0,0 0,-0.01 -0.01,-0.01 0,0 0,0.01 -0.01,0.01l-0.01 0 0 0 0 -0.02 0 -0.01 0.01 0c0.01,0 0.01,0.01 0.01,0.01 0.01,0 0.01,0 0.01,0 0.01,0 0.01,0 0.01,0.01 0,0 0,0.01 -0.01,0.01l0 0zm0 0.03c0,0 0,0 -0.01,0 0,0 0,0.01 -0.01,0.01l-0.01 0 0 -0.01 0 -0.02 0 0 0.01 0c0.01,0 0.01,0.01 0.01,0.01 0.01,0 0.01,-0.01 0.01,-0.01 0.01,0 0.01,0.01 0.01,0.01 0,0.01 0,0.01 -0.01,0.01l0 0zm-0.01 -0.01c0.01,0 0.01,-0.01 0.02,-0.01 0,0 0,0.01 0,0.01l0.02 0 0 -0.01 0 -0.01 0 -0.01 -0.02 0c0,0 0,0.01 0,0.01 -0.01,0 -0.01,0 -0.02,0 0,0 0,0 0,0 0,0.01 0,0.01 0,0.01l0 0.01zm0.01 0.05c0,0 0,-0.01 -0.01,-0.01 0,0 0,0.01 -0.01,0.01l-0.01 0 0 0 0 -0.02 0 0 0.01 0c0.01,0 0.01,0.01 0.01,0.01 0.01,0 0.01,-0.01 0.01,-0.01 0.01,0 0.01,0.01 0.01,0.01 0,0.01 0,0.01 -0.01,0.01l0 0zm-0.01 -0.02c0.01,0 0.01,0 0.02,0 0,0 0,0.01 0,0.01l0.02 0 0 -0.01 0 -0.02 0 0 -0.02 0c0,0 0,0.01 0,0.01 -0.01,0 -0.01,-0.01 -0.02,-0.01 0,0 0,0.01 0,0.01 0,0.01 0,0.01 0,0.01l0 0zm0.01 0.06c0,0 0,-0.01 -0.01,-0.01 0,0 0,0.01 -0.01,0.01l-0.01 0 0 0 0 -0.02 0 0 0.01 0c0.01,0 0.01,0.01 0.01,0.01 0.01,0 0.01,-0.01 0.01,-0.01 0.01,0 0.01,0 0.01,0.01 0,0 0,0.01 -0.01,0.01l0 0zm-0.01 -0.02c0.01,0 0.01,-0.01 0.02,-0.01 0,0 0,0.01 0,0.01l0.02 0 0 0 0 -0.02 0 0 -0.02 0c0,0 0,0.01 0,0.01 -0.01,0 -0.01,-0.01 -0.02,-0.01 0,0 0,0 0,0.01 0,0.01 0,0.01 0,0.01l0 0zm0 0.22c0.01,0 0.01,0 0.02,0 0,0 0,0.01 0,0.01l0.02 0 0 -0.01 0 -0.02 0 0 -0.02 0c0,0 0,0.01 0,0.01 -0.01,0 -0.01,-0.01 -0.02,-0.01 0,0 0,0.01 0,0.01 0,0.01 0,0.01 0,0.01l0 0zm0.01 -0.16c0,0 0,-0.01 -0.01,-0.01 0,0 0,0.01 -0.01,0.01l-0.01 0 0 -0.01 0 -0.01 0 -0.01 0.01 0c0.01,0 0.01,0.01 0.01,0.01 0.01,0 0.01,0 0.01,0 0.01,0 0.01,0 0.01,0 0,0.01 0,0.01 -0.01,0.01l0 0.01zm0.03 0l0 -0.01 -0.02 0c0,0 0,0.01 -0.01,0.01 0,0 0,0 -0.01,0 0,0 0,0 0,0l0 0 0 0 0 0 0 0 0 0 0 0 0 0 0 0.01 0 0c0,0 0,0 0,0 0.01,0 0.01,-0.01 0.01,-0.01 0.01,0 0.01,0.01 0.01,0.01l0.02 0 0 0 0 -0.02 0 0.01zm-0.06 -0.53l0.02 0 0 0.02 -0.02 0 0 -0.02zm0.04 0l0.02 0 0 0.02 -0.02 0 0 -0.02zm-0.04 0.72l0.02 0 0 0 0 0.01 0.01 0 0 0 0 0.03 0 0 -0.03 0 0 0 0 -0.01 0 -0.02 0 -0.01 0 0 0 0zm0.03 0.01l0.03 0 0 0 0 0.03 0 0 -0.03 0 0 0 0 -0.03 0 0zm0 -0.17c0,0 0,0 -0.01,0 0,0 0,0.01 -0.01,0.01l-0.01 0 0 -0.01 0 -0.02 0 0 0.01 0c0.01,0 0.01,0.01 0.01,0.01 0.01,0 0.01,-0.01 0.01,-0.01 0.01,0 0.01,0.01 0.01,0.01 0,0.01 0,0.01 -0.01,0.01l0 0zm0 0.04c0,0 0,-0.01 -0.01,-0.01 0,0 0,0.01 -0.01,0.01l-0.01 0 0 0 0 -0.02 0 0 0.01 0c0.01,0 0.01,0.01 0.01,0.01 0.01,0 0.01,-0.01 0.01,-0.01 0.01,0 0.01,0 0.01,0.01 0,0 0,0.01 -0.01,0.01l0 0zm-0.01 -0.02c0.01,0 0.01,-0.01 0.02,-0.01 0,0 0,0.01 0,0.01l0.02 0 0 0 0 -0.02 0 0 -0.02 0c0,0 0,0.01 0,0.01 -0.01,0 -0.01,-0.01 -0.02,-0.01 0,0 0,0.01 0,0.01 0,0.01 0,0.01 0,0.01l0 0zm0.01 0.06c0,0 0,-0.01 -0.01,-0.01 0,0 0,0.01 -0.01,0.01l-0.01 0 0 0 0 -0.02 0 -0.01 0.01 0c0.01,0 0.01,0.01 0.01,0.01 0.01,0 0.01,0 0.01,0 0.01,0 0.01,0 0.01,0.01 0,0 0,0.01 -0.01,0.01l0 0zm-0.01 -0.02c0.01,0 0.01,-0.01 0.02,-0.01 0,0 0,0.01 0,0.01l0.02 0 0 0 0 -0.02 0 0 -0.02 0c0,0 0,0.01 0,0.01 -0.01,0 -0.01,-0.01 -0.02,-0.01 0,0 0,0 0,0.01 0,0 0,0.01 0,0.01l0 0zm0.01 0.05c0,0 0,0 -0.01,0 0,0 0,0.01 -0.01,0.01l-0.01 0 0 -0.01 0 -0.01 0 -0.01 0.01 0c0.01,0 0.01,0.01 0.01,0.01 0.01,0 0.01,0 0.01,0 0.01,0 0.01,0 0.01,0 0,0.01 0,0.01 -0.01,0.01l0 0zm-0.01 -0.01c0.01,0 0.01,-0.01 0.02,-0.01 0,0 0,0.01 0,0.01l0.02 0 0 0 0 -0.02 0 -0.01 -0.02 0c0,0 0,0.01 0,0.01 -0.01,0 -0.01,0 -0.02,0 0,0 0,0 0,0.01 0,0 0,0.01 0,0.01l0 0z"/>
 </g>
</svg>
