<?xml version="1.0" encoding="UTF-8"?>
<!DOCTYPE svg PUBLIC "-//W3C//DTD SVG 1.1//EN" "http://www.w3.org/Graphics/SVG/1.1/DTD/svg11.dtd">
<!-- Creator: CorelDRAW 2021 (64-Bit) -->
<svg xmlns="http://www.w3.org/2000/svg" xml:space="preserve" width="58px" height="58px" version="1.1" style="shape-rendering:geometricPrecision; text-rendering:geometricPrecision; image-rendering:optimizeQuality; fill-rule:evenodd; clip-rule:evenodd"
viewBox="0 0 1.56 1.56"
 xmlns:xlink="http://www.w3.org/1999/xlink"
 xmlns:xodm="http://www.corel.com/coreldraw/odm/2003">
 <defs>
  <style type="text/css">
   <![CDATA[
    .fil0 {fill:#2B2A29}
   ]]>
  </style>
 </defs>
 <g id="Katman_x0020_1">
  <metadata id="CorelCorpID_0Corel-Layer"/>
  <path class="fil0" d="M0.13 0l1.3 0c0.07,0 0.13,0.06 0.13,0.13l0 1.3c0,0.07 -0.06,0.13 -0.13,0.13l-1.3 0c-0.07,0 -0.13,-0.06 -0.13,-0.13l0 -1.3c0,-0.07 0.06,-0.13 0.13,-0.13l0 0zm0.64 0.92c0.01,0 0.01,-0.02 0.03,-0.02 0.02,0 0.02,0.03 0.03,0.03l0.04 0 0.01 -0.01 0 -0.05 -0.01 -0.01 -0.04 0c-0.01,0 -0.02,0.03 -0.03,0.03 -0.02,0 -0.02,-0.02 -0.03,-0.02 -0.01,0 -0.02,0.01 -0.02,0.02 0,0.02 0.01,0.03 0.02,0.03l0 0zm-0.19 -0.6l0.4 0 0 0.92 -0.12 0c0,0 0,0 0,0l0 -0.1c0,0 0,-0.01 -0.01,-0.01l-0.14 0c0,0 -0.01,0.01 -0.01,0.01l0 0.1c0,0 0,0 0,0l-0.12 0 0 -0.92 0 0zm0.22 0.02l0.08 0 0 0.03 -0.08 0 0 -0.03zm0 0.11c-0.02,0 -0.02,-0.02 -0.03,-0.02 -0.02,0 -0.02,0.02 -0.03,0.02l-0.04 0 -0.01 -0.01 0 -0.05 0.01 -0.01 0.04 0c0.01,0 0.01,0.03 0.03,0.03 0.01,0 0.01,-0.02 0.03,-0.02 0.01,0 0.01,0.01 0.01,0.03 0,0.01 0,0.02 -0.01,0.02l0 0.01zm0.08 0l-0.01 -0.01 -0.04 0c-0.01,0 -0.02,0.02 -0.03,0.02 -0.02,0 -0.02,-0.02 -0.03,-0.02 -0.01,0 -0.02,0.01 -0.02,0.02l0 0 0 0.01 0 0 0 0 0 0 0 0 0 0 0 0 0 0 0 0 0 0 0 0 0 0 0 0 0 0 0 0 0 0 0 0 0 0 0 0 0 0 0 0.01 0 0 0 0 0 0 0 0 0 0c0,0.01 0.01,0.01 0.02,0.01 0.01,0 0.01,-0.02 0.03,-0.02 0.01,0 0.02,0.03 0.03,0.03l0.04 0 0.01 -0.01 0 -0.05 0 0.01zm-0.19 -0.11l0.07 0 0 0.03 -0.07 0 0 -0.03zm0.02 0.66l0.05 0 0 0 0 0.03 0.02 0 0 0 0 0.08 0 0.01 -0.07 0 -0.01 -0.01 0 -0.03 0 -0.05 0 -0.03 0.01 0 0 0zm0.08 0.01l0.07 0 0 0.01 0 0.09 0 0.01 -0.07 0 0 -0.01 0 -0.09 0 -0.01zm0.01 -0.46c-0.02,0 -0.02,-0.02 -0.03,-0.02 -0.02,0 -0.02,0.03 -0.03,0.03l-0.04 0 -0.01 -0.01 0 -0.05 0.01 -0.01 0.04 0c0.01,0 0.01,0.03 0.03,0.03 0.01,0 0.01,-0.02 0.03,-0.02 0.01,0 0.01,0.01 0.01,0.02 0,0.02 0,0.03 -0.01,0.03l0 0zm0 0.11c-0.02,0 -0.02,-0.02 -0.03,-0.02 -0.02,0 -0.02,0.02 -0.03,0.02l-0.04 0 -0.01 -0.01 0 -0.05 0.01 -0.01 0.04 0c0.01,0 0.01,0.03 0.03,0.03 0.01,0 0.01,-0.02 0.03,-0.02 0.01,0 0.01,0.01 0.01,0.03 0,0.01 0,0.03 -0.01,0.03l0 0zm-0.03 -0.06c0.01,0 0.01,-0.02 0.03,-0.02 0.02,0 0.02,0.03 0.03,0.03l0.04 0 0.01 -0.01 0 -0.05 -0.01 -0.01 -0.04 0c-0.01,0 -0.01,0.03 -0.03,0.03 -0.02,0 -0.02,-0.02 -0.03,-0.02 -0.01,0 -0.02,0.01 -0.02,0.03 0,0.01 0.01,0.02 0.02,0.02l0 0zm0.03 0.16c-0.02,0 -0.02,-0.02 -0.03,-0.02 -0.02,0 -0.02,0.03 -0.03,0.03l-0.04 0 -0.01 -0.01 0 -0.05 0.01 -0.01 0.04 0c0.01,0 0.01,0.03 0.03,0.03 0.01,0 0.01,-0.02 0.03,-0.02 0.01,0 0.01,0.01 0.01,0.02 0,0.02 0,0.03 -0.01,0.03l0 0zm-0.03 -0.05c0.01,0 0.01,-0.02 0.03,-0.02 0.02,0 0.02,0.03 0.03,0.03l0.04 0 0.01 -0.01 0 -0.05 -0.01 -0.01 -0.04 0c-0.01,0 -0.01,0.02 -0.03,0.02 -0.02,0 -0.02,-0.01 -0.03,-0.01 -0.01,0 -0.02,0.01 -0.02,0.02 0,0.02 0.01,0.03 0.02,0.03l0 0zm0.03 0.16c-0.02,0 -0.02,-0.02 -0.03,-0.02 -0.02,0 -0.02,0.02 -0.03,0.02l-0.04 0 -0.01 0 0 -0.06 0.01 -0.01 0.04 0c0.01,0 0.01,0.03 0.03,0.03 0.01,0 0.01,-0.02 0.03,-0.02 0.01,0 0.01,0.01 0.01,0.03 0,0.01 0,0.03 -0.01,0.03l0 0zm-0.03 -0.06c0.01,0 0.01,-0.01 0.03,-0.01 0.02,0 0.02,0.02 0.03,0.02l0.04 0 0.01 -0.01 0 -0.05 -0.01 -0.01 -0.04 0c-0.01,0 -0.01,0.03 -0.03,0.03 -0.02,0 -0.02,-0.02 -0.03,-0.02 -0.01,0 -0.02,0.01 -0.02,0.03 0,0.01 0.01,0.02 0.02,0.02l0 0zm0.03 0.16c-0.02,0 -0.02,-0.02 -0.03,-0.02 -0.02,0 -0.02,0.03 -0.03,0.03l-0.04 0 -0.01 -0.01 0 -0.05 0.01 -0.01 0.04 0c0.01,0 0.01,0.03 0.03,0.03 0.01,0 0.01,-0.02 0.03,-0.02 0.01,0 0.01,0.01 0.01,0.02 0,0.02 0,0.03 -0.01,0.03l0 0z"/>
 </g>
</svg>
