<?xml version="1.0" encoding="UTF-8"?>
<!DOCTYPE svg PUBLIC "-//W3C//DTD SVG 1.1//EN" "http://www.w3.org/Graphics/SVG/1.1/DTD/svg11.dtd">
<!-- Creator: CorelDRAW 2021 (64-Bit) -->
<svg xmlns="http://www.w3.org/2000/svg" xml:space="preserve" width="58px" height="58px" version="1.1" style="shape-rendering:geometricPrecision; text-rendering:geometricPrecision; image-rendering:optimizeQuality; fill-rule:evenodd; clip-rule:evenodd"
viewBox="0 0 1.81 1.81"
 xmlns:xlink="http://www.w3.org/1999/xlink"
 xmlns:xodm="http://www.corel.com/coreldraw/odm/2003">
 <defs>
  <style type="text/css">
   <![CDATA[
    .fil0 {fill:#2B2A29}
   ]]>
  </style>
 </defs>
 <g id="Katman_x0020_1">
  <metadata id="CorelCorpID_0Corel-Layer"/>
  <path class="fil0" d="M0.15 0l1.5 0c0.09,0 0.16,0.07 0.16,0.15l0 1.5c0,0.09 -0.07,0.16 -0.16,0.16l-1.5 0c-0.08,0 -0.15,-0.07 -0.15,-0.16l0 -1.5c0,-0.08 0.07,-0.15 0.15,-0.15l0 0zm0.25 0.6l1 0c0.02,0 0.03,0.01 0.03,0.03l0 0.55c0,0.01 -0.01,0.02 -0.03,0.02l-1 0c-0.01,0 -0.02,-0.01 -0.02,-0.02l0 -0.55c0,-0.01 0.01,-0.03 0.02,-0.03zm0.81 0.21l0.09 0 0 0.27 -0.09 0 0 -0.27zm-0.7 0.03l0.42 0c0.01,0 0.01,0 0.01,0.01l0 0.04c0,0 0,0 -0.01,0l-0.42 0c0,0 0,0 0,0l0 -0.04c0,-0.01 0,-0.01 0,-0.01zm0 0.09l0.66 0c0,0 0,0 0,0l0 0.04c0,0 0,0.01 0,0.01l-0.66 0c0,0 0,-0.01 0,-0.01l0 -0.04c0,0 0,0 0,0zm0 0.09l0.58 0c0,0 0,0 0,0l0 0.04c0,0 0,0.01 0,0.01l-0.58 0c0,0 0,-0.01 0,-0.01l0 -0.04c0,0 0,0 0,0zm-0.02 -0.25l0.82 0c0.02,0 0.03,0.01 0.03,0.03l0 0.3c0,0.01 -0.01,0.02 -0.03,0.02l-0.82 0c-0.01,0 -0.02,-0.01 -0.02,-0.02l0 -0.3c0,-0.01 0.01,-0.03 0.02,-0.03z"/>
 </g>
</svg>
