<?xml version="1.0" encoding="UTF-8"?>
<!DOCTYPE svg PUBLIC "-//W3C//DTD SVG 1.1//EN" "http://www.w3.org/Graphics/SVG/1.1/DTD/svg11.dtd">
<!-- Creator: CorelDRAW 2021 (64-Bit) -->
<svg xmlns="http://www.w3.org/2000/svg" xml:space="preserve" width="58px" height="58px" version="1.1" style="shape-rendering:geometricPrecision; text-rendering:geometricPrecision; image-rendering:optimizeQuality; fill-rule:evenodd; clip-rule:evenodd"
viewBox="0 0 1.68 1.68"
 xmlns:xlink="http://www.w3.org/1999/xlink"
 xmlns:xodm="http://www.corel.com/coreldraw/odm/2003">
 <defs>
  <style type="text/css">
   <![CDATA[
    .fil0 {fill:#2B2A29}
   ]]>
  </style>
 </defs>
 <g id="Katman_x0020_1">
  <metadata id="CorelCorpID_0Corel-Layer"/>
  <path class="fil0" d="M0.14 0l1.4 0c0.08,0 0.14,0.06 0.14,0.14l0 1.4c0,0.08 -0.06,0.14 -0.14,0.14l-1.4 0c-0.08,0 -0.14,-0.06 -0.14,-0.14l0 -1.4c0,-0.08 0.06,-0.14 0.14,-0.14l0 0zm1 0.43l0.05 0 0 0.38 0.07 0 0 0.19 -0.07 0 0 0.25 -0.05 0 0 -0.25 -0.07 0 0 -0.19 0.03 0 0.04 0 0 -0.38zm-0.7 0.58l0.05 0 0 -0.58 0.05 0 0 0.58 0.07 0 0 0.19 -0.07 0 0 0.05 -0.05 0 0 -0.05 -0.07 0 0 -0.19 0.02 0zm0.12 0.05l-0.09 0 0 0.09 0.09 0 0 -0.09zm0.21 -0.47l0.04 0 0 -0.16 0.06 0 0 0.16 0.07 0 0 0.19 -0.07 0 0 0.47 -0.06 0 0 -0.47 -0.07 0 0 -0.19 0.03 0zm0.12 0.05l-0.1 0 0 0.09 0.1 0 0 -0.09zm0.32 0.22l-0.09 0 0 0.09 0.09 0 0 -0.09z"/>
 </g>
</svg>
