<?xml version="1.0" encoding="UTF-8"?>
<!DOCTYPE svg PUBLIC "-//W3C//DTD SVG 1.1//EN" "http://www.w3.org/Graphics/SVG/1.1/DTD/svg11.dtd">
<!-- Creator: CorelDRAW 2021 (64-Bit) -->
<svg xmlns="http://www.w3.org/2000/svg" xml:space="preserve" width="58px" height="58px" version="1.1" style="shape-rendering:geometricPrecision; text-rendering:geometricPrecision; image-rendering:optimizeQuality; fill-rule:evenodd; clip-rule:evenodd"
viewBox="0 0 1.72 1.72"
 xmlns:xlink="http://www.w3.org/1999/xlink"
 xmlns:xodm="http://www.corel.com/coreldraw/odm/2003">
 <defs>
  <style type="text/css">
   <![CDATA[
    .fil0 {fill:#2B2A29}
   ]]>
  </style>
 </defs>
 <g id="Katman_x0020_1">
  <metadata id="CorelCorpID_0Corel-Layer"/>
  <path class="fil0" d="M0.15 0l1.42 0c0.08,0 0.15,0.07 0.15,0.15l0 1.42c0,0.08 -0.07,0.15 -0.15,0.15l-1.42 0c-0.08,0 -0.15,-0.07 -0.15,-0.15l0 -1.42c0,-0.08 0.07,-0.15 0.15,-0.15l0 0zm1.01 0.55c0.03,-0.03 0.08,-0.03 0.12,0 0.03,0.03 0.03,0.09 0,0.12l-0.49 0.5c-0.03,0.03 -0.09,0.03 -0.12,0l-0.23 -0.22c-0.03,-0.03 -0.03,-0.09 0,-0.12 0.03,-0.04 0.09,-0.04 0.12,0l0.17 0.16 0.43 -0.44 0 0z"/>
 </g>
</svg>
