<?xml version="1.0" encoding="UTF-8"?>
<!DOCTYPE svg PUBLIC "-//W3C//DTD SVG 1.1//EN" "http://www.w3.org/Graphics/SVG/1.1/DTD/svg11.dtd">
<!-- Creator: CorelDRAW 2021 (64-Bit) -->
<svg xmlns="http://www.w3.org/2000/svg" xml:space="preserve" width="51px" height="51px" version="1.1" style="shape-rendering:geometricPrecision; text-rendering:geometricPrecision; image-rendering:optimizeQuality; fill-rule:evenodd; clip-rule:evenodd"
viewBox="0 0 1.49 1.49"
 xmlns:xlink="http://www.w3.org/1999/xlink"
 xmlns:xodm="http://www.corel.com/coreldraw/odm/2003">
 <defs>
  <style type="text/css">
   <![CDATA[
    .fil0 {fill:#2B2A29}
   ]]>
  </style>
 </defs>
 <g id="Katman_x0020_1">
  <metadata id="CorelCorpID_0Corel-Layer"/>
  <path class="fil0" d="M0.75 0.13c0.34,0 0.61,0.28 0.61,0.62 0,0.34 -0.27,0.61 -0.61,0.61 -0.34,0 -0.62,-0.27 -0.62,-0.61 0,-0.34 0.28,-0.62 0.62,-0.62zm0.71 0.62c0,-0.2 -0.08,-0.38 -0.21,-0.51 -0.13,-0.12 -0.31,-0.2 -0.5,-0.2 -0.2,0 -0.38,0.08 -0.51,0.2 -0.12,0.13 -0.2,0.31 -0.2,0.51 0,0.19 0.08,0.37 0.2,0.5 0.13,0.13 0.31,0.21 0.51,0.21 0.19,0 0.37,-0.08 0.5,-0.21 0.13,-0.13 0.21,-0.31 0.21,-0.5zm-0.18 -0.53c0.13,0.13 0.21,0.32 0.21,0.53 0,0.2 -0.08,0.39 -0.21,0.53 -0.14,0.13 -0.33,0.21 -0.53,0.21 -0.21,0 -0.4,-0.08 -0.53,-0.21 -0.14,-0.14 -0.22,-0.33 -0.22,-0.53 0,-0.21 0.08,-0.4 0.22,-0.53 0.13,-0.14 0.32,-0.22 0.53,-0.22 0.2,0 0.39,0.08 0.53,0.22zm-0.09 0.69l-0.1 0c-0.01,-0.04 -0.05,-0.07 -0.09,-0.07 -0.05,0 -0.08,0.03 -0.09,0.07l-0.02 0 0 -0.28 0.19 0 0.11 0.16 0 0.12 0 0zm-0.52 -0.32c0.01,-0.01 0.03,-0.01 0.04,0 0.01,0.02 0.01,0.03 0,0.04l-0.16 0.17c-0.01,0.01 -0.03,0.01 -0.04,0l-0.07 -0.07c-0.02,-0.02 -0.02,-0.03 -0.01,-0.04 0.02,-0.01 0.03,-0.02 0.04,0l0.06 0.05 0.14 -0.15 0 0zm0.29 0.16l0 -0.06 0.09 0 0.04 0.06 -0.13 0zm0.1 -0.09l-0.12 0c-0.01,0 -0.02,0.01 -0.02,0.02l0 0.09c0,0.01 0.01,0.02 0.02,0.02l0.18 0c0.01,0 0.02,0 0.02,-0.01 0,0 0,-0.01 0,-0.02l-0.07 -0.1c0,0 -0.01,0 -0.01,0l0 0zm-0.06 0.33c-0.03,0 -0.06,-0.03 -0.06,-0.06 0,-0.03 0.03,-0.05 0.06,-0.05 0.03,0 0.05,0.02 0.05,0.05 0,0.03 -0.02,0.06 -0.05,0.06zm-0.57 -0.11c0.03,0 0.05,0.02 0.05,0.05 0,0.03 -0.02,0.06 -0.05,0.06 -0.03,0 -0.06,-0.03 -0.06,-0.06 0,-0.03 0.03,-0.05 0.06,-0.05zm0.68 -0.28c-0.01,-0.01 -0.01,-0.01 -0.02,-0.01l-0.2 0 0 -0.1c0,-0.01 -0.01,-0.02 -0.02,-0.02l-0.59 0c-0.01,0 -0.01,0.01 -0.01,0.02l0 0.44c0,0.01 0,0.02 0.01,0.02l0.06 0c0.01,0.04 0.04,0.07 0.09,0.07 0.04,0 0.08,-0.03 0.09,-0.07l0.06 0c0.01,0 0.02,-0.01 0.02,-0.02 0,-0.01 -0.01,-0.02 -0.02,-0.02l-0.06 0c-0.01,-0.04 -0.05,-0.07 -0.09,-0.07 -0.05,0 -0.08,0.03 -0.09,0.07l-0.04 0 0 -0.4 0.55 0 0 0.4 -0.21 0c-0.01,0 -0.01,0.01 -0.01,0.02 0,0.01 0,0.02 0.01,0.02l0.27 0c0.01,0.04 0.05,0.07 0.09,0.07 0.04,0 0.08,-0.03 0.09,-0.07l0.12 0c0.01,0 0.02,-0.01 0.02,-0.02l0 -0.15c0,0 0,0 -0.01,-0.01l-0.11 -0.17 0 0z"/>
 </g>
</svg>
