<?xml version="1.0" encoding="UTF-8"?>
<!DOCTYPE svg PUBLIC "-//W3C//DTD SVG 1.1//EN" "http://www.w3.org/Graphics/SVG/1.1/DTD/svg11.dtd">
<!-- Creator: CorelDRAW 2021 (64-Bit) -->
<svg xmlns="http://www.w3.org/2000/svg" xml:space="preserve" width="51px" height="51px" version="1.1" style="shape-rendering:geometricPrecision; text-rendering:geometricPrecision; image-rendering:optimizeQuality; fill-rule:evenodd; clip-rule:evenodd"
viewBox="0 0 1.98 1.98"
 xmlns:xlink="http://www.w3.org/1999/xlink"
 xmlns:xodm="http://www.corel.com/coreldraw/odm/2003">
 <defs>
  <style type="text/css">
   <![CDATA[
    .fil0 {fill:#2B2A29}
   ]]>
  </style>
 </defs>
 <g id="Katman_x0020_1">
  <metadata id="CorelCorpID_0Corel-Layer"/>
  <path class="fil0" d="M0.99 0.18c0.45,0 0.82,0.36 0.82,0.81 0,0.45 -0.37,0.82 -0.82,0.82 -0.45,0 -0.81,-0.37 -0.81,-0.82 0,-0.45 0.36,-0.81 0.81,-0.81zm0.95 0.81c0,-0.26 -0.11,-0.49 -0.28,-0.67 -0.17,-0.17 -0.41,-0.27 -0.67,-0.27 -0.26,0 -0.49,0.1 -0.67,0.27 -0.17,0.18 -0.27,0.41 -0.27,0.67 0,0.26 0.1,0.5 0.27,0.67 0.18,0.17 0.41,0.28 0.67,0.28 0.26,0 0.5,-0.11 0.67,-0.28 0.17,-0.17 0.28,-0.41 0.28,-0.67zm-0.25 -0.7c0.18,0.18 0.29,0.43 0.29,0.7 0,0.28 -0.11,0.52 -0.29,0.7 -0.18,0.18 -0.42,0.29 -0.7,0.29 -0.27,0 -0.52,-0.11 -0.7,-0.29 -0.18,-0.18 -0.29,-0.42 -0.29,-0.7 0,-0.27 0.11,-0.52 0.29,-0.7 0.18,-0.18 0.43,-0.29 0.7,-0.29 0.28,0 0.52,0.11 0.7,0.29zm-0.87 0.5l-0.02 0.14c0,0 0,0 0,0.01 0,0.01 0,0.02 0.01,0.02 0.01,0.01 0.02,0.01 0.02,0.01 0.01,0 0.01,0 0.02,0l0.12 -0.07 0.12 0.07c0.01,0 0.01,0 0.02,0 0.02,0 0.03,-0.02 0.03,-0.03 0,-0.01 0,-0.01 0,-0.01l-0.02 -0.13 0.1 -0.1c0,-0.01 0.01,-0.01 0.01,-0.02 0,-0.02 -0.01,-0.04 -0.03,-0.04l-0.14 -0.02 -0.06 -0.12c0,-0.01 -0.02,-0.02 -0.03,-0.02 0,0 0,0 0,0 0,0 0,0 0,0 -0.01,0 -0.02,0.01 -0.03,0.02l-0.06 0.12 -0.14 0.02c-0.01,0 -0.03,0.02 -0.03,0.04 0,0 0.01,0.01 0.01,0.02l0.1 0.1 0 -0.01zm0.68 0.25c-0.01,-0.02 -0.03,-0.02 -0.05,-0.03 0,0 0,0 -0.01,0 -0.01,0 -0.03,0.01 -0.05,0.02l-0.17 0.16c0,0 0,-0.01 0,-0.01 -0.01,-0.02 -0.02,-0.04 -0.04,-0.05 -0.04,-0.02 -0.08,-0.01 -0.12,0 -0.02,0 -0.04,0 -0.06,0 -0.01,0 -0.01,0 -0.02,0 -0.01,0 -0.02,0 -0.03,-0.01 -0.04,-0.01 -0.08,-0.04 -0.17,-0.02 -0.04,0.01 -0.08,0.04 -0.11,0.07l0 -0.05c0,-0.01 -0.01,-0.02 -0.02,-0.02l-0.16 0c-0.01,0 -0.02,0.01 -0.02,0.02l0 0.37c0,0.01 0.01,0.01 0.02,0.01l0.16 0c0.01,0 0.02,0 0.02,-0.01l0 -0.03c0.02,0 0.14,0.03 0.22,0.03 0.09,0 0.2,-0.02 0.26,-0.05 0.13,-0.05 0.33,-0.28 0.34,-0.3 0.02,-0.01 0.03,-0.03 0.03,-0.05 0,-0.02 -0.01,-0.04 -0.02,-0.05l0 0zm-0.87 0.43l-0.12 0 0 -0.33 0.12 0 0 0.33zm0.84 -0.35l0 0c-0.01,0 -0.21,0.24 -0.33,0.29 -0.06,0.03 -0.16,0.04 -0.25,0.04 -0.08,0 -0.21,-0.03 -0.22,-0.03 0,0 0,0 0,0 0,0 0,0 0,0l0 -0.2c0.01,-0.02 0.06,-0.07 0.12,-0.08 0.08,-0.02 0.11,0 0.14,0.01 0.01,0.01 0.03,0.02 0.04,0.02 0.01,0 0.02,0 0.03,0 0.02,0 0.04,0 0.06,-0.01 0.04,0 0.08,-0.01 0.1,0 0.01,0.01 0.02,0.02 0.02,0.03 0,0 0,0.01 0,0.01 0,0.01 0,0.02 -0.01,0.03 -0.03,0.04 -0.2,0.1 -0.27,0.09 0,0 0,0 0,0 -0.01,0 -0.02,0.01 -0.02,0.02 0,0.01 0,0.02 0.01,0.02 0.01,0 0.01,0 0.02,0 0.08,0 0.22,-0.05 0.28,-0.09l0 0 0.23 -0.21c0.01,-0.01 0.01,-0.01 0.02,-0.01 0,0 0,0 0,0 0.01,0 0.02,0.01 0.03,0.01 0.01,0.01 0.01,0.02 0.01,0.03 0,0.01 -0.01,0.02 -0.01,0.03l0 0zm-0.58 -0.46c0.01,0 0.02,-0.01 0.02,-0.01l0.06 -0.13 0.06 0.13c0.01,0 0.01,0.01 0.02,0.01l0.14 0.02 -0.1 0.09c-0.01,0.01 -0.01,0.01 -0.01,0.02 0,0 0,0 0,0l0.02 0.14 -0.12 -0.06c0,-0.01 0,-0.01 -0.01,-0.01 0,0 0,0 0,0.01l-0.13 0.06 0.02 -0.14c0,0 0,0 0,0 0,-0.01 0,-0.01 0,-0.01l-0.1 -0.1 0.13 -0.02 0 0z"/>
 </g>
</svg>
