<?xml version="1.0" encoding="UTF-8"?>
<!DOCTYPE svg PUBLIC "-//W3C//DTD SVG 1.1//EN" "http://www.w3.org/Graphics/SVG/1.1/DTD/svg11.dtd">
<!-- Creator: CorelDRAW 2021 (64-Bit) -->
<svg xmlns="http://www.w3.org/2000/svg" xml:space="preserve" width="51px" height="51px" version="1.1" style="shape-rendering:geometricPrecision; text-rendering:geometricPrecision; image-rendering:optimizeQuality; fill-rule:evenodd; clip-rule:evenodd"
viewBox="0 0 1.39 1.39"
 xmlns:xlink="http://www.w3.org/1999/xlink"
 xmlns:xodm="http://www.corel.com/coreldraw/odm/2003">
 <defs>
  <style type="text/css">
   <![CDATA[
    .fil0 {fill:#2B2A29;fill-rule:nonzero}
   ]]>
  </style>
 </defs>
 <g id="Katman_x0020_1">
  <metadata id="CorelCorpID_0Corel-Layer"/>
  <path class="fil0" d="M1.35 0.69c0,-0.18 -0.07,-0.34 -0.19,-0.46 -0.12,-0.12 -0.29,-0.2 -0.47,-0.2 -0.18,0 -0.34,0.08 -0.46,0.2 -0.12,0.12 -0.2,0.28 -0.2,0.46 0,0.18 0.08,0.35 0.2,0.47 0.12,0.12 0.28,0.19 0.46,0.19 0.18,0 0.35,-0.07 0.47,-0.19 0.12,-0.12 0.19,-0.29 0.19,-0.47zm-0.09 0c0,-0.31 -0.25,-0.57 -0.57,-0.57 -0.31,0 -0.57,0.26 -0.57,0.57 0,0.32 0.26,0.57 0.57,0.57 0.32,0 0.57,-0.25 0.57,-0.57zm-0.66 0.19c0,-0.03 -0.01,-0.05 -0.03,-0.07 -0.01,-0.01 -0.02,-0.02 -0.04,-0.02 0,0 -0.01,0 -0.01,0 0,0 -0.01,0 -0.02,0 -0.02,0 -0.04,0.01 -0.06,0.02 -0.02,0.02 -0.03,0.04 -0.03,0.07 0,0.02 0.01,0.05 0.03,0.06 0.02,0.02 0.04,0.03 0.06,0.03 0.03,0 0.05,-0.01 0.07,-0.03 0.02,-0.01 0.03,-0.04 0.03,-0.06l0 0zm0.13 -0.03c0,0 0,-0.02 0,-0.03 0.01,-0.01 0.03,-0.01 0.04,0l0.08 0.08c0.02,0.02 0.04,0.03 0.07,0.03 0.01,0 0.03,0 0.04,-0.01l-0.19 -0.19 -0.13 0.12c0,0.01 0,0.02 0,0.03 0,0.04 -0.01,0.07 -0.04,0.1 -0.02,0.02 -0.06,0.04 -0.1,0.04 -0.03,0 -0.07,-0.02 -0.09,-0.04 -0.03,-0.03 -0.05,-0.06 -0.05,-0.1 0,-0.04 0.02,-0.08 0.05,-0.1 0.02,-0.03 0.06,-0.04 0.09,-0.04 0.01,0 0.02,0 0.03,0l0.29 -0.29c0.02,-0.03 0.06,-0.04 0.1,-0.04 0.03,0 0.07,0.01 0.1,0.04 0,0.01 0,0.02 0,0.03l-0.22 0.21 0.22 0.21c0,0.01 0,0.03 0,0.04 -0.03,0.02 -0.07,0.04 -0.1,0.04 -0.04,0 -0.08,-0.02 -0.1,-0.04l-0.09 -0.09 0 0zm-0.13 -0.34c0,-0.03 -0.01,-0.05 -0.03,-0.07 -0.02,-0.01 -0.04,-0.03 -0.07,-0.03 -0.02,0 -0.04,0.02 -0.06,0.03 -0.02,0.02 -0.03,0.04 -0.03,0.07 0,0.02 0.01,0.05 0.03,0.06 0.02,0.02 0.04,0.03 0.06,0.03 0.03,0 0.05,-0.01 0.07,-0.03 0.02,-0.01 0.03,-0.04 0.03,-0.06zm0 -0.1c0.03,0.02 0.04,0.06 0.04,0.1 0,0.04 -0.01,0.07 -0.04,0.1 -0.02,0.02 -0.06,0.04 -0.1,0.04 -0.03,0 -0.07,-0.02 -0.1,-0.04 -0.02,-0.03 -0.04,-0.06 -0.04,-0.1 0,-0.04 0.02,-0.08 0.04,-0.1 0.03,-0.03 0.07,-0.04 0.1,-0.04 0.04,0 0.08,0.01 0.1,0.04zm0.02 0.4l0.13 -0.13 0 0 0 0 0 0 0 -0.01 0.21 -0.2c-0.01,-0.01 -0.03,-0.02 -0.04,-0.02 -0.03,0 -0.05,0.01 -0.07,0.03l-0.27 0.28c0.01,0 0.02,0.01 0.02,0.02 0.01,0.01 0.02,0.02 0.02,0.02l0 0.01zm0.56 -0.61c0.13,0.13 0.21,0.3 0.21,0.49 0,0.19 -0.08,0.37 -0.21,0.49 -0.12,0.13 -0.3,0.21 -0.49,0.21 -0.19,0 -0.36,-0.08 -0.49,-0.21 -0.12,-0.12 -0.2,-0.3 -0.2,-0.49 0,-0.19 0.08,-0.36 0.2,-0.49 0.13,-0.12 0.3,-0.2 0.49,-0.2 0.19,0 0.37,0.08 0.49,0.2z"/>
 </g>
</svg>
