<?xml version="1.0" encoding="UTF-8"?>
<!DOCTYPE svg PUBLIC "-//W3C//DTD SVG 1.1//EN" "http://www.w3.org/Graphics/SVG/1.1/DTD/svg11.dtd">
<!-- Creator: CorelDRAW 2021 (64-Bit) -->
<svg xmlns="http://www.w3.org/2000/svg" xml:space="preserve" width="51px" height="51px" version="1.1" style="shape-rendering:geometricPrecision; text-rendering:geometricPrecision; image-rendering:optimizeQuality; fill-rule:evenodd; clip-rule:evenodd"
viewBox="0 0 2.94 2.94"
 xmlns:xlink="http://www.w3.org/1999/xlink"
 xmlns:xodm="http://www.corel.com/coreldraw/odm/2003">
 <defs>
  <style type="text/css">
   <![CDATA[
    .fil0 {fill:#2B2A29}
   ]]>
  </style>
 </defs>
 <g id="Katman_x0020_1">
  <metadata id="CorelCorpID_0Corel-Layer"/>
  <path class="fil0" d="M2.68 1.47c0,-0.67 -0.54,-1.21 -1.21,-1.21 -0.67,0 -1.21,0.54 -1.21,1.21 0,0.67 0.54,1.21 1.21,1.21 0.67,0 1.21,-0.54 1.21,-1.21zm0.19 0c0,-0.39 -0.16,-0.74 -0.41,-0.99 -0.25,-0.25 -0.6,-0.41 -0.99,-0.41 -0.39,0 -0.74,0.16 -0.99,0.41 -0.25,0.25 -0.41,0.6 -0.41,0.99 0,0.39 0.16,0.74 0.41,0.99 0.25,0.25 0.6,0.41 0.99,0.41 0.39,0 0.74,-0.16 0.99,-0.41 0.25,-0.25 0.41,-0.6 0.41,-0.99zm-0.36 -1.04c0.27,0.27 0.43,0.63 0.43,1.04 0,0.41 -0.16,0.77 -0.43,1.04 -0.27,0.27 -0.63,0.43 -1.04,0.43 -0.41,0 -0.77,-0.16 -1.04,-0.43 -0.27,-0.27 -0.43,-0.63 -0.43,-1.04 0,-0.4 0.16,-0.77 0.43,-1.04 0.27,-0.27 0.64,-0.43 1.04,-0.43 0.41,0 0.77,0.16 1.04,0.43zm-1.66 0.8c0,-0.59 1.24,-0.59 1.24,0 0,0.19 -0.08,0.2 -0.14,0.34 -0.08,0.17 -0.07,0.39 -0.07,0.58l-0.82 0c0,-0.19 0.02,-0.41 -0.07,-0.58 -0.06,-0.14 -0.14,-0.15 -0.14,-0.34l0 0zm0.47 0.65l0 -0.73c0,-0.09 0.07,-0.16 0.15,-0.16 0.09,0 0.16,0.07 0.16,0.16l0 0.73c0,0.04 -0.04,0.07 -0.07,0.07l-0.17 0c-0.04,0 -0.08,-0.03 -0.08,-0.07l0.01 0zm-0.08 0.07l0 -0.8c0,-0.13 0.11,-0.23 0.23,-0.23 0.13,0 0.23,0.1 0.23,0.23l0 0.8c0,0.04 -0.03,0.07 -0.07,0.07l-0.31 0c-0.04,0 -0.08,-0.03 -0.08,-0.07l0 0z"/>
 </g>
</svg>
