<?xml version="1.0" encoding="UTF-8"?>
<!DOCTYPE svg PUBLIC "-//W3C//DTD SVG 1.1//EN" "http://www.w3.org/Graphics/SVG/1.1/DTD/svg11.dtd">
<!-- Creator: CorelDRAW 2021 (64-Bit) -->
<svg xmlns="http://www.w3.org/2000/svg" xml:space="preserve" width="51px" height="51px" version="1.1" style="shape-rendering:geometricPrecision; text-rendering:geometricPrecision; image-rendering:optimizeQuality; fill-rule:evenodd; clip-rule:evenodd"
viewBox="0 0 1.2 1.2"
 xmlns:xlink="http://www.w3.org/1999/xlink"
 xmlns:xodm="http://www.corel.com/coreldraw/odm/2003">
 <defs>
  <style type="text/css">
   <![CDATA[
    .fil0 {fill:#2B2A29;fill-rule:nonzero}
   ]]>
  </style>
 </defs>
 <g id="Katman_x0020_1">
  <metadata id="CorelCorpID_0Corel-Layer"/>
  <path class="fil0" d="M1.17 0.6c0,-0.16 -0.06,-0.3 -0.16,-0.4 -0.11,-0.11 -0.25,-0.17 -0.41,-0.17 -0.16,0 -0.3,0.06 -0.4,0.17 -0.11,0.1 -0.17,0.24 -0.17,0.4 0,0.16 0.06,0.3 0.17,0.41 0.1,0.1 0.24,0.16 0.4,0.16 0.16,0 0.3,-0.06 0.41,-0.16 0.1,-0.11 0.16,-0.25 0.16,-0.41zm-0.57 -0.49c0.27,0 0.5,0.22 0.5,0.49 0,0.27 -0.23,0.5 -0.5,0.5 -0.27,0 -0.49,-0.23 -0.49,-0.5 0,-0.27 0.22,-0.49 0.49,-0.49zm0.36 0.63l-0.09 0c0,-0.04 -0.03,-0.06 -0.07,-0.06 -0.03,0 -0.06,0.02 -0.07,0.06l-0.01 0 0 -0.24 0.15 0 0.09 0.14 0 0.1 0 0zm-0.67 -0.11l0.25 0c0.01,0 0.02,-0.01 0.02,-0.02 0,0 -0.01,-0.01 -0.02,-0.01l-0.25 0c0,0 -0.01,0.01 -0.01,0.01 0,0.01 0.01,0.02 0.01,0.02zm0.35 -0.03l-0.05 0c0,0 -0.01,0 -0.01,0.01 0,0.01 0.01,0.02 0.01,0.02l0.05 0c0,0 0.01,-0.01 0.01,-0.02 0,-0.01 -0.01,-0.01 -0.01,-0.01zm0 -0.08l-0.25 0c-0.01,0 -0.02,0 -0.02,0.01 0,0.01 0.01,0.01 0.02,0.01l0.25 0c0,0 0.01,0 0.01,-0.01 0,-0.01 -0.01,-0.01 -0.01,-0.01zm-0.35 0.02l0.05 0c0,0 0.01,0 0.01,-0.01 0,-0.01 -0.01,-0.01 -0.01,-0.01l-0.05 0c0,0 -0.01,0 -0.01,0.01 0,0.01 0.01,0.01 0.01,0.01zm0.48 0.07l0 -0.05 0.07 0 0.04 0.05 -0.11 0 0 0zm0.08 -0.08l-0.09 0c-0.01,0 -0.02,0 -0.02,0.01l0 0.08c0,0.01 0.01,0.02 0.02,0.02l0.14 0c0.01,0 0.01,-0.01 0.02,-0.01 0,-0.01 0,-0.01 0,-0.02l-0.06 -0.08c0,0 0,0 -0.01,0l0 0zm-0.05 0.26c-0.02,0 -0.04,-0.02 -0.04,-0.04 0,-0.02 0.02,-0.04 0.04,-0.04 0.03,0 0.05,0.02 0.05,0.04 0,0.02 -0.02,0.04 -0.05,0.04zm-0.46 -0.08c0.03,0 0.05,0.01 0.05,0.04 0,0.02 -0.02,0.04 -0.05,0.04 -0.02,0 -0.04,-0.02 -0.04,-0.04 0,-0.03 0.02,-0.04 0.04,-0.04zm0.55 -0.23c0,0 -0.01,-0.01 -0.01,-0.01l-0.16 0 0 -0.08c0,0 -0.01,-0.01 -0.02,-0.01l-0.47 0c-0.01,0 -0.02,0.01 -0.02,0.01l0 0.36c0,0.01 0.01,0.01 0.02,0.01l0.04 0c0.01,0.04 0.04,0.06 0.07,0.06 0.04,0 0.07,-0.02 0.08,-0.06l0.04 0c0.01,0 0.02,0 0.02,-0.01 0,-0.01 -0.01,-0.01 -0.02,-0.01l-0.04 0c-0.01,-0.04 -0.04,-0.06 -0.08,-0.06 -0.03,0 -0.06,0.02 -0.07,0.06l-0.03 0 0 -0.33 0.45 0 0 0.33 -0.17 0c-0.01,0 -0.02,0 -0.02,0.01 0,0.01 0.01,0.01 0.02,0.01l0.21 0c0.01,0.04 0.04,0.06 0.07,0.06 0.04,0 0.07,-0.02 0.08,-0.06l0.09 0c0.01,0 0.02,0 0.02,-0.01l0 -0.12c0,0 0,-0.01 0,-0.01l-0.1 -0.14 0 0zm0.14 -0.3c0.1,0.1 0.17,0.26 0.17,0.42 0,0.17 -0.07,0.32 -0.17,0.43 -0.11,0.1 -0.26,0.17 -0.43,0.17 -0.16,0 -0.32,-0.07 -0.42,-0.17 -0.11,-0.11 -0.18,-0.26 -0.18,-0.43 0,-0.16 0.07,-0.32 0.18,-0.42 0.1,-0.11 0.26,-0.18 0.42,-0.18 0.17,0 0.32,0.07 0.43,0.18z"/>
 </g>
</svg>
