<?xml version="1.0" encoding="UTF-8"?>
<!DOCTYPE svg PUBLIC "-//W3C//DTD SVG 1.1//EN" "http://www.w3.org/Graphics/SVG/1.1/DTD/svg11.dtd">
<!-- Creator: CorelDRAW 2021 (64-Bit) -->
<svg xmlns="http://www.w3.org/2000/svg" xml:space="preserve" width="51px" height="51px" version="1.1" style="shape-rendering:geometricPrecision; text-rendering:geometricPrecision; image-rendering:optimizeQuality; fill-rule:evenodd; clip-rule:evenodd"
viewBox="0 0 1.78 1.78"
 xmlns:xlink="http://www.w3.org/1999/xlink"
 xmlns:xodm="http://www.corel.com/coreldraw/odm/2003">
 <defs>
  <style type="text/css">
   <![CDATA[
    .fil0 {fill:#2B2A29}
   ]]>
  </style>
 </defs>
 <g id="Katman_x0020_1">
  <metadata id="CorelCorpID_0Corel-Layer"/>
  <path class="fil0" d="M0.89 0.16c0.41,0 0.74,0.33 0.74,0.73 0,0.41 -0.33,0.74 -0.74,0.74 -0.4,0 -0.73,-0.33 -0.73,-0.74 0,-0.4 0.33,-0.73 0.73,-0.73zm0.85 0.73c0,-0.23 -0.09,-0.44 -0.25,-0.6 -0.15,-0.15 -0.36,-0.25 -0.6,-0.25 -0.23,0 -0.44,0.1 -0.6,0.25 -0.15,0.16 -0.25,0.37 -0.25,0.6 0,0.24 0.1,0.45 0.25,0.6 0.16,0.16 0.37,0.25 0.6,0.25 0.24,0 0.45,-0.09 0.6,-0.25 0.16,-0.15 0.25,-0.36 0.25,-0.6zm-0.22 -0.63c0.16,0.16 0.26,0.39 0.26,0.63 0,0.25 -0.1,0.47 -0.26,0.63 -0.16,0.16 -0.38,0.26 -0.63,0.26 -0.24,0 -0.47,-0.1 -0.63,-0.26 -0.16,-0.16 -0.26,-0.38 -0.26,-0.63 0,-0.24 0.1,-0.47 0.26,-0.63 0.16,-0.16 0.39,-0.26 0.63,-0.26 0.25,0 0.47,0.1 0.63,0.26zm-0.8 0.1l0.35 0 0 1.07 -0.35 0 0 -1.07zm0.18 0.93c-0.01,0 -0.01,-0.01 -0.02,-0.01 0,0 0,0.01 -0.01,0.01l-0.02 0 0 0 0 -0.02 0 -0.01 0.02 0c0.01,0 0.01,0.01 0.01,0.01 0.01,0 0.01,0 0.02,0 0,0 0.01,0 0.01,0.01 0,0 -0.01,0.01 -0.01,0.01l0 0zm-0.04 0.07l0.07 0 0 0.04 -0.07 0 0 -0.04zm0.03 -0.69c0,0 0,-0.01 0.01,-0.01 0.01,0 0.01,0.01 0.01,0.01l0.02 0 0 0 0 -0.02 0 -0.01 -0.02 0c0,0 0,0.01 -0.01,0.01 -0.01,0 -0.01,0 -0.01,0 -0.01,0 -0.01,0 -0.01,0.01 0,0 0,0.01 0.01,0.01l0 0zm0.01 -0.21c-0.01,0 -0.01,-0.01 -0.02,-0.01 0,0 0,0.02 -0.01,0.02l-0.02 0 0 -0.01 0 -0.02 0 -0.01 0.02 0c0.01,0 0.01,0.02 0.01,0.02 0.01,0 0.01,-0.01 0.02,-0.01 0,0 0.01,0 0.01,0.01 0,0.01 -0.01,0.01 -0.01,0.01l0 0zm0.03 0l0 0 -0.02 0c0,0 0,0.01 -0.01,0.01 -0.01,0 -0.01,-0.01 -0.01,-0.01 -0.01,0 -0.01,0.01 -0.01,0.01l0 0 0 0 0 0 0 0 0 0 0 0 0 0 0 0 0 0 0 0 0 0.01c0,0 0,0 0.01,0 0,0 0,-0.01 0.01,-0.01 0.01,0 0.01,0.02 0.01,0.02l0.02 0 0 -0.01 0 -0.02 0 0zm-0.03 0.05c-0.01,0 -0.01,-0.01 -0.02,-0.01 0,0 0,0.01 -0.01,0.01l-0.02 0 0 0 0 -0.03 0 0 0.02 0c0.01,0 0.01,0.01 0.01,0.01 0.01,0 0.01,-0.01 0.02,-0.01 0,0 0.01,0.01 0.01,0.02 0,0 -0.01,0.01 -0.01,0.01l0 0zm0 0.04c-0.01,0 -0.01,0 -0.02,0 0,0 0,0.01 -0.01,0.01l-0.02 0 0 -0.01 0 -0.02 0 0 0.02 0c0.01,0 0.01,0.01 0.01,0.01 0.01,0 0.01,-0.01 0.02,-0.01 0,0 0.01,0.01 0.01,0.01 0,0.01 -0.01,0.01 -0.01,0.01l0 0zm-0.01 -0.02c0,0 0,-0.01 0.01,-0.01 0.01,0 0.01,0.01 0.01,0.01l0.02 0 0 0 0 -0.02 0 -0.01 -0.02 0c0,0 0,0.02 -0.01,0.02 -0.01,0 -0.01,-0.01 -0.01,-0.01 -0.01,0 -0.01,0 -0.01,0.01 0,0.01 0,0.01 0.01,0.01l0 0zm0.01 0.07c-0.01,0 -0.01,-0.01 -0.02,-0.01 0,0 0,0.01 -0.01,0.01l-0.02 0 0 0 0 -0.02 0 -0.01 0.02 0c0.01,0 0.01,0.02 0.01,0.02 0.01,0 0.01,-0.01 0.02,-0.01 0,0 0.01,0 0.01,0.01 0,0.01 -0.01,0.01 -0.01,0.01l0 0zm-0.01 -0.02c0,0 0,-0.01 0.01,-0.01 0.01,0 0.01,0.01 0.01,0.01l0.02 0 0 0 0 -0.03 0 0 -0.02 0c0,0 0,0.01 -0.01,0.01 -0.01,0 -0.01,-0.01 -0.01,-0.01 -0.01,0 -0.01,0.01 -0.01,0.02 0,0 0,0.01 0.01,0.01zm0.01 0.07c-0.01,0 -0.01,-0.01 -0.02,-0.01 0,0 0,0.01 -0.01,0.01l-0.02 0 0 0 0 -0.03 0 0 0.02 0c0.01,0 0.01,0.01 0.01,0.01 0.01,0 0.01,-0.01 0.02,-0.01 0,0 0.01,0.01 0.01,0.01 0,0.01 -0.01,0.02 -0.01,0.02l0 0zm-0.01 -0.03c0,0 0,0 0.01,0 0.01,0 0.01,0.01 0.01,0.01l0.02 0 0 -0.01 0 -0.02 0 0 -0.02 0c0,0 0,0.01 -0.01,0.01 -0.01,0 -0.01,-0.01 -0.01,-0.01 -0.01,0 -0.01,0.01 -0.01,0.01 0,0.01 0,0.01 0.01,0.01l0 0zm0.01 0.07c-0.01,0 -0.01,-0.01 -0.02,-0.01 0,0 0,0.02 -0.01,0.02l-0.02 0 0 -0.01 0 -0.02 0 0 0.02 0c0.01,0 0.01,0.01 0.01,0.01 0.01,0 0.01,-0.01 0.02,-0.01 0,0 0.01,0 0.01,0.01 0,0.01 -0.01,0.01 -0.01,0.01l0 0zm0.03 0l0 0 -0.02 0c0,0 0,0.01 -0.01,0.01 -0.01,0 -0.01,-0.01 -0.01,-0.01 -0.01,0 -0.01,0.01 -0.01,0.01l0 0 0 0 0 0 0 0 0 0 0 0 0 0 0 0 0 0 0 0.01 0 0 0 0c0,0 0,0 0.01,0 0,0 0,0 0.01,0 0.01,0 0.01,0.01 0.01,0.01l0.02 0 0 -0.01 0 -0.02 0 0zm-0.03 0.05c-0.01,0 -0.01,-0.01 -0.02,-0.01 0,0 0,0.01 -0.01,0.01l-0.02 0 0 0 0 -0.03 0 0 0.02 0c0.01,0 0.01,0.01 0.01,0.01 0.01,0 0.01,-0.01 0.02,-0.01 0,0 0.01,0.01 0.01,0.02 0,0 -0.01,0.01 -0.01,0.01l0 0zm0 0.04c-0.01,0 -0.01,0 -0.02,0 0,0 0,0.01 -0.01,0.01l-0.02 0 0 -0.01 0 -0.02 0 0 0.02 0c0.01,0 0.01,0.01 0.01,0.01 0.01,0 0.01,-0.01 0.02,-0.01 0,0 0.01,0.01 0.01,0.01 0,0.01 -0.01,0.01 -0.01,0.01l0 0zm-0.01 -0.02c0,0 0,-0.01 0.01,-0.01 0.01,0 0.01,0.02 0.01,0.02l0.02 0 0 -0.01 0 -0.02 0 0 -0.02 0c0,0 0,0.01 -0.01,0.01 -0.01,0 -0.01,-0.01 -0.01,-0.01 -0.01,0 -0.01,0 -0.01,0.01 0,0.01 0,0.01 0.01,0.01l0 0zm0 0.05c0,0 0,-0.01 0.01,-0.01 0.01,0 0.01,0.01 0.01,0.01l0.02 0 0 0 0 -0.03 0 0 -0.02 0c0,0 0,0.01 -0.01,0.01 -0.01,0 -0.01,-0.01 -0.01,-0.01 -0.01,0 -0.01,0.01 -0.01,0.02 0,0 0,0.01 0.01,0.01l0 0zm0 0.23c0,0 0,-0.01 0.01,-0.01 0.01,0 0.01,0.01 0.01,0.01l0.02 0 0 0 0 -0.03 0 0 -0.02 0c0,0 0,0.01 -0.01,0.01 -0.01,0 -0.01,-0.01 -0.01,-0.01 -0.01,0 -0.01,0.01 -0.01,0.02 0,0 0,0.01 0.01,0.01l0 0zm0.01 -0.21c-0.01,0 -0.01,-0.01 -0.02,-0.01 0,0 0,0.01 -0.01,0.01l-0.02 0 0 0 0 -0.02 0 -0.01 0.02 0c0.01,0 0.01,0.02 0.01,0.02 0.01,0 0.01,-0.01 0.02,-0.01 0,0 0.01,0 0.01,0.01 0,0.01 -0.01,0.01 -0.01,0.01l0 0zm0.03 0l0 0 -0.02 0c0,0 0,0.01 -0.01,0.01 -0.01,0 -0.01,-0.01 -0.01,-0.01 -0.01,0 -0.01,0 -0.01,0.01l0 0 0 0 0 0 0 0 0 0 0 0 0 0 0 0 0 0 0 0 0 0c0,0.01 0,0.01 0.01,0.01 0,0 0,-0.01 0.01,-0.01 0.01,0 0.01,0.01 0.01,0.01l0.02 0 0 0 0 -0.02 0 0zm-0.03 0.05c-0.01,0 -0.01,-0.01 -0.02,-0.01 0,0 0,0.01 -0.01,0.01l-0.02 0 0 0 0 -0.03 0 0 0.02 0c0.01,0 0.01,0.01 0.01,0.01 0.01,0 0.01,-0.01 0.02,-0.01 0,0 0.01,0.01 0.01,0.01 0,0.01 -0.01,0.02 -0.01,0.02l0 0zm0 0.04c-0.01,0 -0.01,-0.01 -0.02,-0.01 0,0 0,0.02 -0.01,0.02l-0.02 0 0 -0.01 0 -0.02 0 0 0.02 0c0.01,0 0.01,0.01 0.01,0.01 0.01,0 0.01,-0.01 0.02,-0.01 0,0 0.01,0 0.01,0.01 0,0.01 -0.01,0.01 -0.01,0.01l0 0zm-0.01 -0.02c0,0 0,-0.01 0.01,-0.01 0.01,0 0.01,0.01 0.01,0.01l0.02 0 0 0 0 -0.02 0 -0.01 -0.02 0c0,0 0,0.02 -0.01,0.02 -0.01,0 -0.01,-0.01 -0.01,-0.01 -0.01,0 -0.01,0 -0.01,0.01 0,0.01 0,0.01 0.01,0.01l0 0zm0.01 0.07c-0.01,0 -0.01,-0.01 -0.02,-0.01 0,0 0,0.01 -0.01,0.01l-0.02 0 0 0 0 -0.02 0 -0.01 0.02 0c0.01,0 0.01,0.01 0.01,0.01 0.01,0 0.01,0 0.02,0 0,0 0.01,0 0.01,0.01 0,0 -0.01,0.01 -0.01,0.01l0 0zm-0.01 -0.02c0,0 0,-0.01 0.01,-0.01 0.01,0 0.01,0.01 0.01,0.01l0.02 0 0 -0.01 0 -0.02 0 0 -0.02 0c0,0 0,0.01 -0.01,0.01 -0.01,0 -0.01,-0.01 -0.01,-0.01 -0.01,0 -0.01,0.01 -0.01,0.01 0,0.01 0,0.02 0.01,0.02l0 0zm0.01 0.06c-0.01,0 -0.01,0 -0.02,0 0,0 0,0.01 -0.01,0.01l-0.02 0 0 -0.01 0 -0.02 0 0 0.02 0c0.01,0 0.01,0.01 0.01,0.01 0.01,0 0.01,-0.01 0.02,-0.01 0,0 0.01,0.01 0.01,0.01 0,0.01 -0.01,0.01 -0.01,0.01l0 0zm-0.01 -0.02c0,0 0,-0.01 0.01,-0.01 0.01,0 0.01,0.02 0.01,0.02l0.02 0 0 -0.01 0 -0.02 0 0 -0.02 0c0,0 0,0.01 -0.01,0.01 -0.01,0 -0.01,-0.01 -0.01,-0.01 -0.01,0 -0.01,0 -0.01,0.01 0,0.01 0,0.01 0.01,0.01l0 0zm0 0.28c0,0 0,-0.01 0.01,-0.01 0.01,0 0.01,0.01 0.01,0.01l0.02 0 0 0 0 -0.03 0 0 -0.02 0c0,0 0,0.01 -0.01,0.01 -0.01,0 -0.01,-0.01 -0.01,-0.01 -0.01,0 -0.01,0.01 -0.01,0.02 0,0 0,0.01 0.01,0.01l0 0zm0.01 -0.21c-0.01,0 -0.01,-0.01 -0.02,-0.01 0,0 0,0.01 -0.01,0.01l-0.02 0 0 0 0 -0.02 0 -0.01 0.02 0c0.01,0 0.01,0.02 0.01,0.02 0.01,0 0.01,-0.01 0.02,-0.01 0,0 0.01,0 0.01,0.01 0,0.01 -0.01,0.01 -0.01,0.01l0 0zm0.03 0l0 0 -0.02 0c0,0 0,0.01 -0.01,0.01 -0.01,0 -0.01,-0.01 -0.01,-0.01 -0.01,0 -0.01,0 -0.01,0.01l0 0 0 0 0 0 0 0 0 0 0 0 0 0 0 0 0 0 0 0 0 0 0 0 0 0c0,0.01 0,0.01 0.01,0.01 0,0 0,-0.01 0.01,-0.01 0.01,0 0.01,0.02 0.01,0.02l0.02 0 0 -0.01 0 -0.02 0 0zm-0.08 -0.65l0.03 0 0 0.02 -0.03 0 0 -0.02zm0.05 0l0.03 0 0 0.02 -0.03 0 0 -0.02zm-0.04 0.89l0.02 0 0 0 0 0.01 0.01 0 0 0.01 0 0.03 0 0 -0.03 0 0 0 0 -0.01 0 -0.02 0 -0.02 0 0 0 0zm0.04 0.01l0.03 0 0 0 0 0.04 0 0 -0.03 0 -0.01 0 0 -0.04 0.01 0zm0 -0.2c-0.01,0 -0.01,-0.01 -0.02,-0.01 0,0 0,0.01 -0.01,0.01l-0.02 0 0 0 0 -0.03 0 0 0.02 0c0.01,0 0.01,0.01 0.01,0.01 0.01,0 0.01,-0.01 0.02,-0.01 0,0 0.01,0.01 0.01,0.01 0,0.01 -0.01,0.02 -0.01,0.02l0 0zm0 0.04c-0.01,0 -0.01,-0.01 -0.02,-0.01 0,0 0,0.02 -0.01,0.02l-0.02 0 0 -0.01 0 -0.02 0 0 0.02 0c0.01,0 0.01,0.01 0.01,0.01 0.01,0 0.01,-0.01 0.02,-0.01 0,0 0.01,0 0.01,0.01 0,0.01 -0.01,0.01 -0.01,0.01l0 0zm-0.01 -0.02c0,0 0,-0.01 0.01,-0.01 0.01,0 0.01,0.01 0.01,0.01l0.02 0 0 0 0 -0.02 0 -0.01 -0.02 0c0,0 0,0.02 -0.01,0.02 -0.01,0 -0.01,-0.01 -0.01,-0.01 -0.01,0 -0.01,0 -0.01,0.01 0,0.01 0,0.01 0.01,0.01l0 0zm0.01 0.07c-0.01,0 -0.01,-0.01 -0.02,-0.01 0,0 0,0.01 -0.01,0.01l-0.02 0 0 0 0 -0.02 0 -0.01 0.02 0c0.01,0 0.01,0.01 0.01,0.01 0.01,0 0.01,0 0.02,0 0,0 0.01,0 0.01,0.01 0,0 -0.01,0.01 -0.01,0.01l0 0zm-0.01 -0.02c0,0 0,-0.01 0.01,-0.01 0.01,0 0.01,0.01 0.01,0.01l0.02 0 0 0 0 -0.03 0 0 -0.02 0c0,0 0,0.01 -0.01,0.01 -0.01,0 -0.01,-0.01 -0.01,-0.01 -0.01,0 -0.01,0.01 -0.01,0.01 0,0.01 0,0.02 0.01,0.02l0 0zm0.01 0.06c-0.01,0 -0.01,0 -0.02,0 0,0 0,0.01 -0.01,0.01l-0.02 0 0 -0.01 0 -0.02 0 0 0.02 0c0.01,0 0.01,0.01 0.01,0.01 0.01,0 0.01,-0.01 0.02,-0.01 0,0 0.01,0.01 0.01,0.01 0,0.01 -0.01,0.01 -0.01,0.01zm-0.01 -0.02c0,0 0,-0.01 0.01,-0.01 0.01,0 0.01,0.02 0.01,0.02l0.02 0 0 -0.01 0 -0.02 0 0 -0.02 0c0,0 0,0.01 -0.01,0.01 -0.01,0 -0.01,-0.01 -0.01,-0.01 -0.01,0 -0.01,0.01 -0.01,0.01 0,0.01 0,0.01 0.01,0.01l0 0z"/>
 </g>
</svg>
